G04 DipTrace 2.4.0.2*
%INBottomSilk.gbr*%
%MOIN*%
%ADD10C,0.0098*%
%ADD26C,0.0154*%
%ADD58C,0.0077*%
%FSLAX44Y44*%
G04*
G70*
G90*
G75*
G01*
%LNBotSilk*%
%LPD*%
X29347Y7064D2*
D10*
X29033D1*
X27847D2*
X27533D1*
X28597D2*
X28283D1*
X23033Y4566D2*
X23347D1*
X6033Y5566D2*
X6347D1*
X33847Y6814D2*
X33533D1*
X33847Y16314D2*
X33533D1*
X6033Y15066D2*
X6347D1*
X13566Y8347D2*
Y8033D1*
Y10347D2*
Y10033D1*
X9597Y9564D2*
X9283D1*
X13566Y9347D2*
Y9033D1*
X9283Y9816D2*
X9597D1*
X7190Y8690D2*
X6190D1*
Y10690D1*
X7190D1*
Y8690D1*
X30440Y6940D2*
X31440D1*
Y4940D1*
X30440D1*
Y6940D1*
X4190Y13940D2*
X5190D1*
Y7940D1*
X4190D1*
Y13940D1*
X35690Y9940D2*
X34690D1*
Y11940D1*
X35690D1*
Y9940D1*
X31170Y7900D2*
X17170D1*
X30420Y8650D2*
G02X30420Y8650I750J0D01*
G01*
Y16150D2*
G02X30420Y16150I750J0D01*
G01*
X16420Y8650D2*
G02X16420Y8650I750J0D01*
G01*
Y16150D2*
G02X16420Y16150I750J0D01*
G01*
Y8650D2*
Y16150D1*
X17170Y16900D2*
X31170D1*
X31920Y16150D2*
Y8650D1*
X31190Y10150D2*
Y10900D1*
X29941D1*
Y11400D1*
X31190D1*
Y12150D1*
X29941D1*
Y12650D1*
X31190D1*
Y13400D1*
X29941D1*
Y13900D1*
X31190D1*
Y14650D1*
X29190D1*
X18441Y11900D2*
X17440D1*
Y13650D1*
X18441D1*
Y11900D1*
X18190Y12400D2*
X17691D1*
Y13150D1*
X18190D1*
Y12400D1*
D26*
X21793Y9632D3*
X22294Y9724D2*
D10*
Y10905D1*
X22491D1*
Y9724D1*
X22294D1*
D26*
X26742Y7229D3*
X25849Y7239D2*
D10*
Y4641D1*
X24668Y7239D2*
Y4641D1*
X25849D2*
X24668D1*
X25849Y7239D2*
X24668D1*
X12714Y6572D2*
Y16808D1*
X10666D2*
X12714D1*
X10666Y6572D2*
Y16808D1*
Y6572D2*
X11454D1*
X12714D2*
X11926D1*
X11454D2*
G02X11926Y6572I236J-1D01*
G01*
X29130Y11773D2*
D58*
X29083Y11797D1*
X29035Y11845D1*
X29011Y11893D1*
Y11988D1*
X29035Y12037D1*
X29083Y12084D1*
X29130Y12108D1*
X29202Y12132D1*
X29322D1*
X29393Y12108D1*
X29441Y12084D1*
X29489Y12037D1*
X29513Y11988D1*
Y11893D1*
X29489Y11845D1*
X29441Y11797D1*
X29393Y11773D1*
X29107Y11619D2*
X29083Y11571D1*
X29011Y11499D1*
X29513D1*
X29011Y11201D2*
X29035Y11273D1*
X29107Y11321D1*
X29226Y11345D1*
X29298D1*
X29418Y11321D1*
X29490Y11273D1*
X29513Y11201D1*
Y11154D1*
X29490Y11082D1*
X29418Y11034D1*
X29298Y11010D1*
X29226D1*
X29107Y11034D1*
X29035Y11082D1*
X29011Y11154D1*
Y11201D1*
X29107Y11034D2*
X29418Y11321D1*
X29107Y10855D2*
X29083Y10807D1*
X29011Y10736D1*
X29513D1*
X27630Y11881D2*
X27583Y11905D1*
X27535Y11953D1*
X27511Y12000D1*
Y12096D1*
X27535Y12144D1*
X27583Y12192D1*
X27630Y12216D1*
X27702Y12240D1*
X27822D1*
X27893Y12216D1*
X27941Y12192D1*
X27989Y12144D1*
X28013Y12096D1*
Y12000D1*
X27989Y11953D1*
X27941Y11905D1*
X27893Y11881D1*
X27607Y11727D2*
X27583Y11679D1*
X27511Y11607D1*
X28013D1*
X27511Y11309D2*
X27535Y11380D1*
X27607Y11428D1*
X27726Y11452D1*
X27798D1*
X27918Y11428D1*
X27990Y11380D1*
X28013Y11309D1*
Y11261D1*
X27990Y11189D1*
X27918Y11142D1*
X27798Y11117D1*
X27726D1*
X27607Y11142D1*
X27535Y11189D1*
X27511Y11261D1*
Y11309D1*
X27607Y11142D2*
X27918Y11428D1*
X27631Y10939D2*
X27607D1*
X27559Y10915D1*
X27535Y10891D1*
X27511Y10843D1*
Y10747D1*
X27535Y10700D1*
X27559Y10676D1*
X27607Y10652D1*
X27655D1*
X27703Y10676D1*
X27774Y10724D1*
X28013Y10963D1*
Y10628D1*
X28380Y11881D2*
X28333Y11905D1*
X28285Y11953D1*
X28261Y12000D1*
Y12096D1*
X28285Y12144D1*
X28333Y12192D1*
X28380Y12216D1*
X28452Y12240D1*
X28572D1*
X28643Y12216D1*
X28691Y12192D1*
X28739Y12144D1*
X28763Y12096D1*
Y12000D1*
X28739Y11953D1*
X28691Y11905D1*
X28643Y11881D1*
X28357Y11727D2*
X28333Y11679D1*
X28261Y11607D1*
X28763D1*
X28261Y11309D2*
X28285Y11380D1*
X28357Y11428D1*
X28476Y11452D1*
X28548D1*
X28668Y11428D1*
X28740Y11380D1*
X28763Y11309D1*
Y11261D1*
X28740Y11189D1*
X28668Y11142D1*
X28548Y11117D1*
X28476D1*
X28357Y11142D1*
X28285Y11189D1*
X28261Y11261D1*
Y11309D1*
X28357Y11142D2*
X28668Y11428D1*
X28261Y10915D2*
Y10652D1*
X28453Y10795D1*
Y10724D1*
X28476Y10676D1*
X28500Y10652D1*
X28572Y10628D1*
X28620D1*
X28691Y10652D1*
X28740Y10700D1*
X28763Y10772D1*
Y10844D1*
X28740Y10915D1*
X28715Y10939D1*
X28668Y10963D1*
X23130Y7405D2*
X23083Y7429D1*
X23035Y7477D1*
X23011Y7525D1*
Y7620D1*
X23035Y7668D1*
X23083Y7716D1*
X23130Y7740D1*
X23202Y7764D1*
X23322D1*
X23393Y7740D1*
X23441Y7716D1*
X23489Y7668D1*
X23513Y7620D1*
Y7525D1*
X23489Y7477D1*
X23441Y7429D1*
X23393Y7405D1*
X23107Y7251D2*
X23083Y7203D1*
X23011Y7131D1*
X23513D1*
X23011Y6833D2*
X23035Y6905D1*
X23107Y6953D1*
X23226Y6976D1*
X23298D1*
X23418Y6953D1*
X23490Y6905D1*
X23513Y6833D1*
Y6785D1*
X23490Y6713D1*
X23418Y6666D1*
X23298Y6642D1*
X23226D1*
X23107Y6666D1*
X23035Y6713D1*
X23011Y6785D1*
Y6833D1*
X23107Y6666D2*
X23418Y6953D1*
X23513Y6248D2*
X23011D1*
X23346Y6487D1*
Y6128D1*
X7630Y6763D2*
X7583Y6786D1*
X7535Y6835D1*
X7511Y6882D1*
Y6978D1*
X7535Y7026D1*
X7583Y7073D1*
X7630Y7098D1*
X7702Y7121D1*
X7822D1*
X7893Y7098D1*
X7941Y7073D1*
X7989Y7026D1*
X8013Y6978D1*
Y6882D1*
X7989Y6835D1*
X7941Y6786D1*
X7893Y6763D1*
X7631Y6584D2*
X7607D1*
X7559Y6560D1*
X7535Y6536D1*
X7511Y6488D1*
Y6393D1*
X7535Y6345D1*
X7559Y6321D1*
X7607Y6297D1*
X7655D1*
X7703Y6321D1*
X7774Y6369D1*
X8013Y6608D1*
Y6273D1*
X7511Y5975D2*
X7535Y6047D1*
X7607Y6095D1*
X7726Y6119D1*
X7798D1*
X7918Y6095D1*
X7990Y6047D1*
X8013Y5975D1*
Y5928D1*
X7990Y5856D1*
X7918Y5808D1*
X7798Y5784D1*
X7726D1*
X7607Y5808D1*
X7535Y5856D1*
X7511Y5928D1*
Y5975D1*
X7607Y5808D2*
X7918Y6095D1*
X8013Y5390D2*
X7511D1*
X7846Y5630D1*
Y5271D1*
X33630Y9488D2*
X33583Y9512D1*
X33535Y9560D1*
X33511Y9608D1*
Y9703D1*
X33535Y9752D1*
X33583Y9799D1*
X33630Y9823D1*
X33702Y9847D1*
X33822D1*
X33893Y9823D1*
X33941Y9799D1*
X33989Y9752D1*
X34013Y9703D1*
Y9608D1*
X33989Y9560D1*
X33941Y9512D1*
X33893Y9488D1*
X33631Y9310D2*
X33607D1*
X33559Y9286D1*
X33535Y9262D1*
X33511Y9214D1*
Y9119D1*
X33535Y9071D1*
X33559Y9047D1*
X33607Y9023D1*
X33655D1*
X33703Y9047D1*
X33774Y9095D1*
X34013Y9334D1*
Y8999D1*
X33511Y8701D2*
X33535Y8773D1*
X33607Y8821D1*
X33726Y8845D1*
X33798D1*
X33918Y8821D1*
X33990Y8773D1*
X34013Y8701D1*
Y8654D1*
X33990Y8582D1*
X33918Y8534D1*
X33798Y8510D1*
X33726D1*
X33607Y8534D1*
X33535Y8582D1*
X33511Y8654D1*
Y8701D1*
X33607Y8534D2*
X33918Y8821D1*
X33511Y8069D2*
Y8307D1*
X33726Y8331D1*
X33703Y8307D1*
X33678Y8236D1*
Y8164D1*
X33703Y8092D1*
X33750Y8044D1*
X33822Y8021D1*
X33870D1*
X33941Y8044D1*
X33990Y8092D1*
X34013Y8164D1*
Y8236D1*
X33990Y8307D1*
X33965Y8331D1*
X33918Y8355D1*
X33630Y13476D2*
X33583Y13500D1*
X33535Y13548D1*
X33511Y13596D1*
Y13691D1*
X33535Y13739D1*
X33583Y13787D1*
X33630Y13811D1*
X33702Y13835D1*
X33822D1*
X33893Y13811D1*
X33941Y13787D1*
X33989Y13739D1*
X34013Y13691D1*
Y13596D1*
X33989Y13548D1*
X33941Y13500D1*
X33893Y13476D1*
X33631Y13298D2*
X33607D1*
X33559Y13274D1*
X33535Y13250D1*
X33511Y13202D1*
Y13106D1*
X33535Y13059D1*
X33559Y13035D1*
X33607Y13011D1*
X33655D1*
X33703Y13035D1*
X33774Y13083D1*
X34013Y13322D1*
Y12987D1*
X33511Y12689D2*
X33535Y12761D1*
X33607Y12809D1*
X33726Y12833D1*
X33798D1*
X33918Y12809D1*
X33990Y12761D1*
X34013Y12689D1*
Y12641D1*
X33990Y12570D1*
X33918Y12522D1*
X33798Y12498D1*
X33726D1*
X33607Y12522D1*
X33535Y12570D1*
X33511Y12641D1*
Y12689D1*
X33607Y12522D2*
X33918Y12809D1*
X33583Y12056D2*
X33535Y12080D1*
X33511Y12152D1*
Y12200D1*
X33535Y12271D1*
X33607Y12320D1*
X33726Y12343D1*
X33846D1*
X33941Y12320D1*
X33990Y12271D1*
X34013Y12200D1*
Y12176D1*
X33990Y12105D1*
X33941Y12056D1*
X33870Y12033D1*
X33846D1*
X33774Y12056D1*
X33726Y12105D1*
X33703Y12176D1*
Y12200D1*
X33726Y12271D1*
X33774Y12320D1*
X33846Y12343D1*
X7630Y16251D2*
X7583Y16275D1*
X7535Y16323D1*
X7511Y16370D1*
Y16466D1*
X7535Y16514D1*
X7583Y16561D1*
X7630Y16586D1*
X7702Y16609D1*
X7822D1*
X7893Y16586D1*
X7941Y16561D1*
X7989Y16514D1*
X8013Y16466D1*
Y16370D1*
X7989Y16323D1*
X7941Y16275D1*
X7893Y16251D1*
X7631Y16072D2*
X7607D1*
X7559Y16048D1*
X7535Y16025D1*
X7511Y15976D1*
Y15881D1*
X7535Y15833D1*
X7559Y15810D1*
X7607Y15785D1*
X7655D1*
X7703Y15810D1*
X7774Y15857D1*
X8013Y16096D1*
Y15761D1*
X7511Y15463D2*
X7535Y15535D1*
X7607Y15583D1*
X7726Y15607D1*
X7798D1*
X7918Y15583D1*
X7990Y15535D1*
X8013Y15463D1*
Y15416D1*
X7990Y15344D1*
X7918Y15296D1*
X7798Y15272D1*
X7726D1*
X7607Y15296D1*
X7535Y15344D1*
X7511Y15416D1*
Y15463D1*
X7607Y15296D2*
X7918Y15583D1*
X8013Y15022D2*
X7511Y14783D1*
Y15118D1*
X15501Y12250D2*
X15524Y12297D1*
X15572Y12345D1*
X15620Y12369D1*
X15716D1*
X15764Y12345D1*
X15811Y12297D1*
X15835Y12250D1*
X15859Y12178D1*
Y12058D1*
X15835Y11987D1*
X15811Y11939D1*
X15764Y11891D1*
X15716Y11867D1*
X15620D1*
X15572Y11891D1*
X15524Y11939D1*
X15501Y11987D1*
X15322Y12249D2*
Y12273D1*
X15298Y12321D1*
X15274Y12345D1*
X15226Y12369D1*
X15131D1*
X15083Y12345D1*
X15059Y12321D1*
X15035Y12273D1*
Y12225D1*
X15059Y12177D1*
X15107Y12106D1*
X15346Y11867D1*
X15011D1*
X14713Y12369D2*
X14785Y12345D1*
X14833Y12273D1*
X14857Y12154D1*
Y12082D1*
X14833Y11962D1*
X14785Y11890D1*
X14713Y11867D1*
X14666D1*
X14594Y11890D1*
X14546Y11962D1*
X14522Y12082D1*
Y12154D1*
X14546Y12273D1*
X14594Y12345D1*
X14666Y12369D1*
X14713D1*
X14546Y12273D2*
X14833Y11962D1*
X14248Y12369D2*
X14319Y12345D1*
X14344Y12297D1*
Y12249D1*
X14319Y12202D1*
X14272Y12177D1*
X14176Y12154D1*
X14104Y12130D1*
X14057Y12082D1*
X14033Y12034D1*
Y11962D1*
X14057Y11915D1*
X14081Y11890D1*
X14152Y11867D1*
X14248D1*
X14319Y11890D1*
X14344Y11915D1*
X14367Y11962D1*
Y12034D1*
X14344Y12082D1*
X14296Y12130D1*
X14224Y12154D1*
X14129Y12177D1*
X14081Y12202D1*
X14057Y12249D1*
Y12297D1*
X14081Y12345D1*
X14152Y12369D1*
X14248D1*
X15489Y13750D2*
X15513Y13797D1*
X15561Y13845D1*
X15608Y13869D1*
X15704D1*
X15752Y13845D1*
X15800Y13797D1*
X15824Y13750D1*
X15848Y13678D1*
Y13558D1*
X15824Y13487D1*
X15800Y13439D1*
X15752Y13391D1*
X15704Y13367D1*
X15608D1*
X15561Y13391D1*
X15513Y13439D1*
X15489Y13487D1*
X15310Y13749D2*
Y13773D1*
X15286Y13821D1*
X15263Y13845D1*
X15215Y13869D1*
X15119D1*
X15071Y13845D1*
X15048Y13821D1*
X15023Y13773D1*
Y13725D1*
X15048Y13677D1*
X15095Y13606D1*
X15335Y13367D1*
X15000D1*
X14701Y13869D2*
X14773Y13845D1*
X14821Y13773D1*
X14845Y13654D1*
Y13582D1*
X14821Y13462D1*
X14773Y13390D1*
X14701Y13367D1*
X14654D1*
X14582Y13390D1*
X14535Y13462D1*
X14510Y13582D1*
Y13654D1*
X14535Y13773D1*
X14582Y13845D1*
X14654Y13869D1*
X14701D1*
X14535Y13773D2*
X14821Y13462D1*
X14045Y13702D2*
X14069Y13630D1*
X14117Y13582D1*
X14188Y13558D1*
X14212D1*
X14284Y13582D1*
X14332Y13630D1*
X14356Y13702D1*
Y13725D1*
X14332Y13797D1*
X14284Y13845D1*
X14212Y13869D1*
X14188D1*
X14117Y13845D1*
X14069Y13797D1*
X14045Y13702D1*
Y13582D1*
X14069Y13462D1*
X14117Y13390D1*
X14188Y13367D1*
X14236D1*
X14308Y13390D1*
X14332Y13439D1*
X8630Y9131D2*
X8583Y9155D1*
X8535Y9203D1*
X8511Y9250D1*
Y9346D1*
X8535Y9394D1*
X8583Y9442D1*
X8630Y9466D1*
X8702Y9490D1*
X8822D1*
X8893Y9466D1*
X8941Y9442D1*
X8989Y9394D1*
X9013Y9346D1*
Y9250D1*
X8989Y9203D1*
X8941Y9155D1*
X8893Y9131D1*
X8631Y8952D2*
X8607D1*
X8559Y8929D1*
X8535Y8905D1*
X8511Y8857D1*
Y8761D1*
X8535Y8714D1*
X8559Y8690D1*
X8607Y8665D1*
X8655D1*
X8703Y8690D1*
X8774Y8737D1*
X9013Y8977D1*
Y8642D1*
X8607Y8487D2*
X8583Y8439D1*
X8511Y8367D1*
X9013D1*
X8511Y8069D2*
X8535Y8141D1*
X8607Y8189D1*
X8726Y8213D1*
X8798D1*
X8918Y8189D1*
X8990Y8141D1*
X9013Y8069D1*
Y8022D1*
X8990Y7950D1*
X8918Y7902D1*
X8798Y7878D1*
X8726D1*
X8607Y7902D1*
X8535Y7950D1*
X8511Y8022D1*
Y8069D1*
X8607Y7902D2*
X8918Y8189D1*
X15536Y13000D2*
X15560Y13047D1*
X15608Y13095D1*
X15655Y13119D1*
X15751D1*
X15799Y13095D1*
X15846Y13047D1*
X15871Y13000D1*
X15894Y12928D1*
Y12808D1*
X15871Y12737D1*
X15846Y12689D1*
X15799Y12641D1*
X15751Y12617D1*
X15655D1*
X15608Y12641D1*
X15560Y12689D1*
X15536Y12737D1*
X15357Y12999D2*
Y13023D1*
X15333Y13071D1*
X15310Y13095D1*
X15261Y13119D1*
X15166D1*
X15118Y13095D1*
X15095Y13071D1*
X15070Y13023D1*
Y12975D1*
X15095Y12927D1*
X15142Y12856D1*
X15381Y12617D1*
X15046D1*
X14892Y13023D2*
X14844Y13047D1*
X14772Y13119D1*
Y12617D1*
X14618Y13023D2*
X14570Y13047D1*
X14498Y13119D1*
Y12617D1*
X8630Y11393D2*
X8583Y11417D1*
X8535Y11465D1*
X8511Y11513D1*
Y11608D1*
X8535Y11656D1*
X8583Y11704D1*
X8630Y11728D1*
X8702Y11752D1*
X8822D1*
X8893Y11728D1*
X8941Y11704D1*
X8989Y11656D1*
X9013Y11608D1*
Y11513D1*
X8989Y11465D1*
X8941Y11417D1*
X8893Y11393D1*
X8631Y11215D2*
X8607D1*
X8559Y11191D1*
X8535Y11167D1*
X8511Y11119D1*
Y11023D1*
X8535Y10976D1*
X8559Y10952D1*
X8607Y10928D1*
X8655D1*
X8703Y10952D1*
X8774Y11000D1*
X9013Y11239D1*
Y10904D1*
X8607Y10750D2*
X8583Y10701D1*
X8511Y10630D1*
X9013D1*
X8631Y10451D2*
X8607D1*
X8559Y10427D1*
X8535Y10403D1*
X8511Y10355D1*
Y10260D1*
X8535Y10212D1*
X8559Y10188D1*
X8607Y10164D1*
X8655D1*
X8703Y10188D1*
X8774Y10236D1*
X9013Y10475D1*
Y10140D1*
X5458Y10089D2*
X5840D1*
X5912Y10113D1*
X5936Y10137D1*
X5960Y10185D1*
Y10233D1*
X5936Y10281D1*
X5912Y10304D1*
X5840Y10329D1*
X5793D1*
X5554Y9935D2*
X5530Y9887D1*
X5458Y9815D1*
X5960D1*
X5458Y9517D2*
X5482Y9589D1*
X5554Y9637D1*
X5673Y9661D1*
X5745D1*
X5865Y9637D1*
X5936Y9589D1*
X5960Y9517D1*
Y9469D1*
X5936Y9398D1*
X5865Y9350D1*
X5745Y9326D1*
X5673D1*
X5554Y9350D1*
X5482Y9398D1*
X5458Y9469D1*
Y9517D1*
X5554Y9350D2*
X5865Y9637D1*
X5554Y9171D2*
X5530Y9123D1*
X5458Y9051D1*
X5960D1*
X31708Y6447D2*
X32090D1*
X32162Y6471D1*
X32186Y6495D1*
X32210Y6542D1*
Y6591D1*
X32186Y6638D1*
X32162Y6662D1*
X32090Y6686D1*
X32043D1*
X31804Y6292D2*
X31780Y6244D1*
X31708Y6173D1*
X32210D1*
X31708Y5874D2*
X31732Y5946D1*
X31804Y5994D1*
X31923Y6018D1*
X31995D1*
X32115Y5994D1*
X32186Y5946D1*
X32210Y5874D1*
Y5827D1*
X32186Y5755D1*
X32115Y5707D1*
X31995Y5683D1*
X31923D1*
X31804Y5707D1*
X31732Y5755D1*
X31708Y5827D1*
Y5874D1*
X31804Y5707D2*
X32115Y5994D1*
X31828Y5504D2*
X31804D1*
X31756Y5481D1*
X31732Y5457D1*
X31708Y5409D1*
Y5313D1*
X31732Y5266D1*
X31756Y5242D1*
X31804Y5218D1*
X31851D1*
X31900Y5242D1*
X31971Y5289D1*
X32210Y5529D1*
Y5194D1*
X4159Y15697D2*
X4541D1*
X4613Y15721D1*
X4637Y15745D1*
X4661Y15792D1*
Y15841D1*
X4637Y15888D1*
X4613Y15912D1*
X4541Y15936D1*
X4493D1*
X4255Y15542D2*
X4230Y15494D1*
X4159Y15423D1*
X4661D1*
X4159Y15124D2*
X4183Y15196D1*
X4255Y15244D1*
X4374Y15268D1*
X4446D1*
X4565Y15244D1*
X4637Y15196D1*
X4661Y15124D1*
Y15077D1*
X4637Y15005D1*
X4565Y14957D1*
X4446Y14933D1*
X4374D1*
X4255Y14957D1*
X4183Y15005D1*
X4159Y15077D1*
Y15124D1*
X4255Y14957D2*
X4565Y15244D1*
X4159Y14731D2*
Y14468D1*
X4350Y14611D1*
Y14539D1*
X4374Y14492D1*
X4398Y14468D1*
X4470Y14444D1*
X4517D1*
X4589Y14468D1*
X4637Y14516D1*
X4661Y14588D1*
Y14659D1*
X4637Y14731D1*
X4613Y14754D1*
X4565Y14779D1*
X33958Y11447D2*
X34340D1*
X34412Y11471D1*
X34436Y11495D1*
X34460Y11542D1*
Y11591D1*
X34436Y11638D1*
X34412Y11662D1*
X34340Y11686D1*
X34293D1*
X33958Y11244D2*
Y10982D1*
X34150Y11125D1*
Y11053D1*
X34173Y11006D1*
X34197Y10982D1*
X34269Y10958D1*
X34316D1*
X34388Y10982D1*
X34436Y11029D1*
X34460Y11101D1*
Y11173D1*
X34436Y11244D1*
X34412Y11268D1*
X34365Y11292D1*
X33958Y10659D2*
X33982Y10731D1*
X34054Y10779D1*
X34173Y10803D1*
X34245D1*
X34365Y10779D1*
X34436Y10731D1*
X34460Y10659D1*
Y10612D1*
X34436Y10540D1*
X34365Y10492D1*
X34245Y10468D1*
X34173D1*
X34054Y10492D1*
X33982Y10540D1*
X33958Y10612D1*
Y10659D1*
X34054Y10492D2*
X34365Y10779D1*
X34054Y10314D2*
X34030Y10266D1*
X33958Y10194D1*
X34460D1*
X25118Y17130D2*
Y17632D1*
X25310Y17130D1*
X25501Y17632D1*
Y17130D1*
X24820Y17632D2*
X24868Y17608D1*
X24916Y17560D1*
X24940Y17513D1*
X24964Y17441D1*
Y17321D1*
X24940Y17250D1*
X24916Y17202D1*
X24868Y17154D1*
X24820Y17130D1*
X24725D1*
X24677Y17154D1*
X24629Y17202D1*
X24605Y17250D1*
X24581Y17321D1*
Y17441D1*
X24605Y17513D1*
X24629Y17560D1*
X24677Y17608D1*
X24725Y17632D1*
X24820D1*
X24427D2*
Y17130D1*
X24260D1*
X24188Y17154D1*
X24140Y17202D1*
X24116Y17250D1*
X24092Y17321D1*
Y17441D1*
X24116Y17513D1*
X24140Y17560D1*
X24188Y17608D1*
X24260Y17632D1*
X24427D1*
X23890D2*
X23627D1*
X23770Y17440D1*
X23698D1*
X23651Y17417D1*
X23627Y17393D1*
X23603Y17321D1*
Y17274D1*
X23627Y17202D1*
X23675Y17154D1*
X23747Y17130D1*
X23818D1*
X23890Y17154D1*
X23913Y17178D1*
X23938Y17225D1*
X23305Y17632D2*
X23377Y17608D1*
X23425Y17536D1*
X23448Y17417D1*
Y17345D1*
X23425Y17225D1*
X23377Y17154D1*
X23305Y17130D1*
X23257D1*
X23185Y17154D1*
X23138Y17225D1*
X23114Y17345D1*
Y17417D1*
X23138Y17536D1*
X23185Y17608D1*
X23257Y17632D1*
X23305D1*
X23138Y17536D2*
X23425Y17225D1*
X22959Y17536D2*
X22911Y17560D1*
X22839Y17632D1*
Y17130D1*
X22984Y12296D2*
X23007Y12344D1*
X23055Y12392D1*
X23103Y12416D1*
X23175Y12440D1*
X23294D1*
X23366Y12416D1*
X23414Y12392D1*
X23462Y12344D1*
X23485Y12296D1*
Y12201D1*
X23462Y12153D1*
X23414Y12105D1*
X23366Y12081D1*
X23294Y12057D1*
X23175D1*
X23103Y12081D1*
X23055Y12105D1*
X23007Y12153D1*
X22984Y12201D1*
Y12296D1*
X23390Y12224D2*
X23534Y12081D1*
X23080Y11903D2*
X23055Y11855D1*
X22984Y11783D1*
X23486D1*
X22984Y11485D2*
X23008Y11556D1*
X23080Y11605D1*
X23199Y11628D1*
X23271D1*
X23390Y11605D1*
X23462Y11556D1*
X23486Y11485D1*
Y11437D1*
X23462Y11365D1*
X23390Y11318D1*
X23271Y11293D1*
X23199D1*
X23080Y11318D1*
X23008Y11365D1*
X22984Y11437D1*
Y11485D1*
X23080Y11318D2*
X23390Y11605D1*
X23080Y11139D2*
X23055Y11091D1*
X22984Y11019D1*
X23486D1*
X28619Y9990D2*
X28404D1*
X28332Y10014D1*
X28307Y10038D1*
X28284Y10085D1*
Y10133D1*
X28307Y10181D1*
X28332Y10205D1*
X28404Y10229D1*
X28619D1*
Y9727D1*
X28451Y9990D2*
X28284Y9727D1*
X28129Y10133D2*
X28081Y10157D1*
X28009Y10229D1*
Y9727D1*
X27711Y10229D2*
X27783Y10205D1*
X27831Y10133D1*
X27855Y10014D1*
Y9942D1*
X27831Y9822D1*
X27783Y9750D1*
X27711Y9727D1*
X27664D1*
X27592Y9750D1*
X27544Y9822D1*
X27520Y9942D1*
Y10014D1*
X27544Y10133D1*
X27592Y10205D1*
X27664Y10229D1*
X27711D1*
X27544Y10133D2*
X27831Y9822D1*
X27341Y10109D2*
Y10133D1*
X27318Y10181D1*
X27294Y10205D1*
X27246Y10229D1*
X27150D1*
X27103Y10205D1*
X27079Y10181D1*
X27054Y10133D1*
Y10085D1*
X27079Y10037D1*
X27126Y9966D1*
X27366Y9727D1*
X27031D1*
X30899Y10130D2*
X30684D1*
X30612Y10154D1*
X30588Y10178D1*
X30564Y10225D1*
Y10273D1*
X30588Y10321D1*
X30612Y10345D1*
X30684Y10369D1*
X30899D1*
Y9867D1*
X30732Y10130D2*
X30564Y9867D1*
X30410Y10273D2*
X30362Y10297D1*
X30290Y10369D1*
Y9867D1*
X29992Y10369D2*
X30064Y10345D1*
X30112Y10273D1*
X30136Y10154D1*
Y10082D1*
X30112Y9962D1*
X30064Y9890D1*
X29992Y9867D1*
X29944D1*
X29873Y9890D1*
X29825Y9962D1*
X29801Y10082D1*
Y10154D1*
X29825Y10273D1*
X29873Y10345D1*
X29944Y10369D1*
X29992D1*
X29825Y10273D2*
X30112Y9962D1*
X29598Y10369D2*
X29336D1*
X29479Y10177D1*
X29407D1*
X29359Y10154D1*
X29336Y10130D1*
X29311Y10058D1*
Y10010D1*
X29336Y9939D1*
X29383Y9890D1*
X29455Y9867D1*
X29527D1*
X29598Y9890D1*
X29622Y9915D1*
X29646Y9962D1*
X29600Y9140D2*
X29385D1*
X29314Y9164D1*
X29289Y9188D1*
X29266Y9235D1*
Y9283D1*
X29289Y9331D1*
X29314Y9355D1*
X29385Y9379D1*
X29600D1*
Y8877D1*
X29433Y9140D2*
X29266Y8877D1*
X29111Y9283D2*
X29063Y9307D1*
X28991Y9379D1*
Y8877D1*
X28693Y9379D2*
X28765Y9355D1*
X28813Y9283D1*
X28837Y9164D1*
Y9092D1*
X28813Y8972D1*
X28765Y8900D1*
X28693Y8877D1*
X28646D1*
X28574Y8900D1*
X28526Y8972D1*
X28502Y9092D1*
Y9164D1*
X28526Y9283D1*
X28574Y9355D1*
X28646Y9379D1*
X28693D1*
X28526Y9283D2*
X28813Y8972D1*
X28108Y8877D2*
Y9379D1*
X28348Y9044D1*
X27989D1*
X22319Y12130D2*
X22104D1*
X22032Y12154D1*
X22007Y12178D1*
X21984Y12225D1*
Y12273D1*
X22007Y12321D1*
X22032Y12345D1*
X22104Y12369D1*
X22319D1*
Y11867D1*
X22151Y12130D2*
X21984Y11867D1*
X21829Y12273D2*
X21781Y12297D1*
X21709Y12369D1*
Y11867D1*
X21411Y12369D2*
X21483Y12345D1*
X21531Y12273D1*
X21555Y12154D1*
Y12082D1*
X21531Y11962D1*
X21483Y11890D1*
X21411Y11867D1*
X21364D1*
X21292Y11890D1*
X21244Y11962D1*
X21220Y12082D1*
Y12154D1*
X21244Y12273D1*
X21292Y12345D1*
X21364Y12369D1*
X21411D1*
X21244Y12273D2*
X21531Y11962D1*
X20779Y12369D2*
X21018D1*
X21041Y12154D1*
X21018Y12177D1*
X20946Y12202D1*
X20874D1*
X20803Y12177D1*
X20754Y12130D1*
X20731Y12058D1*
Y12010D1*
X20754Y11939D1*
X20803Y11890D1*
X20874Y11867D1*
X20946D1*
X21018Y11890D1*
X21041Y11915D1*
X21066Y11962D1*
X23137Y12880D2*
X22922D1*
X22850Y12904D1*
X22826Y12928D1*
X22802Y12975D1*
Y13023D1*
X22826Y13071D1*
X22850Y13095D1*
X22922Y13119D1*
X23137D1*
Y12617D1*
X22970Y12880D2*
X22802Y12617D1*
X22648Y13023D2*
X22600Y13047D1*
X22528Y13119D1*
Y12617D1*
X22230Y13119D2*
X22302Y13095D1*
X22350Y13023D1*
X22373Y12904D1*
Y12832D1*
X22350Y12712D1*
X22302Y12640D1*
X22230Y12617D1*
X22182D1*
X22110Y12640D1*
X22063Y12712D1*
X22039Y12832D1*
Y12904D1*
X22063Y13023D1*
X22110Y13095D1*
X22182Y13119D1*
X22230D1*
X22063Y13023D2*
X22350Y12712D1*
X21597Y13047D2*
X21621Y13095D1*
X21693Y13119D1*
X21740D1*
X21812Y13095D1*
X21860Y13023D1*
X21884Y12904D1*
Y12784D1*
X21860Y12689D1*
X21812Y12640D1*
X21740Y12617D1*
X21717D1*
X21645Y12640D1*
X21597Y12689D1*
X21574Y12760D1*
Y12784D1*
X21597Y12856D1*
X21645Y12904D1*
X21717Y12927D1*
X21740D1*
X21812Y12904D1*
X21860Y12856D1*
X21884Y12784D1*
X33000Y9899D2*
Y9684D1*
X32976Y9612D1*
X32952Y9588D1*
X32905Y9564D1*
X32857D1*
X32809Y9588D1*
X32785Y9612D1*
X32761Y9684D1*
Y9899D1*
X33263D1*
X33000Y9732D2*
X33263Y9564D1*
X32881Y9386D2*
X32857D1*
X32809Y9362D1*
X32785Y9338D1*
X32761Y9290D1*
Y9194D1*
X32785Y9147D1*
X32809Y9123D1*
X32857Y9099D1*
X32905D1*
X32953Y9123D1*
X33024Y9171D1*
X33263Y9410D1*
Y9075D1*
X32761Y8777D2*
X32785Y8849D1*
X32857Y8897D1*
X32976Y8921D1*
X33048D1*
X33168Y8897D1*
X33240Y8849D1*
X33263Y8777D1*
Y8729D1*
X33240Y8658D1*
X33168Y8610D1*
X33048Y8586D1*
X32976D1*
X32857Y8610D1*
X32785Y8658D1*
X32761Y8729D1*
Y8777D1*
X32857Y8610D2*
X33168Y8897D1*
X32857Y8431D2*
X32833Y8383D1*
X32761Y8311D1*
X33263D1*
X8500Y16676D2*
Y16461D1*
X8476Y16389D1*
X8452Y16365D1*
X8405Y16341D1*
X8357D1*
X8309Y16365D1*
X8285Y16389D1*
X8261Y16461D1*
Y16676D1*
X8763D1*
X8500Y16509D2*
X8763Y16341D1*
X8381Y16162D2*
X8357D1*
X8309Y16139D1*
X8285Y16115D1*
X8261Y16067D1*
Y15971D1*
X8285Y15924D1*
X8309Y15900D1*
X8357Y15876D1*
X8405D1*
X8453Y15900D1*
X8524Y15947D1*
X8763Y16187D1*
Y15852D1*
X8261Y15554D2*
X8285Y15626D1*
X8357Y15674D1*
X8476Y15697D1*
X8548D1*
X8668Y15674D1*
X8740Y15626D1*
X8763Y15554D1*
Y15506D1*
X8740Y15434D1*
X8668Y15387D1*
X8548Y15363D1*
X8476D1*
X8357Y15387D1*
X8285Y15434D1*
X8261Y15506D1*
Y15554D1*
X8357Y15387D2*
X8668Y15674D1*
X8381Y15184D2*
X8357D1*
X8309Y15160D1*
X8285Y15136D1*
X8261Y15088D1*
Y14993D1*
X8285Y14945D1*
X8309Y14921D1*
X8357Y14897D1*
X8405D1*
X8453Y14921D1*
X8524Y14969D1*
X8763Y15208D1*
Y14873D1*
X8500Y7176D2*
Y6961D1*
X8476Y6889D1*
X8452Y6865D1*
X8405Y6841D1*
X8357D1*
X8309Y6865D1*
X8285Y6889D1*
X8261Y6961D1*
Y7176D1*
X8763D1*
X8500Y7009D2*
X8763Y6841D1*
X8381Y6662D2*
X8357D1*
X8309Y6639D1*
X8285Y6615D1*
X8261Y6567D1*
Y6471D1*
X8285Y6424D1*
X8309Y6400D1*
X8357Y6376D1*
X8405D1*
X8453Y6400D1*
X8524Y6447D1*
X8763Y6687D1*
Y6352D1*
X8261Y6054D2*
X8285Y6126D1*
X8357Y6174D1*
X8476Y6197D1*
X8548D1*
X8668Y6174D1*
X8740Y6126D1*
X8763Y6054D1*
Y6006D1*
X8740Y5934D1*
X8668Y5887D1*
X8548Y5863D1*
X8476D1*
X8357Y5887D1*
X8285Y5934D1*
X8261Y6006D1*
Y6054D1*
X8357Y5887D2*
X8668Y6174D1*
X8261Y5660D2*
Y5398D1*
X8453Y5541D1*
Y5469D1*
X8476Y5421D1*
X8500Y5398D1*
X8572Y5373D1*
X8620D1*
X8691Y5398D1*
X8740Y5445D1*
X8763Y5517D1*
Y5589D1*
X8740Y5660D1*
X8715Y5684D1*
X8668Y5708D1*
X33000Y13769D2*
Y13554D1*
X32976Y13482D1*
X32952Y13458D1*
X32905Y13434D1*
X32857D1*
X32809Y13458D1*
X32785Y13482D1*
X32761Y13554D1*
Y13769D1*
X33263D1*
X33000Y13601D2*
X33263Y13434D1*
X32881Y13255D2*
X32857D1*
X32809Y13231D1*
X32785Y13208D1*
X32761Y13159D1*
Y13064D1*
X32785Y13016D1*
X32809Y12993D1*
X32857Y12968D1*
X32905D1*
X32953Y12993D1*
X33024Y13040D1*
X33263Y13279D1*
Y12944D1*
X32761Y12646D2*
X32785Y12718D1*
X32857Y12766D1*
X32976Y12790D1*
X33048D1*
X33168Y12766D1*
X33240Y12718D1*
X33263Y12646D1*
Y12599D1*
X33240Y12527D1*
X33168Y12479D1*
X33048Y12455D1*
X32976D1*
X32857Y12479D1*
X32785Y12527D1*
X32761Y12599D1*
Y12646D1*
X32857Y12479D2*
X33168Y12766D1*
X33263Y12061D2*
X32761D1*
X33096Y12301D1*
Y11942D1*
X22454Y5972D2*
Y5470D1*
X22621Y5972D2*
X22286D1*
X22132Y5709D2*
X21916D1*
X21845Y5733D1*
X21821Y5757D1*
X21797Y5805D1*
Y5877D1*
X21821Y5924D1*
X21845Y5948D1*
X21916Y5972D1*
X22132D1*
Y5470D1*
X21642Y5876D2*
X21594Y5900D1*
X21523Y5972D1*
Y5470D1*
X21224Y5972D2*
X21296Y5948D1*
X21344Y5876D1*
X21368Y5757D1*
Y5685D1*
X21344Y5565D1*
X21296Y5494D1*
X21224Y5470D1*
X21177D1*
X21105Y5494D1*
X21058Y5565D1*
X21033Y5685D1*
Y5757D1*
X21058Y5876D1*
X21105Y5948D1*
X21177Y5972D1*
X21224D1*
X21058Y5876D2*
X21344Y5565D1*
X20879Y5876D2*
X20831Y5900D1*
X20759Y5972D1*
Y5470D1*
X25945Y9538D2*
Y9180D1*
X25922Y9108D1*
X25874Y9060D1*
X25802Y9036D1*
X25754D1*
X25682Y9060D1*
X25634Y9108D1*
X25610Y9180D1*
Y9538D1*
X25456Y9442D2*
X25408Y9466D1*
X25336Y9538D1*
Y9036D1*
X25038Y9538D2*
X25110Y9514D1*
X25158Y9442D1*
X25182Y9323D1*
Y9251D1*
X25158Y9131D1*
X25110Y9060D1*
X25038Y9036D1*
X24990D1*
X24919Y9060D1*
X24871Y9131D1*
X24847Y9251D1*
Y9323D1*
X24871Y9442D1*
X24919Y9514D1*
X24990Y9538D1*
X25038D1*
X24871Y9442D2*
X25158Y9131D1*
X24692Y9442D2*
X24644Y9466D1*
X24572Y9538D1*
Y9036D1*
X12484Y17540D2*
Y17182D1*
X12460Y17110D1*
X12412Y17062D1*
X12340Y17038D1*
X12293D1*
X12221Y17062D1*
X12173Y17110D1*
X12149Y17182D1*
Y17540D1*
X11970Y17420D2*
Y17444D1*
X11947Y17492D1*
X11923Y17516D1*
X11875Y17540D1*
X11779D1*
X11732Y17516D1*
X11708Y17492D1*
X11683Y17444D1*
Y17397D1*
X11708Y17349D1*
X11755Y17277D1*
X11995Y17038D1*
X11660D1*
X11362Y17540D2*
X11433Y17516D1*
X11482Y17444D1*
X11505Y17325D1*
Y17253D1*
X11482Y17134D1*
X11433Y17062D1*
X11362Y17038D1*
X11314D1*
X11242Y17062D1*
X11195Y17134D1*
X11170Y17253D1*
Y17325D1*
X11195Y17444D1*
X11242Y17516D1*
X11314Y17540D1*
X11362D1*
X11195Y17444D2*
X11482Y17134D1*
X11016Y17444D2*
X10968Y17468D1*
X10896Y17540D1*
Y17038D1*
M02*
