G04 DipTrace 2.4.0.2*
%INBottomMask.gbr*%
%MOIN*%
%ADD31C,0.0295*%
%ADD32C,0.0413*%
%ADD33C,0.09*%
%ADD36R,0.0867X0.134*%
%ADD38R,0.0867X0.0316*%
%ADD40C,0.068*%
%ADD42R,0.0493X0.0336*%
%ADD44C,0.075*%
%ADD46C,0.0749*%
%ADD48R,0.0749X0.0749*%
%ADD54R,0.0513X0.0474*%
%ADD56R,0.0474X0.0513*%
%FSLAX44Y44*%
G04*
G70*
G90*
G75*
G01*
%LNBotMask*%
%LPD*%
D31*
X20469Y11469D3*
D32*
X19411Y10411D3*
D56*
X29190Y6690D3*
Y6021D3*
X27690Y6690D3*
Y6021D3*
X28440Y6690D3*
Y6021D3*
X23190Y4940D3*
Y5609D3*
X6190Y5940D3*
Y6609D3*
X33690Y6440D3*
Y5771D3*
Y15940D3*
Y15271D3*
X6190Y15440D3*
Y16109D3*
D54*
X13940Y8190D3*
X14609D3*
X13940Y10190D3*
X14609D3*
D56*
X9440Y9190D3*
Y8521D3*
D54*
X13940Y9190D3*
X14609D3*
D56*
X9440Y10190D3*
Y10859D3*
D48*
X6690Y9190D3*
D46*
Y10190D3*
D48*
X30940Y6440D3*
D46*
Y5440D3*
D48*
X4690Y13440D3*
D46*
Y12440D3*
Y11440D3*
Y10440D3*
Y9440D3*
Y8440D3*
D48*
X35190Y10440D3*
D46*
Y11440D3*
D48*
X29440Y8360D3*
D46*
X28440Y8355D3*
X27440D3*
X26440D3*
X25440D3*
X24440D3*
X23440D3*
X22440D3*
X21440D3*
X20440D3*
X19440D3*
X18440D3*
X16840Y9900D3*
Y10900D3*
Y11900D3*
Y12900D3*
Y13900D3*
Y14900D3*
X18440Y16440D3*
X19440D3*
X20440D3*
X21440D3*
X22440D3*
X23440D3*
X24440D3*
X25440D3*
X26440D3*
X27440D3*
X28440D3*
X29440D3*
D33*
X31170Y8650D3*
Y16150D3*
X17170Y8650D3*
Y16150D3*
D44*
X9440Y15753D3*
X8627Y16565D3*
X8690Y14503D3*
X20065Y10878D3*
X14252Y6690D3*
X11565Y7878D3*
X8565Y12565D3*
D42*
X21940Y9940D3*
Y10688D3*
X22846Y10314D3*
D54*
X27740Y5300D3*
X28409D3*
X30690Y7440D3*
X30021D3*
X28460Y4700D3*
X29129D3*
X21690Y11440D3*
X22359D3*
X22690Y9190D3*
X22021D3*
D56*
X32940Y6440D3*
Y5771D3*
X6940Y15440D3*
Y16109D3*
Y5940D3*
Y6609D3*
X32940Y15940D3*
Y15271D3*
D46*
X34576Y16970D3*
X32804D3*
Y14410D3*
X34576D3*
D48*
Y7470D3*
D46*
X32804D3*
Y4910D3*
X34576D3*
X5304Y14410D3*
X7076D3*
Y16970D3*
X5304D3*
D48*
Y4910D3*
D46*
X7076D3*
Y7470D3*
X5304D3*
D40*
X21690Y4940D3*
D38*
X26440Y6940D3*
Y6440D3*
Y5940D3*
Y5440D3*
Y4940D3*
D36*
X24078Y5940D3*
D46*
X10190Y7190D3*
Y8190D3*
Y9190D3*
Y10190D3*
Y11190D3*
Y12190D3*
Y13190D3*
Y14190D3*
Y15190D3*
Y16190D3*
X13190Y7190D3*
Y8190D3*
Y9190D3*
Y10190D3*
Y11190D3*
Y12190D3*
Y13190D3*
Y14190D3*
Y15190D3*
Y16190D3*
M02*
