G04 DipTrace 2.4.0.2*
%INBottom.gbr*%
%MOIN*%
%ADD11C,0.006*%
%ADD13C,0.015*%
%ADD14C,0.008*%
%ADD15C,0.025*%
%ADD16C,0.013*%
%ADD18R,0.0394X0.0433*%
%ADD19R,0.0433X0.0394*%
%ADD23R,0.0669X0.0669*%
%ADD24C,0.0669*%
%ADD25C,0.067*%
%ADD27R,0.0413X0.0256*%
%ADD28C,0.06*%
%ADD29R,0.0787X0.0236*%
%ADD30R,0.0787X0.126*%
%FSLAX44Y44*%
G04*
G70*
G90*
G75*
G01*
%LNBottom*%
%LPD*%
X27740Y5300D2*
D13*
X27329D1*
X27189Y5440D1*
X26440D1*
X21690Y4940D2*
X12440D1*
X10190Y7190D1*
X23190Y4940D2*
X21690D1*
X26440Y5440D2*
X25669D1*
X25169Y4940D1*
X23190D1*
X10190Y13190D2*
D14*
X10690Y13690D1*
X14176D1*
X15511Y12355D1*
X23440D1*
X27440Y8355D1*
X20065Y10878D2*
Y10565D1*
X20252Y10378D1*
X20628D1*
X21690Y11440D1*
X24440Y8355D2*
X22917Y9878D1*
X22690D1*
X22503Y10065D1*
Y10503D1*
X22940Y10940D1*
Y11877D1*
X22815Y12002D1*
X18440D1*
X17793Y11355D1*
X16130D1*
X15465Y10690D1*
X12927D1*
X11427Y12190D1*
X10190D1*
X24078Y5940D2*
D13*
X26440D1*
X27609D1*
X27690Y6021D1*
X28440D1*
X29190D1*
Y4761D1*
X29129Y4700D1*
X29190Y6021D2*
X29484D1*
X30065Y5440D1*
X30940D1*
X31002D1*
X32065Y4377D1*
X33690D1*
X33815Y4502D1*
Y5646D1*
X33690Y5771D1*
X34458D1*
X34628Y5940D1*
Y7418D1*
X34576Y7470D1*
Y10826D1*
X35190Y11440D1*
Y12315D1*
X33752Y13752D1*
Y15208D1*
X33690Y15271D1*
X33833D1*
X34565Y16003D1*
Y16959D1*
X34576Y16970D1*
X22440Y8355D2*
Y6127D1*
X22940Y5627D1*
X23172D1*
X23190Y5609D1*
X22440Y8355D2*
Y8940D1*
X22690Y9190D1*
X18440Y8355D2*
X19440D1*
X20440D1*
X13190Y7190D2*
X14315D1*
X14627Y7502D1*
Y8172D1*
X14609Y8190D1*
Y9190D1*
Y10190D1*
Y8190D2*
Y7458D1*
X14940Y7128D1*
X18253D1*
X18378Y7253D1*
Y8293D1*
X18440Y8355D1*
X9440Y10859D2*
X9065D1*
X8977D1*
X7708D1*
X7128Y11440D1*
X4690D1*
X9440Y8521D2*
X8859D1*
X8752Y8627D1*
Y10635D1*
X8977Y10859D1*
X5304Y4910D2*
Y6117D1*
X5752Y6565D1*
X6146D1*
X6190Y6609D1*
Y16109D2*
X5609D1*
X5502Y16003D1*
Y14609D1*
X5304Y14410D1*
X4690Y11440D2*
X5128D1*
X6190Y6609D2*
Y7940D1*
X6690Y8440D1*
X8565D1*
X8752Y8627D1*
X20440Y8355D2*
Y8315D1*
X21065Y7690D1*
X21775D1*
X22440Y8355D1*
X23190Y5609D2*
X23747D1*
X24078Y5940D1*
X8690Y14503D2*
X8752Y14565D1*
Y14378D1*
X9065Y14065D1*
Y10859D1*
X5315Y14400D2*
X5304Y14410D1*
Y14326D1*
X6003Y13628D1*
X7815D1*
X8690Y14503D1*
X32940Y6440D2*
D14*
X31910D1*
X31750Y6600D1*
Y9493D1*
X31590Y9653D1*
X27600D1*
X23898Y13355D1*
X16102D1*
X15267Y14190D1*
X13190D1*
X33690Y6440D2*
X33259D1*
X32940D1*
X21940Y9940D2*
X22021D1*
Y9190D1*
X22359Y11440D2*
Y10547D1*
X22003Y10190D1*
Y10003D1*
X21940Y9940D1*
X13190Y10190D2*
X13940D1*
X10190Y9190D2*
X9440D1*
X6940Y15440D2*
X9123D1*
X9283Y15280D1*
Y12765D1*
X9549Y12500D1*
D11*
X9830D1*
X9950Y12620D1*
X12500D1*
X12590Y12530D1*
X12830D1*
D14*
X13170Y12190D1*
X13190D1*
X6190Y15440D2*
X6507D1*
X6940D1*
Y5940D2*
X6507D1*
X6190D1*
Y4616D1*
X6030Y4456D1*
X4850D1*
X4690Y4616D1*
Y7697D1*
X5145Y8152D1*
Y10735D1*
X4985Y10895D1*
X4286D1*
X4126Y11055D1*
Y17424D1*
X4286Y17584D1*
X11796D1*
X13190Y16190D1*
X32940Y15940D2*
X32043D1*
X31458Y15355D1*
X15093D1*
X14428Y14690D1*
X9690D1*
X9615Y14615D1*
Y12865D1*
X9740Y12740D1*
D11*
X13578D1*
D14*
X13765Y12552D1*
Y11765D1*
X13190Y11190D1*
X33690Y15940D2*
X33259D1*
X32940D1*
X14252Y6690D2*
X12003D1*
X11565Y7128D1*
Y7878D1*
X32804Y4910D2*
Y5365D1*
X32940D1*
Y5771D1*
X7076Y7470D2*
Y6946D1*
X6940D1*
Y6609D1*
X32804Y14410D2*
Y14865D1*
X32940D1*
Y15271D1*
X7076Y16970D2*
Y16446D1*
X6940D1*
Y16109D1*
X28460Y4700D2*
X27194D1*
X26954Y4940D1*
X26440D1*
X28409Y5300D2*
X28460D1*
Y4700D1*
X30021Y7440D2*
X27485D1*
X26985Y6940D1*
X26440D1*
X13940Y8190D2*
X13190D1*
X12729Y7729D1*
X12190D1*
Y8190D1*
X12002Y8377D1*
X11190D1*
X11002Y8190D1*
Y7729D1*
X9624D1*
X9426Y7445D1*
Y4456D1*
X9266Y4296D1*
X4286D1*
X4126Y4456D1*
Y9876D1*
X4690Y10440D1*
X13940Y9190D2*
X13190D1*
X9440Y10190D2*
X10190D1*
X8565Y12565D2*
X6502D1*
X5627Y13440D1*
X4690D1*
X30690Y7440D2*
D13*
Y6690D1*
X30940Y6440D1*
X26440D2*
X25160D1*
X24930Y6670D1*
Y10084D1*
X24700Y10314D1*
X22846D1*
X27690Y6690D2*
X27239D1*
X26989Y6440D1*
X26440D1*
X28440Y6690D2*
X28042D1*
X27690D1*
X29190D2*
X28440D1*
X30940Y6440D2*
X30115D1*
X29865Y6690D1*
X29190D1*
X9440Y15753D2*
X8628Y16565D1*
X8627D1*
X21440Y8355D2*
Y10688D1*
X21940D1*
X12522Y17316D2*
D15*
X32292D1*
X33319D2*
X33952D1*
X35201D2*
X35542D1*
X4455Y17068D2*
X4686D1*
X5920D2*
X6460D1*
X7694D2*
X8276D1*
X8979D2*
X11854D1*
X12768D2*
X32186D1*
X33420D2*
X33952D1*
X35201D2*
X35542D1*
X4455Y16819D2*
X4698D1*
X5908D2*
X6472D1*
X7682D2*
X8058D1*
X9197D2*
X12104D1*
X13018D2*
X16894D1*
X17447D2*
X17948D1*
X29932D2*
X30894D1*
X31447D2*
X32198D1*
X33408D2*
X33952D1*
X35201D2*
X35542D1*
X4455Y16570D2*
X4831D1*
X7549D2*
X8003D1*
X9252D2*
X9702D1*
X10678D2*
X12354D1*
X13678D2*
X16565D1*
X30049D2*
X30565D1*
X31772D2*
X32331D1*
X33276D2*
X33952D1*
X35201D2*
X35542D1*
X4455Y16322D2*
X5702D1*
X7428D2*
X8054D1*
X10799D2*
X12581D1*
X13799D2*
X16452D1*
X30053D2*
X30452D1*
X31889D2*
X32452D1*
X34178D2*
X35542D1*
X4455Y16073D2*
X5702D1*
X7428D2*
X8261D1*
X10803D2*
X12577D1*
X13803D2*
X16433D1*
X29940D2*
X30433D1*
X34178D2*
X35542D1*
X4455Y15824D2*
X5702D1*
X7428D2*
X8819D1*
X10690D2*
X12690D1*
X13690D2*
X16507D1*
X17830D2*
X30507D1*
X34178D2*
X35542D1*
X4455Y15575D2*
X5702D1*
X10674D2*
X12706D1*
X13674D2*
X14858D1*
X32135D2*
X32452D1*
X34178D2*
X35542D1*
X4455Y15327D2*
X5702D1*
X10799D2*
X12581D1*
X13799D2*
X14608D1*
X31885D2*
X32452D1*
X34178D2*
X35542D1*
X4455Y15078D2*
X5702D1*
X7428D2*
X8495D1*
X10803D2*
X12577D1*
X13803D2*
X14358D1*
X32104D2*
X32452D1*
X34178D2*
X35542D1*
X4455Y14829D2*
X4851D1*
X5760D2*
X6620D1*
X7529D2*
X8163D1*
X15026D2*
X16218D1*
X17459D2*
X27968D1*
X32162D2*
X32351D1*
X35029D2*
X35542D1*
X4455Y14581D2*
X4706D1*
X5904D2*
X6476D1*
X7674D2*
X8069D1*
X14776D2*
X16308D1*
X17373D2*
X27968D1*
X33404D2*
X33976D1*
X35174D2*
X35542D1*
X4455Y14332D2*
X4686D1*
X5924D2*
X6456D1*
X7694D2*
X8089D1*
X10799D2*
X12581D1*
X15580D2*
X16397D1*
X17279D2*
X27968D1*
X33424D2*
X33956D1*
X35194D2*
X35542D1*
X4455Y14083D2*
X4776D1*
X5830D2*
X6550D1*
X7604D2*
X8237D1*
X10807D2*
X12573D1*
X15830D2*
X16245D1*
X17436D2*
X27968D1*
X32162D2*
X32276D1*
X33330D2*
X34050D1*
X35104D2*
X35542D1*
X5494Y13835D2*
X6886D1*
X7268D2*
X8952D1*
X14486D2*
X15167D1*
X16080D2*
X16218D1*
X17463D2*
X27968D1*
X32162D2*
X32612D1*
X32994D2*
X34386D1*
X34768D2*
X35542D1*
X5936Y13586D2*
X8952D1*
X14736D2*
X15413D1*
X24123D2*
X27968D1*
X32162D2*
X35542D1*
X6186Y13337D2*
X8952D1*
X10795D2*
X12585D1*
X13795D2*
X14073D1*
X14986D2*
X15663D1*
X24373D2*
X27968D1*
X32162D2*
X35542D1*
X5315Y13089D2*
X5522D1*
X6436D2*
X8249D1*
X10807D2*
X12573D1*
X13807D2*
X14323D1*
X15233D2*
X15929D1*
X24619D2*
X27968D1*
X32162D2*
X35542D1*
X5162Y12840D2*
X5772D1*
X13932D2*
X14569D1*
X15483D2*
X16218D1*
X17463D2*
X23956D1*
X24869D2*
X27968D1*
X32162D2*
X35542D1*
X5295Y12591D2*
X6019D1*
X14092D2*
X14819D1*
X23658D2*
X24206D1*
X25119D2*
X27968D1*
X32162D2*
X35542D1*
X5307Y12343D2*
X6269D1*
X9147D2*
X9251D1*
X14096D2*
X15069D1*
X23908D2*
X24456D1*
X25365D2*
X27968D1*
X32162D2*
X35542D1*
X5205Y12094D2*
X8167D1*
X8963D2*
X9573D1*
X11979D2*
X12573D1*
X14096D2*
X15327D1*
X24158D2*
X24702D1*
X25615D2*
X27968D1*
X32162D2*
X35542D1*
X5158Y11845D2*
X9675D1*
X10705D2*
X11315D1*
X12229D2*
X12675D1*
X14096D2*
X16218D1*
X17463D2*
X17827D1*
X23272D2*
X23495D1*
X24404D2*
X24952D1*
X25865D2*
X27968D1*
X32162D2*
X34722D1*
X5295Y11596D2*
X9726D1*
X10654D2*
X11565D1*
X12479D2*
X12726D1*
X14045D2*
X15921D1*
X18490D2*
X20050D1*
X20885D2*
X21183D1*
X23272D2*
X23741D1*
X24654D2*
X25202D1*
X26111D2*
X27968D1*
X32162D2*
X34585D1*
X5307Y11348D2*
X9585D1*
X10795D2*
X11811D1*
X13803D2*
X15667D1*
X18240D2*
X19667D1*
X20889D2*
X21144D1*
X23272D2*
X23991D1*
X24904D2*
X25448D1*
X26361D2*
X27968D1*
X32162D2*
X34573D1*
X5236Y11099D2*
X8952D1*
X10807D2*
X12061D1*
X13807D2*
X15417D1*
X17983D2*
X19483D1*
X20678D2*
X20894D1*
X23272D2*
X24241D1*
X25151D2*
X25698D1*
X26611D2*
X27968D1*
X32162D2*
X34671D1*
X5451Y10850D2*
X8952D1*
X10709D2*
X12311D1*
X16080D2*
X16218D1*
X17463D2*
X19214D1*
X23256D2*
X24487D1*
X25401D2*
X25948D1*
X26858D2*
X27968D1*
X32162D2*
X34565D1*
X5475Y10602D2*
X6229D1*
X7151D2*
X8952D1*
X10651D2*
X12558D1*
X15834D2*
X16296D1*
X17385D2*
X18956D1*
X25651D2*
X26194D1*
X27108D2*
X27968D1*
X32162D2*
X34565D1*
X5475Y10353D2*
X6089D1*
X7291D2*
X8952D1*
X10791D2*
X12589D1*
X15115D2*
X16421D1*
X17260D2*
X18917D1*
X25897D2*
X26444D1*
X27358D2*
X27968D1*
X32162D2*
X34565D1*
X5475Y10104D2*
X6073D1*
X7307D2*
X8952D1*
X10807D2*
X12573D1*
X15115D2*
X16253D1*
X17428D2*
X19026D1*
X19795D2*
X20093D1*
X20787D2*
X21073D1*
X26147D2*
X26694D1*
X27604D2*
X27968D1*
X32162D2*
X34565D1*
X5475Y9856D2*
X6167D1*
X7213D2*
X8952D1*
X10713D2*
X12667D1*
X15115D2*
X16218D1*
X17463D2*
X21073D1*
X23397D2*
X24565D1*
X25295D2*
X25483D1*
X26397D2*
X26940D1*
X32143D2*
X34565D1*
X5475Y9607D2*
X6065D1*
X7315D2*
X8952D1*
X10647D2*
X12733D1*
X15115D2*
X16292D1*
X17389D2*
X21073D1*
X23643D2*
X24565D1*
X25295D2*
X25733D1*
X26643D2*
X27190D1*
X32057D2*
X35542D1*
X5475Y9358D2*
X6065D1*
X7315D2*
X8952D1*
X10791D2*
X12589D1*
X15115D2*
X16558D1*
X17291D2*
X21073D1*
X23893D2*
X24565D1*
X25295D2*
X25979D1*
X26893D2*
X27499D1*
X32080D2*
X35542D1*
X5475Y9110D2*
X6065D1*
X7315D2*
X8952D1*
X10811D2*
X12569D1*
X15115D2*
X16597D1*
X17744D2*
X21073D1*
X24143D2*
X24565D1*
X25295D2*
X26229D1*
X27143D2*
X30597D1*
X32080D2*
X35542D1*
X5475Y8861D2*
X6065D1*
X7315D2*
X8952D1*
X10717D2*
X12663D1*
X15115D2*
X16464D1*
X17877D2*
X18093D1*
X18787D2*
X19093D1*
X19787D2*
X20093D1*
X20787D2*
X21073D1*
X25787D2*
X26093D1*
X27787D2*
X28093D1*
X30065D2*
X30464D1*
X32080D2*
X35542D1*
X5475Y8612D2*
X6065D1*
X7315D2*
X8952D1*
X10643D2*
X10972D1*
X12221D2*
X12737D1*
X15115D2*
X16433D1*
X30065D2*
X30433D1*
X32080D2*
X35542D1*
X5475Y8364D2*
X8952D1*
X12467D2*
X12591D1*
X15115D2*
X16491D1*
X30065D2*
X30491D1*
X32080D2*
X35542D1*
X5471Y8115D2*
X8952D1*
X15115D2*
X16671D1*
X17670D2*
X17866D1*
X30065D2*
X30671D1*
X32080D2*
X35542D1*
X5779Y7866D2*
X6601D1*
X7549D2*
X9323D1*
X15115D2*
X18065D1*
X18815D2*
X19065D1*
X19815D2*
X20065D1*
X20815D2*
X21065D1*
X21815D2*
X22065D1*
X22815D2*
X23065D1*
X23815D2*
X24065D1*
X25815D2*
X26065D1*
X26815D2*
X27065D1*
X27815D2*
X28065D1*
X31197D2*
X31421D1*
X32080D2*
X32331D1*
X33279D2*
X33952D1*
X35201D2*
X35542D1*
X5908Y7617D2*
X6472D1*
X7682D2*
X9151D1*
X13635D2*
X24565D1*
X25295D2*
X27206D1*
X31197D2*
X31421D1*
X32080D2*
X32198D1*
X33408D2*
X33952D1*
X35201D2*
X35542D1*
X5920Y7369D2*
X6460D1*
X7694D2*
X9097D1*
X10787D2*
X11222D1*
X11908D2*
X12593D1*
X13787D2*
X24565D1*
X25295D2*
X26956D1*
X31197D2*
X31421D1*
X32080D2*
X32186D1*
X33420D2*
X33952D1*
X35201D2*
X35542D1*
X5815Y7120D2*
X6565D1*
X7588D2*
X9097D1*
X10811D2*
X11233D1*
X12029D2*
X12569D1*
X14697D2*
X24565D1*
X25295D2*
X25757D1*
X31197D2*
X31421D1*
X32080D2*
X32292D1*
X33315D2*
X33952D1*
X35201D2*
X35542D1*
X5018Y6871D2*
X5237D1*
X5368D2*
X5702D1*
X7428D2*
X9097D1*
X11014D2*
X11366D1*
X14850D2*
X24565D1*
X25295D2*
X25757D1*
X32080D2*
X32452D1*
X35201D2*
X35542D1*
X5018Y6623D2*
X5702D1*
X7428D2*
X9097D1*
X9756D2*
X9972D1*
X11264D2*
X11612D1*
X14873D2*
X23394D1*
X34178D2*
X35542D1*
X5018Y6374D2*
X5702D1*
X7428D2*
X9097D1*
X9756D2*
X10499D1*
X11510D2*
X13718D1*
X14787D2*
X23394D1*
X34178D2*
X35542D1*
X5018Y6125D2*
X5702D1*
X7428D2*
X9097D1*
X9756D2*
X10749D1*
X11760D2*
X14026D1*
X14479D2*
X23394D1*
X24760D2*
X25007D1*
X29678D2*
X29960D1*
X31565D2*
X32452D1*
X34178D2*
X35542D1*
X5018Y5877D2*
X5702D1*
X7428D2*
X9097D1*
X9756D2*
X10999D1*
X12010D2*
X22702D1*
X24760D2*
X25757D1*
X29678D2*
X30315D1*
X31565D2*
X32452D1*
X34178D2*
X35542D1*
X5018Y5628D2*
X5702D1*
X7428D2*
X9097D1*
X9756D2*
X11245D1*
X12256D2*
X22702D1*
X24760D2*
X25351D1*
X29678D2*
X30347D1*
X31533D2*
X32452D1*
X34178D2*
X35542D1*
X7475Y5379D2*
X9097D1*
X9756D2*
X11495D1*
X12506D2*
X21311D1*
X22069D2*
X22702D1*
X24760D2*
X25104D1*
X28916D2*
X30319D1*
X31561D2*
X32405D1*
X34975D2*
X35542D1*
X7658Y5131D2*
X9097D1*
X9756D2*
X11745D1*
X29635D2*
X30401D1*
X31479D2*
X32222D1*
X33385D2*
X33995D1*
X35158D2*
X35542D1*
X7701Y4882D2*
X9097D1*
X9756D2*
X11991D1*
X25615D2*
X25758D1*
X29635D2*
X30694D1*
X31186D2*
X32179D1*
X33428D2*
X33952D1*
X35201D2*
X35542D1*
X7631Y4633D2*
X9097D1*
X9756D2*
X12269D1*
X25342D2*
X25757D1*
X29635D2*
X32249D1*
X33361D2*
X34019D1*
X35131D2*
X35542D1*
X9748Y4385D2*
X21561D1*
X21815D2*
X27952D1*
X29635D2*
X32491D1*
X33115D2*
X34265D1*
X34889D2*
X35542D1*
X20863Y11346D2*
X20808Y11234D1*
X20723Y11143D1*
X20624Y11088D1*
X20648Y11021D1*
X20665Y10878D1*
X20661Y10843D1*
X21210Y11391D1*
X21208Y11701D1*
X20811Y11697D1*
X20871Y11561D1*
X20882Y11469D1*
X20863Y11346D1*
X20061Y11481D2*
X20064Y11547D1*
X20106Y11664D1*
X20131Y11699D1*
X18569Y11697D1*
X18008Y11139D1*
X17901Y11071D1*
X17793Y11050D1*
X17421D1*
X17440Y10900D1*
X17427Y10776D1*
X17389Y10657D1*
X17327Y10549D1*
X17243Y10456D1*
X17171Y10403D1*
X17228Y10357D1*
X17315Y10267D1*
X17380Y10161D1*
X17423Y10044D1*
X17440Y9900D1*
X17427Y9776D1*
X17389Y9657D1*
X17327Y9549D1*
X17243Y9456D1*
X17143Y9382D1*
X17097Y9361D1*
X17176Y9365D1*
X17300Y9353D1*
X17420Y9320D1*
X17533Y9266D1*
X17635Y9194D1*
X17722Y9104D1*
X17793Y9002D1*
X17844Y8888D1*
X17875Y8767D1*
X17885Y8650D1*
X17877Y8561D1*
X17921Y8656D1*
X17994Y8757D1*
X18087Y8840D1*
X18195Y8903D1*
X18314Y8942D1*
X18438Y8955D1*
X18562Y8943D1*
X18681Y8905D1*
X18789Y8843D1*
X18882Y8760D1*
X18940Y8687D1*
X19029Y8792D1*
X19129Y8868D1*
X19241Y8921D1*
X19363Y8950D1*
X19488Y8953D1*
X19610Y8930D1*
X19726Y8883D1*
X19828Y8812D1*
X19915Y8722D1*
X19940Y8687D1*
X20029Y8792D1*
X20129Y8868D1*
X20241Y8921D1*
X20363Y8950D1*
X20488Y8953D1*
X20610Y8930D1*
X20726Y8883D1*
X20828Y8812D1*
X20915Y8722D1*
X20940Y8687D1*
X21029Y8792D1*
X21101Y8847D1*
X21100Y10421D1*
X20843Y10162D1*
X20736Y10093D1*
X20627Y10073D1*
X20252D1*
X20128Y10100D1*
X20037Y10162D1*
X19885Y10305D1*
X19875Y10310D1*
X19818Y10173D1*
X19741Y10074D1*
X19642Y10000D1*
X19526Y9954D1*
X19402Y9939D1*
X19279Y9958D1*
X19165Y10009D1*
X19068Y10087D1*
X18995Y10188D1*
X18951Y10305D1*
X18940Y10429D1*
X18961Y10552D1*
X19014Y10665D1*
X19094Y10760D1*
X19196Y10831D1*
X19314Y10873D1*
X19465Y10877D1*
X19476Y10992D1*
X19512Y11111D1*
X19573Y11220D1*
X19654Y11315D1*
X19754Y11390D1*
X19866Y11444D1*
X19988Y11473D1*
X20054Y11474D1*
X29652Y6347D2*
X29648Y6208D1*
X29652Y6127D1*
Y5539D1*
X28890D1*
X28891Y5164D1*
X29173Y5162D1*
X29611D1*
Y4314D1*
X32733Y4315D1*
X32624Y4339D1*
X32509Y4388D1*
X32408Y4461D1*
X32323Y4552D1*
X32260Y4660D1*
X32219Y4778D1*
X32205Y4902D1*
X32216Y5026D1*
X32252Y5145D1*
X32313Y5254D1*
X32395Y5349D1*
X32478Y5414D1*
Y6137D1*
X31910Y6135D1*
X31785Y6162D1*
X31694Y6224D1*
X31541Y6378D1*
X31540Y5840D1*
X31387D1*
X31457Y5743D1*
X31509Y5629D1*
X31536Y5508D1*
X31538Y5390D1*
X31514Y5267D1*
X31466Y5152D1*
X31395Y5050D1*
X31305Y4964D1*
X31198Y4899D1*
X31081Y4857D1*
X30957Y4841D1*
X30833Y4850D1*
X30713Y4885D1*
X30603Y4944D1*
X30508Y5025D1*
X30431Y5123D1*
X30376Y5235D1*
X30346Y5356D1*
X30342Y5481D1*
X30363Y5604D1*
X30410Y5720D1*
X30479Y5824D1*
X30494Y5841D1*
X30340Y5840D1*
Y6102D1*
X30115Y6100D1*
X29993Y6123D1*
X29875Y6200D1*
X29723Y6351D1*
X29652Y6327D1*
Y6202D1*
X23652Y4597D2*
Y4458D1*
X22728D1*
Y4603D1*
X22139Y4600D1*
X22048Y4503D1*
X21943Y4435D1*
X21826Y4392D1*
X21702Y4375D1*
X21578Y4386D1*
X21459Y4424D1*
X21352Y4487D1*
X21241Y4602D1*
X15440Y4600D1*
X12440D1*
X12318Y4623D1*
X12200Y4700D1*
X10296Y6603D1*
X10257Y6594D1*
X10133Y6593D1*
X10010Y6618D1*
X9896Y6667D1*
X9794Y6739D1*
X9733Y6805D1*
X9731Y4456D1*
X9704Y4331D1*
X9728Y4421D1*
X9815Y4315D1*
X27975D1*
X27978Y4398D1*
X27585Y4395D1*
X27194D1*
X27069Y4422D1*
X26978Y4484D1*
X26903Y4559D1*
X25781Y4557D1*
Y5069D1*
X25410Y4700D1*
X25307Y4629D1*
X25169Y4600D1*
X23650D1*
X22728Y5283D2*
X22732Y5422D1*
X22728Y5503D1*
Y6091D1*
X23419Y6095D1*
Y6835D1*
X24590D1*
Y7775D1*
X24507Y7759D1*
X24383Y7758D1*
X24260Y7783D1*
X24146Y7832D1*
X24044Y7904D1*
X23941Y8026D1*
X23843Y7911D1*
X23743Y7837D1*
X23629Y7786D1*
X23507Y7759D1*
X23383Y7758D1*
X23260Y7783D1*
X23146Y7832D1*
X23044Y7904D1*
X22941Y8026D1*
X22862Y7928D1*
X22764Y7850D1*
X22653Y7794D1*
X22532Y7762D1*
X22407Y7756D1*
X22284Y7776D1*
X22168Y7820D1*
X22063Y7888D1*
X21975Y7976D1*
X21940Y8023D1*
X21843Y7911D1*
X21743Y7837D1*
X21629Y7786D1*
X21507Y7759D1*
X21383Y7758D1*
X21260Y7783D1*
X21146Y7832D1*
X21044Y7904D1*
X20941Y8026D1*
X20862Y7928D1*
X20764Y7850D1*
X20653Y7794D1*
X20532Y7762D1*
X20407Y7756D1*
X20284Y7776D1*
X20168Y7820D1*
X20063Y7888D1*
X19975Y7976D1*
X19940Y8023D1*
X19862Y7928D1*
X19764Y7850D1*
X19653Y7794D1*
X19532Y7762D1*
X19407Y7756D1*
X19284Y7776D1*
X19168Y7820D1*
X19063Y7888D1*
X18975Y7976D1*
X18940Y8023D1*
X18862Y7928D1*
X18764Y7850D1*
X18653Y7794D1*
X18532Y7762D1*
X18407Y7756D1*
X18284Y7776D1*
X18168Y7820D1*
X18063Y7888D1*
X17975Y7976D1*
X17906Y8081D1*
X17861Y8197D1*
X17841Y8320D1*
X17842Y8405D1*
X17789Y8292D1*
X17717Y8190D1*
X17629Y8102D1*
X17526Y8030D1*
X17413Y7978D1*
X17293Y7946D1*
X17168Y7935D1*
X17044Y7946D1*
X16923Y7979D1*
X16810Y8032D1*
X16708Y8104D1*
X16620Y8193D1*
X16549Y8295D1*
X16497Y8409D1*
X16465Y8529D1*
X16455Y8654D1*
X16467Y8778D1*
X16500Y8898D1*
X16553Y9011D1*
X16625Y9113D1*
X16714Y9201D1*
X16817Y9272D1*
X16884Y9303D1*
X16783D1*
X16660Y9328D1*
X16546Y9377D1*
X16444Y9449D1*
X16359Y9541D1*
X16295Y9648D1*
X16255Y9766D1*
X16240Y9890D1*
X16251Y10014D1*
X16287Y10134D1*
X16348Y10243D1*
X16429Y10337D1*
X16513Y10401D1*
X16444Y10449D1*
X16359Y10541D1*
X16295Y10648D1*
X16255Y10766D1*
X16240Y10890D1*
X16261Y11048D1*
X15904Y10697D1*
X15681Y10474D1*
X15573Y10406D1*
X15465Y10385D1*
X15094D1*
X15091Y10252D1*
Y9728D1*
X13574D1*
X13583Y9652D1*
X14422Y9648D1*
X14503Y9652D1*
X15091D1*
Y8728D1*
X13574D1*
X13583Y8652D1*
X14422Y8648D1*
X14503Y8652D1*
X15091D1*
Y7728D1*
X13574D1*
X13539Y7678D1*
X13632Y7595D1*
X13707Y7495D1*
X13759Y7382D1*
X13786Y7260D1*
X13788Y7140D1*
X13774Y7051D1*
X13842Y7127D1*
X13941Y7203D1*
X14054Y7256D1*
X14175Y7285D1*
X14300Y7288D1*
X14423Y7265D1*
X14538Y7218D1*
X14641Y7147D1*
X14727Y7057D1*
X14793Y6951D1*
X14835Y6834D1*
X14852Y6690D1*
X14840Y6566D1*
X14801Y6447D1*
X14739Y6339D1*
X14656Y6246D1*
X14555Y6172D1*
X14442Y6121D1*
X14320Y6094D1*
X14195Y6093D1*
X14073Y6118D1*
X13958Y6167D1*
X13856Y6239D1*
X13772Y6331D1*
X13738Y6388D1*
X12252Y6385D1*
X12003D1*
X11878Y6412D1*
X11787Y6474D1*
X11349Y6912D1*
X11281Y7019D1*
X11260Y7128D1*
Y7358D1*
X11140Y7458D1*
X11085Y7435D1*
X11002Y7424D1*
X10741D1*
X10773Y7334D1*
X10790Y7190D1*
X10784Y7077D1*
X12582Y5279D1*
X21241Y5280D1*
X21313Y5361D1*
X21415Y5433D1*
X21530Y5482D1*
X21653Y5504D1*
X21777Y5498D1*
X21898Y5466D1*
X22008Y5407D1*
X22103Y5326D1*
X22138Y5279D1*
X22725Y5280D1*
X22728Y5428D1*
X5728Y5509D2*
X5732Y6422D1*
X5728Y6503D1*
Y7046D1*
X5607Y6952D1*
X5493Y6900D1*
X5371Y6874D1*
X5246Y6873D1*
X5124Y6898D1*
X4994Y6959D1*
X4995Y5513D1*
X5180Y5510D1*
X5729D1*
X5770Y7091D2*
X6615D1*
X6531Y7219D1*
X6491Y7337D1*
X6476Y7461D1*
X6487Y7585D1*
X6524Y7704D1*
X6585Y7813D1*
X6666Y7908D1*
X6766Y7983D1*
X6879Y8036D1*
X7000Y8064D1*
X7125Y8067D1*
X7248Y8044D1*
X7363Y7996D1*
X7466Y7925D1*
X7551Y7835D1*
X7617Y7728D1*
X7659Y7611D1*
X7675Y7470D1*
X7662Y7345D1*
X7624Y7227D1*
X7562Y7118D1*
X7479Y7025D1*
X7402Y6966D1*
X7398Y6128D1*
X7402Y6047D1*
Y5458D1*
X7320D1*
X7466Y5366D1*
X7551Y5276D1*
X7617Y5169D1*
X7659Y5052D1*
X7675Y4910D1*
X7662Y4786D1*
X7624Y4668D1*
X7587Y4603D1*
X9036Y4601D1*
X9118D1*
X9121Y5581D1*
Y7445D1*
X9149Y7570D1*
X9176Y7620D1*
X9374Y7903D1*
X9464Y7988D1*
X9585Y8030D1*
X9577Y8039D1*
X8978D1*
Y9672D1*
X9834D1*
X9777Y9708D1*
X8978D1*
X8982Y10672D1*
X8978Y10753D1*
Y11341D1*
X9609D1*
X9637Y11424D1*
X9698Y11533D1*
X9779Y11627D1*
X9863Y11691D1*
X9794Y11739D1*
X9709Y11831D1*
X9645Y11938D1*
X9605Y12056D1*
X9592Y12199D1*
X9517Y12197D1*
X9399Y12234D1*
X9333Y12284D1*
X9153Y12464D1*
X9114Y12322D1*
X9052Y12214D1*
X8968Y12121D1*
X8868Y12047D1*
X8754Y11996D1*
X8632Y11969D1*
X8508Y11968D1*
X8385Y11993D1*
X8271Y12042D1*
X8169Y12114D1*
X8084Y12206D1*
X8050Y12263D1*
X6565Y12260D1*
X6502D1*
X6378Y12287D1*
X6287Y12349D1*
X5500Y13137D1*
X5288Y13135D1*
X5290Y12840D1*
X5137D1*
X5231Y12699D1*
X5273Y12581D1*
X5290Y12440D1*
X5277Y12316D1*
X5238Y12197D1*
X5176Y12089D1*
X5093Y11996D1*
X5021Y11943D1*
X5134Y11844D1*
X5207Y11743D1*
X5259Y11629D1*
X5286Y11508D1*
X5288Y11390D1*
X5264Y11267D1*
X5216Y11152D1*
X5194Y11115D1*
X5360Y10950D1*
X5429Y10843D1*
X5450Y10735D1*
X5447Y8117D1*
X5476Y8044D1*
X5591Y7996D1*
X5694Y7925D1*
X5780Y7835D1*
X5845Y7728D1*
X5887Y7611D1*
X5904Y7470D1*
X5891Y7345D1*
X5852Y7227D1*
X5790Y7118D1*
X5707Y7025D1*
X33353Y6922D2*
X33974D1*
X33976Y7820D1*
Y8069D1*
X35175D1*
Y6870D1*
X34151D1*
X34148Y5958D1*
X34152Y5877D1*
Y5334D1*
X34266Y5424D1*
X34379Y5477D1*
X34500Y5505D1*
X34625Y5508D1*
X34748Y5485D1*
X34863Y5437D1*
X34966Y5366D1*
X35051Y5276D1*
X35117Y5169D1*
X35159Y5052D1*
X35175Y4910D1*
X35162Y4786D1*
X35124Y4668D1*
X35062Y4559D1*
X34979Y4466D1*
X34878Y4393D1*
X34764Y4341D1*
X34646Y4315D1*
X35565D1*
Y9842D1*
X34590Y9840D1*
Y11040D1*
X34741Y11043D1*
X34668Y11145D1*
X34618Y11259D1*
X34593Y11381D1*
X34594Y11506D1*
X34621Y11628D1*
X34672Y11742D1*
X34745Y11842D1*
X34838Y11926D1*
X34946Y11988D1*
X35065Y12027D1*
X35189Y12040D1*
X35313Y12027D1*
X35432Y11989D1*
X35540Y11927D1*
X35565Y11908D1*
Y17565D1*
X35178D1*
X35175Y17269D1*
Y16370D1*
X34151D1*
X34148Y15458D1*
X34152Y15377D1*
Y14834D1*
X34266Y14924D1*
X34379Y14977D1*
X34500Y15005D1*
X34625Y15008D1*
X34748Y14985D1*
X34863Y14937D1*
X34966Y14866D1*
X35051Y14776D1*
X35117Y14669D1*
X35159Y14552D1*
X35175Y14410D1*
X35162Y14286D1*
X35124Y14168D1*
X35062Y14059D1*
X34979Y13966D1*
X34878Y13893D1*
X34764Y13841D1*
X34643Y13815D1*
X34518Y13814D1*
X34396Y13839D1*
X34281Y13888D1*
X34179Y13961D1*
X34095Y14052D1*
X34031Y14160D1*
X33991Y14278D1*
X33976Y14402D1*
X33987Y14526D1*
X34024Y14645D1*
X34085Y14754D1*
X34166Y14849D1*
X34102Y14789D1*
X33265D1*
X33345Y14669D1*
X33387Y14552D1*
X33404Y14410D1*
X33391Y14286D1*
X33352Y14168D1*
X33290Y14059D1*
X33207Y13966D1*
X33107Y13893D1*
X32993Y13841D1*
X32871Y13815D1*
X32746Y13814D1*
X32624Y13839D1*
X32509Y13888D1*
X32408Y13961D1*
X32323Y14052D1*
X32260Y14160D1*
X32219Y14278D1*
X32205Y14402D1*
X32216Y14526D1*
X32252Y14645D1*
X32313Y14754D1*
X32395Y14849D1*
X32478Y14914D1*
Y15637D1*
X32170Y15635D1*
X31670Y15137D1*
X31940D1*
X32057Y15098D1*
X32128Y14994D1*
X32137Y14815D1*
Y9940D1*
X32098Y9823D1*
X31994Y9752D1*
X31966Y9709D1*
X32034Y9601D1*
X32055Y9493D1*
Y6747D1*
X32476Y6745D1*
X32478Y6922D1*
X32560D1*
X32408Y7020D1*
X32323Y7111D1*
X32260Y7219D1*
X32219Y7337D1*
X32205Y7461D1*
X32216Y7585D1*
X32252Y7704D1*
X32313Y7813D1*
X32395Y7908D1*
X32494Y7983D1*
X32607Y8036D1*
X32729Y8064D1*
X32853Y8067D1*
X32976Y8044D1*
X33091Y7996D1*
X33194Y7925D1*
X33280Y7835D1*
X33345Y7728D1*
X33387Y7611D1*
X33404Y7470D1*
X33391Y7345D1*
X33352Y7227D1*
X33290Y7118D1*
X33207Y7025D1*
X33107Y6952D1*
X33039Y6921D1*
X33402Y6918D1*
X34110Y5289D2*
X33265D1*
X33345Y5169D1*
X33387Y5052D1*
X33404Y4910D1*
X33391Y4786D1*
X33352Y4668D1*
X33290Y4559D1*
X33207Y4466D1*
X33107Y4393D1*
X32993Y4341D1*
X32875Y4315D1*
X34506D1*
X34396Y4339D1*
X34281Y4388D1*
X34179Y4461D1*
X34095Y4552D1*
X34031Y4660D1*
X33991Y4778D1*
X33976Y4902D1*
X33987Y5026D1*
X34024Y5145D1*
X34085Y5254D1*
X34166Y5349D1*
X33353Y16422D2*
X33974D1*
X33976Y17320D1*
Y17565D1*
X32874D1*
X32976Y17544D1*
X33091Y17496D1*
X33194Y17425D1*
X33280Y17335D1*
X33345Y17228D1*
X33387Y17111D1*
X33404Y16970D1*
X33391Y16845D1*
X33352Y16727D1*
X33290Y16618D1*
X33207Y16525D1*
X33107Y16452D1*
X33039Y16421D1*
X33402Y16418D1*
X33228Y16422D1*
X33353D1*
X6652Y14961D2*
X6152Y14958D1*
X5728D1*
X5732Y15922D1*
X5728Y16003D1*
Y16546D1*
X5607Y16452D1*
X5493Y16400D1*
X5371Y16374D1*
X5246Y16373D1*
X5124Y16398D1*
X5009Y16447D1*
X4908Y16520D1*
X4823Y16611D1*
X4760Y16719D1*
X4719Y16837D1*
X4705Y16961D1*
X4716Y17085D1*
X4752Y17204D1*
X4796Y17283D1*
X4433Y17279D1*
X4431Y14037D1*
X4836Y14040D1*
X4782Y14115D1*
X4732Y14230D1*
X4707Y14352D1*
X4708Y14476D1*
X4735Y14598D1*
X4786Y14712D1*
X4860Y14813D1*
X4953Y14896D1*
X5061Y14958D1*
X5179Y14997D1*
X5303Y15010D1*
X5428Y14997D1*
X5546Y14959D1*
X5655Y14897D1*
X5748Y14814D1*
X5822Y14714D1*
X5873Y14600D1*
X5900Y14478D1*
X5902Y14361D1*
X5878Y14238D1*
X5830Y14123D1*
X5759Y14020D1*
X5669Y13934D1*
X5562Y13869D1*
X5445Y13828D1*
X5321Y13811D1*
X5289D1*
X5290Y13747D1*
X5627Y13745D1*
X5752Y13718D1*
X5843Y13656D1*
X6630Y12868D1*
X8045Y12870D1*
X8154Y13002D1*
X8254Y13078D1*
X8366Y13131D1*
X8488Y13160D1*
X8613Y13163D1*
X8735Y13140D1*
X8851Y13093D1*
X8978Y12997D1*
Y13980D1*
X8926Y13951D1*
X8807Y13914D1*
X8682Y13903D1*
X8559Y13917D1*
X8440Y13957D1*
X8333Y14020D1*
X8241Y14105D1*
X8168Y14206D1*
X8118Y14320D1*
X8093Y14443D1*
X8094Y14567D1*
X8120Y14689D1*
X8171Y14803D1*
X8244Y14904D1*
X8337Y14988D1*
X8445Y15050D1*
X8564Y15089D1*
X8688Y15103D1*
X8812Y15090D1*
X8931Y15052D1*
X8979Y15028D1*
X8873Y15135D1*
X7401D1*
X7402Y14958D1*
X7320D1*
X7466Y14866D1*
X7551Y14776D1*
X7617Y14669D1*
X7659Y14552D1*
X7675Y14410D1*
X7662Y14286D1*
X7624Y14168D1*
X7562Y14059D1*
X7479Y13966D1*
X7378Y13893D1*
X7264Y13841D1*
X7143Y13815D1*
X7018Y13814D1*
X6896Y13839D1*
X6781Y13888D1*
X6679Y13961D1*
X6595Y14052D1*
X6531Y14160D1*
X6491Y14278D1*
X6476Y14402D1*
X6487Y14526D1*
X6524Y14645D1*
X6585Y14754D1*
X6666Y14849D1*
X6766Y14924D1*
X6840Y14959D1*
X6478Y14962D1*
X5770Y16591D2*
X6615D1*
X6531Y16719D1*
X6491Y16837D1*
X6476Y16961D1*
X6487Y17085D1*
X6524Y17204D1*
X6568Y17283D1*
X6171Y17279D1*
X5815D1*
X5845Y17228D1*
X5887Y17111D1*
X5904Y16970D1*
X5891Y16845D1*
X5852Y16727D1*
X5790Y16618D1*
X5707Y16525D1*
X6215Y9790D2*
X6243D1*
X6145Y9939D1*
X6105Y10057D1*
X6090Y10181D1*
X6102Y10305D1*
X6138Y10425D1*
X6199Y10534D1*
X6281Y10628D1*
X6380Y10703D1*
X6493Y10756D1*
X6614Y10785D1*
X6739Y10788D1*
X6862Y10765D1*
X6977Y10717D1*
X7080Y10646D1*
X7166Y10555D1*
X7231Y10449D1*
X7273Y10331D1*
X7290Y10190D1*
X7277Y10066D1*
X7238Y9947D1*
X7176Y9839D1*
X7132Y9790D1*
X7290D1*
Y8590D1*
X6090D1*
Y9790D1*
X6215D1*
X31172Y7040D2*
X31446D1*
X31445Y7987D1*
X31293Y7946D1*
X31168Y7935D1*
X31044Y7946D1*
X30923Y7979D1*
X30810Y8032D1*
X30708Y8104D1*
X30620Y8193D1*
X30549Y8295D1*
X30497Y8409D1*
X30465Y8529D1*
X30455Y8654D1*
X30467Y8778D1*
X30500Y8898D1*
X30553Y9011D1*
X30625Y9113D1*
X30714Y9201D1*
X30817Y9272D1*
X30930Y9324D1*
X31025Y9348D1*
X27600D1*
X27475Y9376D1*
X27384Y9438D1*
X23774Y13048D1*
X20273Y13050D1*
X17418D1*
X17440Y12900D1*
X17427Y12776D1*
X17390Y12661D1*
X23440Y12660D1*
X23565Y12633D1*
X23656Y12571D1*
X27288Y8938D1*
X27488Y8953D1*
X27610Y8930D1*
X27726Y8883D1*
X27828Y8812D1*
X27915Y8722D1*
X27937Y8686D1*
X28029Y8792D1*
X28129Y8868D1*
X28241Y8921D1*
X28363Y8950D1*
X28488Y8953D1*
X28610Y8930D1*
X28726Y8883D1*
X28842Y8798D1*
X28840Y8960D1*
X30040D1*
Y7901D1*
X30502Y7898D1*
X30583Y7902D1*
X31172D1*
Y7039D1*
X29536Y7760D2*
X28840D1*
Y7905D1*
X28743Y7837D1*
X28629Y7786D1*
X28507Y7759D1*
X28383Y7758D1*
X28260Y7783D1*
X28146Y7832D1*
X28044Y7904D1*
X27941Y8026D1*
X27843Y7911D1*
X27743Y7837D1*
X27629Y7786D1*
X27507Y7759D1*
X27383Y7758D1*
X27260Y7783D1*
X27146Y7832D1*
X27044Y7904D1*
X26941Y8026D1*
X26843Y7911D1*
X26743Y7837D1*
X26629Y7786D1*
X26507Y7759D1*
X26383Y7758D1*
X26260Y7783D1*
X26146Y7832D1*
X26044Y7904D1*
X25941Y8026D1*
X25843Y7911D1*
X25743Y7837D1*
X25629Y7786D1*
X25507Y7759D1*
X25383Y7758D1*
X25272Y7780D1*
X25270Y6814D1*
X25410Y6780D1*
X25781D1*
Y7323D1*
X26934D1*
X27269Y7656D1*
X27377Y7724D1*
X27485Y7745D1*
X29536D1*
X25942Y8688D2*
X26029Y8792D1*
X26129Y8868D1*
X26241Y8921D1*
X26363Y8950D1*
X26413Y8951D1*
X25271Y10092D1*
X25270Y8932D1*
X25363Y8950D1*
X25488Y8953D1*
X25610Y8930D1*
X25726Y8883D1*
X25828Y8812D1*
X25915Y8722D1*
X25937Y8686D1*
X24291Y8933D2*
X24363Y8950D1*
X24488Y8953D1*
X24591Y8934D1*
X24590Y9940D1*
X24450Y9974D1*
X23313D1*
X23317Y9921D1*
X23305D1*
X24290Y8936D1*
X17427Y11776D2*
X17390Y11661D1*
X17665Y11660D1*
X18055Y12049D1*
X17420Y12050D1*
X17440Y11900D1*
X17427Y11776D1*
X16292Y11659D2*
X16255Y11766D1*
X16240Y11890D1*
X16261Y12048D1*
X15511Y12050D1*
X15387Y12077D1*
X15296Y12139D1*
X14050Y13385D1*
X13758D1*
X13790Y13210D1*
X13777Y13066D1*
X13752Y12988D1*
X13882Y12867D1*
X13981Y12768D1*
X14050Y12660D1*
X14070Y12552D1*
Y11765D1*
X14043Y11641D1*
X13981Y11550D1*
X13773Y11334D1*
X13790Y11190D1*
X13777Y11066D1*
X13754Y10995D1*
X15337D1*
X15914Y11571D1*
X16022Y11639D1*
X16130Y11660D1*
X16290D1*
X16292Y12659D2*
X16255Y12766D1*
X16240Y12890D1*
X16261Y13048D1*
X16102Y13050D1*
X15977Y13077D1*
X15886Y13139D1*
X15138Y13888D1*
X14411Y13885D1*
X15638Y12660D1*
X16289D1*
X17427Y13776D2*
X17390Y13661D1*
X23898Y13660D1*
X24023Y13633D1*
X24114Y13571D1*
X27724Y9961D1*
X27995Y9958D1*
Y14944D1*
X28007Y15008D1*
X27958Y15050D1*
X17422D1*
X17440Y14900D1*
X17427Y14776D1*
X17389Y14657D1*
X17327Y14549D1*
X17243Y14456D1*
X17171Y14403D1*
X17228Y14357D1*
X17315Y14267D1*
X17380Y14161D1*
X17423Y14044D1*
X17440Y13900D1*
X17427Y13776D1*
X16292Y13659D2*
X16255Y13766D1*
X16240Y13890D1*
X16251Y14014D1*
X16287Y14134D1*
X16348Y14243D1*
X16429Y14337D1*
X16513Y14401D1*
X16444Y14449D1*
X16359Y14541D1*
X16295Y14648D1*
X16255Y14766D1*
X16240Y14890D1*
X16261Y15048D1*
X15219Y15050D1*
X14665Y14496D1*
X15267Y14495D1*
X15392Y14468D1*
X15483Y14406D1*
X16231Y13657D1*
X18940Y16113D2*
X18843Y15996D1*
X18743Y15922D1*
X18629Y15871D1*
X18507Y15844D1*
X18383Y15843D1*
X18260Y15868D1*
X18146Y15917D1*
X18044Y15989D1*
X17959Y16081D1*
X17895Y16188D1*
X17879Y16236D1*
X17885Y16150D1*
X17874Y16026D1*
X17842Y15905D1*
X17789Y15792D1*
X17687Y15659D1*
X30652Y15660D1*
X30549Y15795D1*
X30497Y15909D1*
X30465Y16029D1*
X30455Y16154D1*
X30467Y16278D1*
X30500Y16398D1*
X30553Y16511D1*
X30625Y16613D1*
X30714Y16701D1*
X30817Y16772D1*
X30930Y16824D1*
X31051Y16855D1*
X31176Y16865D1*
X31300Y16853D1*
X31420Y16820D1*
X31533Y16766D1*
X31635Y16694D1*
X31722Y16604D1*
X31793Y16502D1*
X31844Y16388D1*
X31875Y16267D1*
X31881Y16198D1*
X31960Y16234D1*
X32043Y16245D1*
X32476D1*
X32478Y16422D1*
X32560D1*
X32408Y16520D1*
X32323Y16611D1*
X32260Y16719D1*
X32219Y16837D1*
X32205Y16961D1*
X32216Y17085D1*
X32252Y17204D1*
X32313Y17313D1*
X32395Y17408D1*
X32494Y17483D1*
X32607Y17536D1*
X32764Y17565D1*
X12249D1*
X13042Y16770D1*
X13113Y16785D1*
X13238Y16788D1*
X13360Y16765D1*
X13476Y16718D1*
X13578Y16647D1*
X13665Y16557D1*
X13730Y16451D1*
X13773Y16334D1*
X13790Y16190D1*
X13777Y16066D1*
X13739Y15947D1*
X13677Y15839D1*
X13593Y15746D1*
X13521Y15693D1*
X13578Y15647D1*
X13665Y15557D1*
X13730Y15451D1*
X13773Y15334D1*
X13790Y15190D1*
X13777Y15066D1*
X13754Y14995D1*
X14303D1*
X14877Y15571D1*
X14985Y15639D1*
X15093Y15660D1*
X16652D1*
X16549Y15795D1*
X16497Y15909D1*
X16465Y16029D1*
X16455Y16154D1*
X16467Y16278D1*
X16500Y16398D1*
X16553Y16511D1*
X16625Y16613D1*
X16714Y16701D1*
X16817Y16772D1*
X16930Y16824D1*
X17051Y16855D1*
X17176Y16865D1*
X17300Y16853D1*
X17420Y16820D1*
X17533Y16766D1*
X17635Y16694D1*
X17722Y16604D1*
X17793Y16502D1*
X17843Y16391D1*
X17851Y16554D1*
X17887Y16674D1*
X17948Y16783D1*
X18029Y16877D1*
X18129Y16953D1*
X18241Y17006D1*
X18363Y17035D1*
X18488Y17038D1*
X18610Y17015D1*
X18726Y16968D1*
X18828Y16897D1*
X18915Y16807D1*
X18937Y16771D1*
X19029Y16877D1*
X19129Y16953D1*
X19241Y17006D1*
X19363Y17035D1*
X19488Y17038D1*
X19610Y17015D1*
X19726Y16968D1*
X19828Y16897D1*
X19915Y16807D1*
X19937Y16771D1*
X20029Y16877D1*
X20129Y16953D1*
X20241Y17006D1*
X20363Y17035D1*
X20488Y17038D1*
X20610Y17015D1*
X20726Y16968D1*
X20828Y16897D1*
X20915Y16807D1*
X20937Y16771D1*
X21029Y16877D1*
X21129Y16953D1*
X21241Y17006D1*
X21363Y17035D1*
X21488Y17038D1*
X21610Y17015D1*
X21726Y16968D1*
X21828Y16897D1*
X21915Y16807D1*
X21937Y16771D1*
X22029Y16877D1*
X22129Y16953D1*
X22241Y17006D1*
X22363Y17035D1*
X22488Y17038D1*
X22610Y17015D1*
X22726Y16968D1*
X22828Y16897D1*
X22915Y16807D1*
X22937Y16771D1*
X23029Y16877D1*
X23129Y16953D1*
X23241Y17006D1*
X23363Y17035D1*
X23488Y17038D1*
X23610Y17015D1*
X23726Y16968D1*
X23828Y16897D1*
X23915Y16807D1*
X23937Y16771D1*
X24029Y16877D1*
X24129Y16953D1*
X24241Y17006D1*
X24363Y17035D1*
X24488Y17038D1*
X24610Y17015D1*
X24726Y16968D1*
X24828Y16897D1*
X24915Y16807D1*
X24937Y16771D1*
X25029Y16877D1*
X25129Y16953D1*
X25241Y17006D1*
X25363Y17035D1*
X25488Y17038D1*
X25610Y17015D1*
X25726Y16968D1*
X25828Y16897D1*
X25915Y16807D1*
X25937Y16771D1*
X26029Y16877D1*
X26129Y16953D1*
X26241Y17006D1*
X26363Y17035D1*
X26488Y17038D1*
X26610Y17015D1*
X26726Y16968D1*
X26828Y16897D1*
X26915Y16807D1*
X26937Y16771D1*
X27029Y16877D1*
X27129Y16953D1*
X27241Y17006D1*
X27363Y17035D1*
X27488Y17038D1*
X27610Y17015D1*
X27726Y16968D1*
X27828Y16897D1*
X27915Y16807D1*
X27937Y16771D1*
X28029Y16877D1*
X28129Y16953D1*
X28241Y17006D1*
X28363Y17035D1*
X28488Y17038D1*
X28610Y17015D1*
X28726Y16968D1*
X28828Y16897D1*
X28915Y16807D1*
X28937Y16771D1*
X29029Y16877D1*
X29129Y16953D1*
X29241Y17006D1*
X29363Y17035D1*
X29488Y17038D1*
X29610Y17015D1*
X29726Y16968D1*
X29828Y16897D1*
X29915Y16807D1*
X29980Y16701D1*
X30023Y16584D1*
X30040Y16440D1*
X30027Y16316D1*
X29989Y16197D1*
X29927Y16089D1*
X29843Y15996D1*
X29743Y15922D1*
X29629Y15871D1*
X29507Y15844D1*
X29383Y15843D1*
X29260Y15868D1*
X29146Y15917D1*
X29044Y15989D1*
X28941Y16111D1*
X28843Y15996D1*
X28743Y15922D1*
X28629Y15871D1*
X28507Y15844D1*
X28383Y15843D1*
X28260Y15868D1*
X28146Y15917D1*
X28044Y15989D1*
X27941Y16111D1*
X27843Y15996D1*
X27743Y15922D1*
X27629Y15871D1*
X27507Y15844D1*
X27383Y15843D1*
X27260Y15868D1*
X27146Y15917D1*
X27044Y15989D1*
X26941Y16111D1*
X26843Y15996D1*
X26743Y15922D1*
X26629Y15871D1*
X26507Y15844D1*
X26383Y15843D1*
X26260Y15868D1*
X26146Y15917D1*
X26044Y15989D1*
X25941Y16111D1*
X25843Y15996D1*
X25743Y15922D1*
X25629Y15871D1*
X25507Y15844D1*
X25383Y15843D1*
X25260Y15868D1*
X25146Y15917D1*
X25044Y15989D1*
X24941Y16111D1*
X24843Y15996D1*
X24743Y15922D1*
X24629Y15871D1*
X24507Y15844D1*
X24383Y15843D1*
X24260Y15868D1*
X24146Y15917D1*
X24044Y15989D1*
X23941Y16111D1*
X23843Y15996D1*
X23743Y15922D1*
X23629Y15871D1*
X23507Y15844D1*
X23383Y15843D1*
X23260Y15868D1*
X23146Y15917D1*
X23044Y15989D1*
X22941Y16111D1*
X22843Y15996D1*
X22743Y15922D1*
X22629Y15871D1*
X22507Y15844D1*
X22383Y15843D1*
X22260Y15868D1*
X22146Y15917D1*
X22044Y15989D1*
X21941Y16111D1*
X21843Y15996D1*
X21743Y15922D1*
X21629Y15871D1*
X21507Y15844D1*
X21383Y15843D1*
X21260Y15868D1*
X21146Y15917D1*
X21044Y15989D1*
X20941Y16111D1*
X20843Y15996D1*
X20743Y15922D1*
X20629Y15871D1*
X20507Y15844D1*
X20383Y15843D1*
X20260Y15868D1*
X20146Y15917D1*
X20044Y15989D1*
X19941Y16111D1*
X19843Y15996D1*
X19743Y15922D1*
X19629Y15871D1*
X19507Y15844D1*
X19383Y15843D1*
X19260Y15868D1*
X19146Y15917D1*
X19044Y15989D1*
X18941Y16111D1*
X9336Y16341D2*
X9488Y16351D1*
X9606Y16329D1*
X9637Y16424D1*
X9698Y16533D1*
X9779Y16627D1*
X9879Y16703D1*
X9991Y16756D1*
X10113Y16785D1*
X10238Y16788D1*
X10360Y16765D1*
X10476Y16718D1*
X10578Y16647D1*
X10665Y16557D1*
X10730Y16451D1*
X10773Y16334D1*
X10790Y16190D1*
X10777Y16066D1*
X10739Y15947D1*
X10677Y15839D1*
X10593Y15746D1*
X10521Y15693D1*
X10578Y15647D1*
X10665Y15557D1*
X10730Y15451D1*
X10773Y15334D1*
X10790Y15190D1*
X10777Y15066D1*
X10754Y14995D1*
X12624D1*
X12605Y15056D1*
X12590Y15180D1*
X12601Y15304D1*
X12637Y15424D1*
X12698Y15533D1*
X12779Y15627D1*
X12863Y15691D1*
X12794Y15739D1*
X12709Y15831D1*
X12645Y15938D1*
X12605Y16056D1*
X12590Y16180D1*
X12611Y16338D1*
X11668Y17281D1*
X7589Y17279D1*
X7617Y17228D1*
X7659Y17111D1*
X7675Y16970D1*
X7662Y16845D1*
X7624Y16727D1*
X7562Y16618D1*
X7479Y16525D1*
X7402Y16466D1*
Y15743D1*
X8842Y15745D1*
X8846Y15866D1*
X8738Y15973D1*
X8570Y15968D1*
X8448Y15993D1*
X8333Y16042D1*
X8231Y16114D1*
X8147Y16206D1*
X8083Y16313D1*
X8043Y16431D1*
X8028Y16555D1*
X8038Y16679D1*
X8075Y16799D1*
X8135Y16908D1*
X8217Y17002D1*
X8316Y17078D1*
X8429Y17131D1*
X8550Y17160D1*
X8675Y17163D1*
X8798Y17140D1*
X8913Y17093D1*
X9016Y17022D1*
X9102Y16932D1*
X9168Y16826D1*
X9210Y16709D1*
X9227Y16565D1*
X9221Y16452D1*
X9329Y16344D1*
X23136Y10707D2*
X23317D1*
Y10656D1*
X24700Y10654D1*
X24661Y10703D1*
X23316Y12048D1*
X23221Y11996D1*
X23245Y11877D1*
Y10940D1*
X23218Y10815D1*
X23156Y10724D1*
X23136Y10705D1*
X25783Y6057D2*
X25781Y6100D1*
X25160D1*
X25038Y6123D1*
X24920Y6200D1*
X24738Y6381D1*
X24736Y5279D1*
X25030Y5280D1*
X25429Y5680D1*
X25531Y5751D1*
X25669Y5780D1*
X25781Y5782D1*
Y6082D1*
X10517Y8689D2*
X10578Y8647D1*
X10665Y8557D1*
X10730Y8451D1*
X10758Y8374D1*
X10974Y8593D1*
X11082Y8662D1*
X11190Y8682D1*
X12002D1*
X12127Y8655D1*
X12218Y8593D1*
X12406Y8406D1*
X12474Y8298D1*
X12495Y8190D1*
Y8030D1*
X12600Y8034D1*
X12605Y8056D1*
X12590Y8180D1*
X12601Y8304D1*
X12637Y8424D1*
X12698Y8533D1*
X12779Y8627D1*
X12863Y8691D1*
X12794Y8739D1*
X12709Y8831D1*
X12645Y8938D1*
X12605Y9056D1*
X12590Y9180D1*
X12601Y9304D1*
X12637Y9424D1*
X12698Y9533D1*
X12779Y9627D1*
X12863Y9691D1*
X12794Y9739D1*
X12709Y9831D1*
X12645Y9938D1*
X12605Y10056D1*
X12590Y10180D1*
X12601Y10304D1*
X12637Y10424D1*
X12681Y10502D1*
X11300Y11886D1*
X10704Y11885D1*
X10677Y11839D1*
X10593Y11746D1*
X10521Y11693D1*
X10578Y11647D1*
X10665Y11557D1*
X10730Y11451D1*
X10773Y11334D1*
X10790Y11190D1*
X10777Y11066D1*
X10739Y10947D1*
X10677Y10839D1*
X10593Y10746D1*
X10521Y10693D1*
X10578Y10647D1*
X10665Y10557D1*
X10730Y10451D1*
X10773Y10334D1*
X10790Y10190D1*
X10777Y10066D1*
X10739Y9947D1*
X10677Y9839D1*
X10593Y9746D1*
X10521Y9693D1*
X10578Y9647D1*
X10665Y9557D1*
X10730Y9451D1*
X10773Y9334D1*
X10790Y9190D1*
X10777Y9066D1*
X10739Y8947D1*
X10677Y8839D1*
X10593Y8746D1*
X10521Y8693D1*
X10777Y13066D2*
X10766Y13033D1*
X12611Y13035D1*
X12590Y13180D1*
X12601Y13304D1*
X12625Y13383D1*
X10813Y13385D1*
X10773Y13334D1*
X10790Y13190D1*
X10777Y13066D1*
Y14066D2*
X10754Y13995D1*
X12624D1*
X12605Y14056D1*
X12590Y14180D1*
X12601Y14304D1*
X12625Y14383D1*
X10760Y14385D1*
X10790Y14210D1*
X10777Y14066D1*
X12634Y11413D2*
X12698Y11533D1*
X12779Y11627D1*
X12863Y11691D1*
X12794Y11739D1*
X12709Y11831D1*
X12645Y11938D1*
X12605Y12056D1*
X12590Y12180D1*
Y12235D1*
X12443Y12274D1*
X12375Y12325D1*
X11723D1*
X12634Y11414D1*
X12131Y6995D2*
X12623D1*
X12596Y7105D1*
X12591Y7230D1*
X12613Y7353D1*
X12638Y7424D1*
X12190D1*
X12047Y7460D1*
X12013Y7483D1*
X11968Y7433D1*
X11871Y7362D1*
X11872Y7252D1*
X12131Y6992D1*
X29190Y6021D2*
D16*
Y5540D1*
Y6021D2*
X29651D1*
X23190Y6090D2*
Y5609D1*
X22729D2*
X23190D1*
X6190Y7090D2*
Y6609D1*
X5729D2*
X6190D1*
X33690Y5771D2*
Y5290D1*
Y5771D2*
X34151D1*
X33690Y15271D2*
Y14790D1*
Y15271D2*
X34151D1*
X6190Y16590D2*
Y16109D1*
X5729D2*
X6190D1*
X14609Y8651D2*
Y7729D1*
Y8190D2*
X15090D1*
X14609Y10190D2*
Y9729D1*
Y10190D2*
X15090D1*
X9440Y8521D2*
Y8040D1*
X8979Y8521D2*
X9440D1*
X14609Y9651D2*
Y8729D1*
Y9190D2*
X15090D1*
X9440Y11340D2*
Y10859D1*
X8979D2*
X9440D1*
X30940Y5440D2*
Y4841D1*
X30341Y5440D2*
X31539D1*
X4690Y11440D2*
X5289D1*
X35190Y12039D2*
Y11440D1*
X34591D2*
X35190D1*
X22440Y8355D2*
Y7755D1*
X20440Y8955D2*
Y7755D1*
X19440Y8955D2*
Y7755D1*
X18440Y8955D2*
Y7755D1*
X17840Y8355D2*
X18440D1*
X8690Y15102D2*
Y13903D1*
X8090Y14503D2*
X8690D1*
X29129Y5161D2*
Y4700D1*
X29610D1*
X34576Y16970D2*
Y16370D1*
X33977Y16970D2*
X35175D1*
X34576Y8069D2*
Y6870D1*
X33977Y7470D2*
X35175D1*
X5304Y15010D2*
Y13811D1*
X4705Y14410D2*
X5903D1*
X5304Y5510D2*
Y4910D1*
X25782Y5940D2*
X26440D1*
X24078Y6834D2*
Y5940D1*
X24736D1*
X12590Y7190D2*
X13790D1*
D18*
X29190Y6690D3*
Y6021D3*
X27690Y6690D3*
Y6021D3*
X28440Y6690D3*
Y6021D3*
X23190Y4940D3*
Y5609D3*
X6190Y5940D3*
Y6609D3*
X33690Y6440D3*
Y5771D3*
Y15940D3*
Y15271D3*
X6190Y15440D3*
Y16109D3*
D19*
X13940Y8190D3*
X14609D3*
X13940Y10190D3*
X14609D3*
D18*
X9440Y9190D3*
Y8521D3*
D19*
X13940Y9190D3*
X14609D3*
D18*
X9440Y10190D3*
Y10859D3*
D23*
X6690Y9190D3*
D24*
Y10190D3*
D23*
X30940Y6440D3*
D24*
Y5440D3*
D23*
X4690Y13440D3*
D24*
Y12440D3*
Y11440D3*
Y10440D3*
Y9440D3*
Y8440D3*
D23*
X35190Y10440D3*
D24*
Y11440D3*
D23*
X29440Y8360D3*
D24*
X28440Y8355D3*
X27440D3*
X26440D3*
X25440D3*
X24440D3*
X23440D3*
X22440D3*
X21440D3*
X20440D3*
X19440D3*
X18440D3*
X16840Y9900D3*
Y10900D3*
Y11900D3*
Y12900D3*
Y13900D3*
Y14900D3*
X18440Y16440D3*
X19440D3*
X20440D3*
X21440D3*
X22440D3*
X23440D3*
X24440D3*
X25440D3*
X26440D3*
X27440D3*
X28440D3*
X29440D3*
D25*
X9440Y15753D3*
X8627Y16565D3*
X8690Y14503D3*
X20065Y10878D3*
X14252Y6690D3*
X11565Y7878D3*
X8565Y12565D3*
D27*
X21940Y9940D3*
Y10688D3*
X22846Y10314D3*
D19*
X27740Y5300D3*
X28409D3*
X30690Y7440D3*
X30021D3*
X28460Y4700D3*
X29129D3*
X21690Y11440D3*
X22359D3*
X22690Y9190D3*
X22021D3*
D18*
X32940Y6440D3*
Y5771D3*
X6940Y15440D3*
Y16109D3*
Y5940D3*
Y6609D3*
X32940Y15940D3*
Y15271D3*
D24*
X34576Y16970D3*
X32804D3*
Y14410D3*
X34576D3*
D23*
Y7470D3*
D24*
X32804D3*
Y4910D3*
X34576D3*
X5304Y14410D3*
X7076D3*
Y16970D3*
X5304D3*
D23*
Y4910D3*
D24*
X7076D3*
Y7470D3*
X5304D3*
D28*
X21690Y4940D3*
D29*
X26440Y6940D3*
Y6440D3*
Y5940D3*
Y5440D3*
Y4940D3*
D30*
X24078Y5940D3*
D24*
X10190Y7190D3*
Y8190D3*
Y9190D3*
Y10190D3*
Y11190D3*
Y12190D3*
Y13190D3*
Y14190D3*
Y15190D3*
Y16190D3*
X13190Y7190D3*
Y8190D3*
Y9190D3*
Y10190D3*
Y11190D3*
Y12190D3*
Y13190D3*
Y14190D3*
Y15190D3*
Y16190D3*
M02*
