M48
INCH
T01C0.0295
T02C0.0413
T03C0.043
T04C0.0433
T05C0.09
%
T01
X+020469Y+011469
T02
X+019411Y+010411
T03
X+029440Y+008360
X+028440Y+008355
X+027440Y+008355
X+026440Y+008355
X+025440Y+008355
X+024440Y+008355
X+023440Y+008355
X+022440Y+008355
X+021440Y+008355
X+020440Y+008355
X+019440Y+008355
X+018440Y+008355
X+016840Y+009900
X+016840Y+010900
X+016840Y+011900
X+016840Y+012900
X+016840Y+013900
X+016840Y+014900
X+018440Y+016440
X+019440Y+016440
X+020440Y+016440
X+021440Y+016440
X+022440Y+016440
X+023440Y+016440
X+024440Y+016440
X+025440Y+016440
X+026440Y+016440
X+027440Y+016440
X+028440Y+016440
X+029440Y+016440
X+032804Y+016970
X+034576Y+016970
X+034576Y+014410
X+032804Y+014410
X+032804Y+007470
X+034576Y+007470
X+034576Y+004910
X+032804Y+004910
X+020065Y+010878
X+013190Y+011190
X+013190Y+012190
X+013190Y+013190
X+013190Y+014190
X+013190Y+015190
X+013190Y+016190
X+010190Y+016190
X+009440Y+015753
X+010190Y+015190
X+010190Y+014190
X+010190Y+013190
X+010190Y+012190
X+010190Y+011190
X+010190Y+010190
X+010190Y+009190
X+010190Y+008190
X+010190Y+007190
X+011565Y+007878
X+013190Y+008190
X+013190Y+009190
X+013190Y+010190
X+013190Y+007190
X+014252Y+006690
X+007076Y+007470
X+005304Y+007470
X+005304Y+004910
X+007076Y+004910
X+008565Y+012565
X+008690Y+014503
X+007076Y+014410
X+005304Y+014410
X+005304Y+016970
X+007076Y+016970
X+008627Y+016565
T04
X+006690Y+009190
X+006690Y+010190
X+004690Y+010440
X+004690Y+011440
X+004690Y+012440
X+004690Y+013440
X+004690Y+009440
X+004690Y+008440
X+030940Y+006440
X+030940Y+005440
X+035190Y+010440
X+035190Y+011440
T05
X+031170Y+008650
X+031170Y+016150
X+017170Y+016150
X+017170Y+008650
T00
M30
