G04 DipTrace 2.4.0.2*
%INTop.gbr*%
%MOIN*%
%ADD13C,0.015*%
%ADD14C,0.008*%
%ADD15C,0.025*%
%ADD16C,0.013*%
%ADD18R,0.0394X0.0433*%
%ADD19R,0.0433X0.0394*%
%ADD20R,0.0512X0.0591*%
%ADD22R,0.0315X0.063*%
%ADD23R,0.0669X0.0669*%
%ADD24C,0.0669*%
%ADD25C,0.067*%
%FSLAX44Y44*%
G04*
G70*
G90*
G75*
G01*
%LNTop*%
%LPD*%
X11440Y5690D2*
D13*
Y6440D1*
X10190Y7190D2*
X7565Y9815D1*
Y11652D1*
X7405Y11812D1*
X7029D1*
Y12440D1*
X7405Y11812D2*
X7690Y12096D1*
Y12521D1*
X11440Y7190D2*
X10190D1*
X11440Y6440D2*
Y7190D1*
X10190Y11190D2*
D14*
X11940D1*
X12503Y11753D1*
X13940D1*
X15565Y13378D1*
X19440D1*
X20190Y12628D1*
Y11815D1*
X20003Y11628D1*
Y10940D1*
X20065Y10878D1*
X5304Y4910D2*
D13*
X5470D1*
X6003Y4377D1*
X11940D1*
X12190Y4627D1*
Y5688D1*
X12188Y5690D1*
Y6361D1*
X12109Y6440D1*
Y7190D1*
X13190D1*
X20192Y7440D2*
Y8107D1*
X20440Y8355D1*
X22609Y6690D2*
Y7440D1*
Y8186D1*
X22440Y8355D1*
X20440D2*
Y8377D1*
X21253Y9190D1*
Y9627D1*
X20866Y10014D1*
X21940Y12440D2*
Y11878D1*
X20502Y10440D1*
Y10378D1*
X20866Y10014D1*
X6359Y11690D2*
X6378D1*
X6628Y11940D1*
Y14065D1*
X6253Y14440D1*
X5334D1*
X5304Y14410D1*
X11690Y14190D2*
X12065D1*
X12128Y14128D1*
Y13815D1*
X12002Y13690D1*
X8940D1*
X8627Y14002D1*
Y14440D1*
X8690Y14503D1*
X35190Y10440D2*
D14*
Y6055D1*
X35030Y5895D1*
X25900D1*
X23440Y8355D1*
X11021Y14190D2*
X10190D1*
X10109Y14271D1*
X9440D1*
X13190Y10190D2*
X13940D1*
X10190Y9190D2*
X11190D1*
X7029Y13440D2*
Y13875D1*
X7530D1*
X7690Y13715D1*
Y13190D1*
X19404Y12255D2*
X19909D1*
Y11827D1*
X17517Y9436D1*
X17008D1*
X15762Y8190D1*
X14609D1*
Y9190D2*
Y9615D1*
X14534Y9690D1*
X12859D1*
X12615Y9935D1*
Y10445D1*
X12859Y10690D1*
X13326D1*
X14991Y12355D1*
X17475D1*
X17710Y12120D1*
X18760D1*
X19014Y11866D1*
X18764D1*
X14609Y10190D2*
Y11195D1*
X14769Y11355D1*
X18168D1*
X18288Y11476D1*
X18625D1*
X20476Y9625D2*
Y9288D1*
X20127Y8940D1*
X18002D1*
X17877Y8815D1*
Y7190D1*
X17440Y6752D1*
X14315D1*
X14252Y6690D1*
X11565Y7878D2*
X11753D1*
X12378Y8503D1*
Y10002D1*
X12190Y10190D1*
X11859D1*
Y9190D2*
Y9690D1*
X9038D1*
X8127Y10601D1*
Y15065D1*
X9793Y16730D1*
X17590D1*
X17750Y16570D1*
Y15835D1*
X17910Y15675D1*
X26735D1*
X26895Y15515D1*
Y9973D1*
X27055Y9813D1*
X29895D1*
X30055Y9653D1*
Y6434D1*
X29895Y6274D1*
X28055D1*
X27895Y6434D1*
Y8823D1*
X27735Y8983D1*
X21770D1*
X21610Y9143D1*
Y10404D1*
X21255D1*
X21610D2*
D3*
X10190Y15190D2*
X10690Y14690D1*
X13396D1*
X13731Y14355D1*
X17867D1*
X18112Y14109D1*
X20940D1*
Y13440D2*
X21467D1*
Y12913D1*
X29440Y8360D2*
Y7440D1*
X28440Y8355D2*
Y7440D1*
X4690Y12440D2*
D13*
X5180Y11950D1*
Y11690D1*
X5690D1*
Y12440D1*
Y11690D2*
Y11190D1*
X6690Y10190D1*
X13940Y8190D2*
D14*
X13190D1*
X13940Y9190D2*
X13190D1*
X12752Y8753D1*
Y7788D1*
X12850Y7690D1*
X13521D1*
X13765Y7445D1*
Y4286D1*
X13605Y4126D1*
X4286D1*
X4126Y4286D1*
Y8876D1*
X4690Y9440D1*
X10190Y10190D2*
X11190D1*
X4690Y13440D2*
X5145Y13895D1*
X5690D1*
Y13440D1*
X10190Y10190D2*
X9252D1*
X8565Y10877D1*
Y12565D1*
X13190Y15190D2*
X13605D1*
X13770Y15355D1*
X22184D1*
X22344Y15195D1*
Y9303D1*
X22504Y9143D1*
X28735D1*
X28895Y8983D1*
Y6931D1*
X29055Y6771D1*
X29440D1*
X10190Y16190D2*
X10690Y15690D1*
X14937D1*
X15112Y15515D1*
X26306D1*
X26466Y15355D1*
Y9623D1*
X26626Y9463D1*
X29735D1*
X29895Y9303D1*
Y6594D1*
X29735Y6434D1*
X28440D1*
Y6771D1*
X30940Y6440D2*
D13*
X32102Y7602D1*
Y16700D1*
X31424Y17378D1*
X9378D1*
X8340Y16340D1*
X4391D1*
X4161Y16110D1*
Y11160D1*
X4391Y10930D1*
X4950D1*
X6690Y9190D1*
X9440Y15753D2*
Y14940D1*
X21440Y8355D2*
X21940Y7855D1*
Y7440D1*
Y6690D2*
Y7440D1*
X21351D1*
X20940D1*
X4340Y17316D2*
D15*
X4792D1*
X5819D2*
X6561D1*
X7588D2*
X8811D1*
X31990D2*
X32292D1*
X33319D2*
X33952D1*
X35201D2*
X35542D1*
X4340Y17068D2*
X4686D1*
X5920D2*
X6460D1*
X7694D2*
X8276D1*
X33420D2*
X33952D1*
X35201D2*
X35542D1*
X4340Y16819D2*
X4698D1*
X5908D2*
X6472D1*
X7682D2*
X8058D1*
X9326D2*
X9425D1*
X29932D2*
X30894D1*
X33408D2*
X33952D1*
X35201D2*
X35542D1*
X30049Y16570D2*
X30565D1*
X33276D2*
X33952D1*
X35201D2*
X35542D1*
X10799Y16322D2*
X12581D1*
X13799D2*
X16452D1*
X30053D2*
X30452D1*
X32467D2*
X35542D1*
X10803Y16073D2*
X12577D1*
X13803D2*
X16433D1*
X29940D2*
X30433D1*
X32467D2*
X35542D1*
X4526Y15824D2*
X8429D1*
X15260D2*
X16507D1*
X27041D2*
X30507D1*
X32467D2*
X35542D1*
X4526Y15575D2*
X8183D1*
X27217D2*
X30718D1*
X31619D2*
X31738D1*
X32467D2*
X35542D1*
X4526Y15327D2*
X7933D1*
X8846D2*
X8952D1*
X10799D2*
X12581D1*
X27225D2*
X31737D1*
X32467D2*
X35542D1*
X4526Y15078D2*
X7800D1*
X10803D2*
X12577D1*
X22674D2*
X26136D1*
X27225D2*
X28026D1*
X32467D2*
X35542D1*
X4526Y14829D2*
X4851D1*
X5760D2*
X6620D1*
X7529D2*
X7796D1*
X13713D2*
X16218D1*
X17459D2*
X22015D1*
X22674D2*
X26136D1*
X27225D2*
X27968D1*
X33260D2*
X34120D1*
X35029D2*
X35542D1*
X4526Y14581D2*
X4706D1*
X5904D2*
X6476D1*
X7674D2*
X7796D1*
X18096D2*
X20452D1*
X21428D2*
X22015D1*
X22674D2*
X26136D1*
X27225D2*
X27968D1*
X33404D2*
X33976D1*
X35174D2*
X35542D1*
X4526Y14332D2*
X4686D1*
X5924D2*
X6456D1*
X7694D2*
X7796D1*
X12197D2*
X12581D1*
X21428D2*
X22015D1*
X22674D2*
X26136D1*
X27225D2*
X27968D1*
X33424D2*
X33956D1*
X35194D2*
X35542D1*
X4526Y14083D2*
X4776D1*
X5955D2*
X6550D1*
X12197D2*
X12573D1*
X21428D2*
X22015D1*
X22674D2*
X26136D1*
X27225D2*
X27968D1*
X33330D2*
X34050D1*
X35104D2*
X35542D1*
X6139Y13835D2*
X6581D1*
X8459D2*
X8952D1*
X12197D2*
X12683D1*
X13697D2*
X16218D1*
X17463D2*
X17956D1*
X21428D2*
X22015D1*
X22674D2*
X26136D1*
X27225D2*
X27968D1*
X32467D2*
X32615D1*
X32994D2*
X34386D1*
X34768D2*
X35542D1*
X6139Y13586D2*
X6581D1*
X8459D2*
X9714D1*
X10666D2*
X12714D1*
X13666D2*
X15315D1*
X19690D2*
X20452D1*
X21760D2*
X22015D1*
X22674D2*
X26136D1*
X27225D2*
X27968D1*
X32467D2*
X35542D1*
X6139Y13337D2*
X6581D1*
X8459D2*
X9585D1*
X10795D2*
X12585D1*
X13795D2*
X15069D1*
X19936D2*
X20452D1*
X21795D2*
X22015D1*
X22674D2*
X26136D1*
X27225D2*
X27968D1*
X32467D2*
X35542D1*
X6139Y13089D2*
X6581D1*
X8881D2*
X9573D1*
X10807D2*
X12573D1*
X13807D2*
X14819D1*
X20186D2*
X20452D1*
X22674D2*
X26136D1*
X27225D2*
X27968D1*
X32467D2*
X35542D1*
X6139Y12840D2*
X6581D1*
X9123D2*
X9679D1*
X10701D2*
X12679D1*
X13701D2*
X14573D1*
X15483D2*
X16218D1*
X17463D2*
X19073D1*
X20432D2*
X20890D1*
X22674D2*
X26136D1*
X27225D2*
X27968D1*
X32467D2*
X35542D1*
X6139Y12591D2*
X6581D1*
X9190D2*
X9718D1*
X10662D2*
X12718D1*
X13662D2*
X14323D1*
X17694D2*
X18827D1*
X20522D2*
X20638D1*
X22674D2*
X26136D1*
X27225D2*
X27968D1*
X32467D2*
X35542D1*
X6139Y12343D2*
X6581D1*
X9147D2*
X9585D1*
X10795D2*
X12585D1*
X13795D2*
X14073D1*
X22674D2*
X26136D1*
X27225D2*
X27968D1*
X32467D2*
X35542D1*
X8963Y12094D2*
X9573D1*
X10807D2*
X12573D1*
X22674D2*
X26136D1*
X27225D2*
X27968D1*
X32467D2*
X35542D1*
X8897Y11845D2*
X9675D1*
X10705D2*
X12140D1*
X14940D2*
X16218D1*
X17463D2*
X17554D1*
X21803D2*
X22015D1*
X22674D2*
X26136D1*
X27225D2*
X27968D1*
X32467D2*
X34722D1*
X8897Y11596D2*
X9726D1*
X10654D2*
X11890D1*
X21553D2*
X22015D1*
X22674D2*
X26136D1*
X27225D2*
X27968D1*
X32467D2*
X34585D1*
X6865Y11348D2*
X7202D1*
X8897D2*
X9585D1*
X21303D2*
X22015D1*
X22674D2*
X26136D1*
X27225D2*
X27968D1*
X32467D2*
X34573D1*
X6287Y11099D2*
X7202D1*
X8897D2*
X9573D1*
X12307D2*
X12573D1*
X14194D2*
X14279D1*
X20678D2*
X22015D1*
X22674D2*
X26136D1*
X27225D2*
X27968D1*
X32467D2*
X34671D1*
X6533Y10850D2*
X7202D1*
X9049D2*
X9671D1*
X10709D2*
X12565D1*
X13944D2*
X14280D1*
X14940D2*
X16218D1*
X17463D2*
X18476D1*
X20690D2*
X20788D1*
X21514D2*
X22015D1*
X22674D2*
X26136D1*
X27225D2*
X27968D1*
X32467D2*
X34565D1*
X9295Y10602D2*
X9729D1*
X15115D2*
X16296D1*
X17385D2*
X18226D1*
X21865D2*
X22015D1*
X22674D2*
X26136D1*
X27225D2*
X27968D1*
X32467D2*
X34565D1*
X15115Y10353D2*
X16421D1*
X17260D2*
X17979D1*
X22674D2*
X26136D1*
X27225D2*
X27968D1*
X32467D2*
X34565D1*
X7932Y10104D2*
X8167D1*
X15115D2*
X16253D1*
X17428D2*
X17729D1*
X19795D2*
X20042D1*
X22674D2*
X26136D1*
X32467D2*
X34565D1*
X5147Y9856D2*
X5519D1*
X8029D2*
X8417D1*
X15115D2*
X16218D1*
X19623D2*
X19808D1*
X22674D2*
X26136D1*
X32467D2*
X34565D1*
X5291Y9607D2*
X5769D1*
X8279D2*
X8667D1*
X15115D2*
X16292D1*
X19565D2*
X19804D1*
X22674D2*
X26136D1*
X30385D2*
X31737D1*
X32467D2*
X34858D1*
X5311Y9358D2*
X6015D1*
X7315D2*
X7515D1*
X8526D2*
X9589D1*
X15115D2*
X16476D1*
X17897D2*
X18311D1*
X19315D2*
X20038D1*
X21119D2*
X21280D1*
X30385D2*
X31050D1*
X31291D2*
X31737D1*
X32467D2*
X34858D1*
X5217Y9110D2*
X6065D1*
X7315D2*
X7765D1*
X8776D2*
X9569D1*
X15115D2*
X16226D1*
X20877D2*
X21280D1*
X29197D2*
X29565D1*
X30385D2*
X30597D1*
X32467D2*
X34858D1*
X5143Y8861D2*
X6065D1*
X7315D2*
X8015D1*
X9026D2*
X9663D1*
X15115D2*
X15976D1*
X20787D2*
X21093D1*
X32467D2*
X34858D1*
X5291Y8612D2*
X6065D1*
X7315D2*
X8261D1*
X9272D2*
X9737D1*
X10643D2*
X12030D1*
X15115D2*
X15729D1*
X32467D2*
X34858D1*
X5311Y8364D2*
X8511D1*
X10787D2*
X11186D1*
X16393D2*
X16488D1*
X30385D2*
X30492D1*
X32467D2*
X34858D1*
X5217Y8115D2*
X8761D1*
X10811D2*
X10987D1*
X16143D2*
X16671D1*
X30385D2*
X30671D1*
X32467D2*
X34858D1*
X5779Y7866D2*
X6601D1*
X7549D2*
X9007D1*
X10721D2*
X10940D1*
X12197D2*
X12421D1*
X15115D2*
X17546D1*
X18815D2*
X19065D1*
X24815D2*
X25065D1*
X25815D2*
X26065D1*
X26815D2*
X27065D1*
X30385D2*
X31737D1*
X33279D2*
X33952D1*
X4455Y7617D2*
X4698D1*
X5908D2*
X6472D1*
X7682D2*
X9257D1*
X10635D2*
X10933D1*
X14041D2*
X17546D1*
X18209D2*
X19647D1*
X23115D2*
X23722D1*
X24635D2*
X27565D1*
X30385D2*
X31612D1*
X33408D2*
X33952D1*
X4455Y7369D2*
X4686D1*
X5920D2*
X6460D1*
X7694D2*
X9507D1*
X14096D2*
X17546D1*
X18209D2*
X19647D1*
X23115D2*
X23972D1*
X24881D2*
X27565D1*
X30385D2*
X31362D1*
X33420D2*
X33952D1*
X4455Y7120D2*
X4792D1*
X5815D2*
X6565D1*
X7588D2*
X9569D1*
X14697D2*
X17351D1*
X18197D2*
X19647D1*
X23115D2*
X24218D1*
X25131D2*
X27565D1*
X30385D2*
X31116D1*
X32127D2*
X32292D1*
X33315D2*
X33952D1*
X4455Y6871D2*
X5237D1*
X5368D2*
X7011D1*
X7140D2*
X9655D1*
X18014D2*
X21433D1*
X23115D2*
X24468D1*
X25381D2*
X27565D1*
X31877D2*
X32737D1*
X32868D2*
X33952D1*
X4455Y6623D2*
X9972D1*
X10408D2*
X10933D1*
X12615D2*
X12972D1*
X17768D2*
X21433D1*
X23115D2*
X24718D1*
X25627D2*
X27565D1*
X31627D2*
X34858D1*
X4455Y6374D2*
X10933D1*
X12615D2*
X13436D1*
X14787D2*
X21433D1*
X23115D2*
X24964D1*
X25877D2*
X27569D1*
X31565D2*
X34858D1*
X4455Y6125D2*
X10894D1*
X12733D2*
X13436D1*
X14479D2*
X25214D1*
X4455Y5877D2*
X10894D1*
X12733D2*
X13436D1*
X14096D2*
X25464D1*
X35463D2*
X35542D1*
X4455Y5628D2*
X10894D1*
X12733D2*
X13436D1*
X14096D2*
X25729D1*
X35201D2*
X35542D1*
X4455Y5379D2*
X4679D1*
X5928D2*
X6679D1*
X7475D2*
X10894D1*
X12733D2*
X13436D1*
X14096D2*
X30319D1*
X31561D2*
X32405D1*
X33201D2*
X34179D1*
X34975D2*
X35542D1*
X4455Y5131D2*
X4679D1*
X5928D2*
X6495D1*
X7658D2*
X10894D1*
X12733D2*
X13436D1*
X14096D2*
X30401D1*
X31479D2*
X32222D1*
X33385D2*
X33995D1*
X35158D2*
X35542D1*
X4455Y4882D2*
X4679D1*
X5928D2*
X6452D1*
X7701D2*
X13436D1*
X14096D2*
X30694D1*
X31186D2*
X32179D1*
X33428D2*
X33952D1*
X35201D2*
X35542D1*
X4455Y4633D2*
X4679D1*
X5928D2*
X6519D1*
X7631D2*
X13436D1*
X14096D2*
X32249D1*
X33361D2*
X34019D1*
X35131D2*
X35542D1*
X14096Y4385D2*
X32491D1*
X33115D2*
X34265D1*
X34889D2*
X35542D1*
X18894Y12636D2*
X19112Y12853D1*
X19218Y12918D1*
X19341Y12928D1*
X19458Y12877D1*
X19783Y12558D1*
X19798Y12589D1*
X19314Y13072D1*
X17413Y13073D1*
X17440Y12920D1*
X17427Y12776D1*
X17390Y12661D1*
X17475Y12660D1*
X17599Y12633D1*
X17690Y12571D1*
X17837Y12424D1*
X18682Y12425D1*
X18894Y12636D1*
X18533Y10886D2*
X18323Y11096D1*
X18290Y11075D1*
X18168Y11050D1*
X17421D1*
X17440Y10900D1*
X17427Y10776D1*
X17389Y10657D1*
X17327Y10549D1*
X17243Y10456D1*
X17171Y10403D1*
X17228Y10357D1*
X17315Y10267D1*
X17380Y10161D1*
X17423Y10044D1*
X17440Y9900D1*
X17427Y9780D1*
X18536Y10886D1*
X19966Y10005D2*
X20232Y10261D1*
X20276Y10314D1*
X20132Y10281D1*
X20008Y10280D1*
X19875Y10310D1*
X19818Y10173D1*
X19741Y10074D1*
X19642Y10000D1*
X19544Y9961D1*
X19578Y9905D1*
X19606Y9784D1*
X19577Y9664D1*
X19529Y9597D1*
X19182Y9252D1*
X19377Y9245D1*
X19999D1*
X20039Y9380D1*
X19878Y9542D1*
X19813Y9647D1*
X19804Y9771D1*
X19854Y9888D1*
X19966Y10005D1*
X20897Y9156D2*
X20768Y9027D1*
X20658Y8962D1*
X20700Y8978D1*
X20562Y8943D1*
X20681Y8905D1*
X20789Y8843D1*
X20882Y8760D1*
X20940Y8687D1*
X21029Y8792D1*
X21129Y8868D1*
X21241Y8921D1*
X21374Y8950D1*
X21316Y9060D1*
X21305Y9143D1*
Y9563D1*
X21111Y9379D1*
X20985Y9244D1*
X20897Y9156D1*
X20746Y10784D2*
X20964Y11002D1*
X21069Y11067D1*
X21193Y11076D1*
X21310Y11026D1*
X21634Y10707D1*
X21672Y10703D1*
X21786Y10653D1*
X21871Y10562D1*
X21912Y10445D1*
X21928Y10258D1*
X21930Y10295D1*
X22039Y10303D1*
X22036Y11896D1*
X21962Y11883D1*
X21888Y11891D1*
X21852Y11903D1*
X21812Y11880D1*
X21283Y11351D1*
X21177Y11286D1*
X21054Y11277D1*
X20937Y11327D1*
X20872Y11387D1*
X20863Y11346D1*
X20808Y11234D1*
X20723Y11143D1*
X20624Y11088D1*
X20648Y11021D1*
X20665Y10878D1*
X20652Y10753D1*
X20620Y10649D1*
X20746Y10784D1*
X20498Y12429D2*
X20883Y12814D1*
X20910Y12932D1*
X20902Y12958D1*
X20478D1*
Y13806D1*
X18112Y13804D1*
X17988Y13832D1*
X17897Y13894D1*
X17739Y14051D1*
X17417Y14050D1*
X17440Y13920D1*
X17427Y13776D1*
X17397Y13683D1*
X19440D1*
X19565Y13655D1*
X19656Y13593D1*
X20406Y12843D1*
X20474Y12736D1*
X20495Y12628D1*
Y12428D1*
X20784Y12714D1*
X18451Y9242D2*
X18103Y9590D1*
X17706Y9197D1*
X17787Y9156D1*
X17884Y9221D1*
X18002Y9245D1*
X18452D1*
X6114Y12152D2*
X6172Y12148D1*
X6253Y12152D1*
X6607D1*
X6610Y13020D1*
X6606Y13110D1*
Y14020D1*
X6618D1*
X6531Y14160D1*
X6491Y14278D1*
X6476Y14402D1*
X6487Y14526D1*
X6524Y14645D1*
X6585Y14754D1*
X6666Y14849D1*
X6766Y14924D1*
X6879Y14977D1*
X7000Y15005D1*
X7125Y15008D1*
X7248Y14985D1*
X7363Y14937D1*
X7466Y14866D1*
X7551Y14776D1*
X7617Y14669D1*
X7659Y14552D1*
X7675Y14410D1*
X7662Y14286D1*
X7622Y14164D1*
X7680Y14141D1*
X7746Y14091D1*
X7820Y14016D1*
X7822Y15065D1*
X7850Y15190D1*
X7912Y15281D1*
X8600Y15968D1*
X8448Y15993D1*
X8407Y16007D1*
X8215Y16000D1*
X4531D1*
X4501Y15860D1*
Y14043D1*
X4836Y14040D1*
X4782Y14115D1*
X4732Y14230D1*
X4707Y14352D1*
X4708Y14476D1*
X4735Y14598D1*
X4786Y14712D1*
X4860Y14813D1*
X4953Y14896D1*
X5061Y14958D1*
X5179Y14997D1*
X5303Y15010D1*
X5428Y14997D1*
X5546Y14959D1*
X5655Y14897D1*
X5748Y14814D1*
X5822Y14714D1*
X5873Y14600D1*
X5900Y14478D1*
X5902Y14361D1*
X5878Y14238D1*
X5847Y14156D1*
X5928Y14084D1*
X6018Y14020D1*
X6112D1*
X6109Y12860D1*
X6112Y12770D1*
Y12149D1*
X6178Y12152D1*
X6172Y11230D2*
X6132Y11228D1*
X6580Y10781D1*
X6739Y10788D1*
X6862Y10765D1*
X6977Y10717D1*
X7080Y10646D1*
X7166Y10555D1*
X7225Y10459D1*
Y11475D1*
X7029Y11472D1*
X6903Y11497D1*
X6935Y11486D1*
X6841Y11477D1*
Y11228D1*
X6141D1*
X11961Y5133D2*
X11711Y5130D1*
X10919D1*
Y6250D1*
X10962D1*
X10958Y6849D1*
X10686Y6850D1*
X10593Y6746D1*
X10493Y6672D1*
X10379Y6621D1*
X10257Y6594D1*
X10133Y6593D1*
X10010Y6618D1*
X9896Y6667D1*
X9794Y6739D1*
X9709Y6831D1*
X9645Y6938D1*
X9605Y7056D1*
X9590Y7180D1*
X9596Y7303D1*
X7323Y9577D1*
X7290Y9540D1*
Y8590D1*
X6090D1*
Y9305D1*
X5226Y10173D1*
X5176Y10089D1*
X5093Y9996D1*
X5021Y9943D1*
X5080Y9896D1*
X5166Y9805D1*
X5231Y9699D1*
X5273Y9581D1*
X5290Y9440D1*
X5277Y9316D1*
X5238Y9197D1*
X5176Y9089D1*
X5093Y8996D1*
X5021Y8943D1*
X5080Y8896D1*
X5166Y8805D1*
X5231Y8699D1*
X5273Y8581D1*
X5290Y8440D1*
X5277Y8316D1*
X5238Y8197D1*
X5176Y8089D1*
X5137Y8045D1*
X5229Y8064D1*
X5353Y8067D1*
X5476Y8044D1*
X5591Y7996D1*
X5694Y7925D1*
X5780Y7835D1*
X5845Y7728D1*
X5887Y7611D1*
X5904Y7470D1*
X5891Y7345D1*
X5852Y7227D1*
X5790Y7118D1*
X5707Y7025D1*
X5607Y6952D1*
X5493Y6900D1*
X5371Y6874D1*
X5246Y6873D1*
X5124Y6898D1*
X5009Y6947D1*
X4908Y7020D1*
X4823Y7111D1*
X4760Y7219D1*
X4719Y7337D1*
X4705Y7461D1*
X4716Y7585D1*
X4752Y7704D1*
X4813Y7813D1*
X4856Y7863D1*
X4757Y7844D1*
X4632Y7843D1*
X4510Y7868D1*
X4427Y7904D1*
X4431Y7376D1*
Y4434D1*
X4704Y4431D1*
X4705Y5510D1*
X5904D1*
Y4431D1*
X6719D1*
X6679Y4461D1*
X6595Y4552D1*
X6531Y4660D1*
X6491Y4778D1*
X6476Y4902D1*
X6487Y5026D1*
X6524Y5145D1*
X6585Y5254D1*
X6666Y5349D1*
X6766Y5424D1*
X6879Y5477D1*
X7000Y5505D1*
X7125Y5508D1*
X7248Y5485D1*
X7363Y5437D1*
X7466Y5366D1*
X7551Y5276D1*
X7617Y5169D1*
X7659Y5052D1*
X7675Y4910D1*
X7662Y4786D1*
X7624Y4668D1*
X7562Y4559D1*
X7479Y4466D1*
X7432Y4432D1*
X13461Y4431D1*
X13460Y6657D1*
X13379Y6621D1*
X13257Y6594D1*
X13133Y6593D1*
X13010Y6618D1*
X12896Y6667D1*
X12794Y6739D1*
X12709Y6831D1*
X12645Y6938D1*
X12605Y7056D1*
X12591Y7152D1*
X12592Y6250D1*
X12709D1*
Y5130D1*
X11667Y5131D1*
X10958Y7529D2*
Y7652D1*
X11009D1*
X10980Y7744D1*
X10965Y7868D1*
X10976Y7992D1*
X11012Y8111D1*
X11073Y8220D1*
X11154Y8315D1*
X11254Y8390D1*
X11366Y8444D1*
X11488Y8473D1*
X11613Y8476D1*
X11735Y8453D1*
X11847Y8407D1*
X12070Y8626D1*
X11966Y8728D1*
X11378Y8732D1*
X11297Y8728D1*
X10708D1*
Y8888D1*
X10593Y8746D1*
X10521Y8693D1*
X10578Y8647D1*
X10665Y8557D1*
X10730Y8451D1*
X10773Y8334D1*
X10790Y8190D1*
X10777Y8066D1*
X10739Y7947D1*
X10677Y7839D1*
X10593Y7746D1*
X10521Y7693D1*
X10578Y7647D1*
X10683Y7527D1*
X10960Y7530D1*
X12121Y7652D2*
X12480D1*
X12459Y7705D1*
X12447Y7788D1*
Y8143D1*
X12165Y7859D1*
X12152Y7753D1*
X12120Y7653D1*
X22422Y6230D2*
X21458Y6228D1*
X21457Y6880D1*
X20419Y6884D1*
X20338Y6880D1*
X19671D1*
Y7801D1*
X19557Y7766D1*
X19432Y7755D1*
X19309Y7770D1*
X19190Y7809D1*
X19083Y7873D1*
X18991Y7957D1*
X18940Y8023D1*
X18862Y7928D1*
X18764Y7850D1*
X18653Y7794D1*
X18532Y7762D1*
X18407Y7756D1*
X18284Y7776D1*
X18183Y7813D1*
X18182Y7190D1*
X18155Y7065D1*
X18093Y6974D1*
X17656Y6537D1*
X17548Y6468D1*
X17440Y6447D1*
X14801D1*
X14739Y6339D1*
X14656Y6246D1*
X14555Y6172D1*
X14442Y6121D1*
X14320Y6094D1*
X14195Y6093D1*
X14069Y6119D1*
X14070Y4315D1*
X32733D1*
X32624Y4339D1*
X32509Y4388D1*
X32408Y4461D1*
X32323Y4552D1*
X32260Y4660D1*
X32219Y4778D1*
X32205Y4902D1*
X32216Y5026D1*
X32252Y5145D1*
X32313Y5254D1*
X32395Y5349D1*
X32494Y5424D1*
X32607Y5477D1*
X32729Y5505D1*
X32853Y5508D1*
X32976Y5485D1*
X33091Y5437D1*
X33194Y5366D1*
X33280Y5276D1*
X33345Y5169D1*
X33387Y5052D1*
X33404Y4910D1*
X33391Y4786D1*
X33352Y4668D1*
X33290Y4559D1*
X33207Y4466D1*
X33107Y4393D1*
X32993Y4341D1*
X32875Y4315D1*
X34506D1*
X34396Y4339D1*
X34281Y4388D1*
X34179Y4461D1*
X34095Y4552D1*
X34031Y4660D1*
X33991Y4778D1*
X33976Y4902D1*
X33987Y5026D1*
X34024Y5145D1*
X34085Y5254D1*
X34166Y5349D1*
X34266Y5424D1*
X34379Y5477D1*
X34500Y5505D1*
X34625Y5508D1*
X34748Y5485D1*
X34863Y5437D1*
X34966Y5366D1*
X35051Y5276D1*
X35117Y5169D1*
X35159Y5052D1*
X35175Y4910D1*
X35162Y4786D1*
X35124Y4668D1*
X35062Y4559D1*
X34979Y4466D1*
X34878Y4393D1*
X34764Y4341D1*
X34646Y4315D1*
X35565D1*
Y9842D1*
X35497Y9840D1*
X35495Y6055D1*
X35468Y5930D1*
X35406Y5839D1*
X35246Y5679D1*
X35138Y5610D1*
X35030Y5590D1*
X31518D1*
X31536Y5508D1*
X31538Y5390D1*
X31514Y5267D1*
X31466Y5152D1*
X31395Y5050D1*
X31305Y4964D1*
X31198Y4899D1*
X31081Y4857D1*
X30957Y4841D1*
X30833Y4850D1*
X30713Y4885D1*
X30603Y4944D1*
X30508Y5025D1*
X30431Y5123D1*
X30376Y5235D1*
X30346Y5356D1*
X30342Y5481D1*
X30359Y5590D1*
X25900D1*
X25776Y5617D1*
X25685Y5679D1*
X23588Y7775D1*
X23507Y7759D1*
X23383Y7758D1*
X23260Y7783D1*
X23146Y7832D1*
X23044Y7904D1*
X22941Y8026D1*
X22862Y7928D1*
X22833Y7902D1*
X23047D1*
X23091Y7867D1*
Y6228D1*
X22128Y6229D1*
X21770Y13263D2*
X21948Y13083D1*
X22016Y12982D1*
X22028Y12977D1*
X22039Y13053D1*
Y15049D1*
X17423Y15050D1*
X17440Y14900D1*
X17427Y14776D1*
X17390Y14661D1*
X17867Y14660D1*
X17991Y14633D1*
X18082Y14571D1*
X18240Y14413D1*
X20476Y14414D1*
X20478Y14591D1*
X21402D1*
Y13743D1*
X21467Y13745D1*
X21588Y13720D1*
X21690Y13648D1*
X21760Y13522D1*
X21772Y13440D1*
Y13264D1*
X30360Y7040D2*
X31055D1*
X31763Y7744D1*
X31762Y8246D1*
X31629Y8102D1*
X31526Y8030D1*
X31413Y7978D1*
X31293Y7946D1*
X31168Y7935D1*
X31044Y7946D1*
X30923Y7979D1*
X30810Y8032D1*
X30708Y8104D1*
X30620Y8193D1*
X30549Y8295D1*
X30497Y8409D1*
X30465Y8529D1*
X30455Y8654D1*
X30467Y8778D1*
X30500Y8898D1*
X30553Y9011D1*
X30625Y9113D1*
X30714Y9201D1*
X30817Y9272D1*
X30930Y9324D1*
X31051Y9355D1*
X31176Y9365D1*
X31300Y9353D1*
X31420Y9320D1*
X31533Y9266D1*
X31635Y9194D1*
X31722Y9104D1*
X31760Y9050D1*
X31762Y9746D1*
X30440Y9743D1*
X30350D1*
X30360Y9653D1*
Y7040D1*
X31540Y6559D2*
Y6200D1*
X34889D1*
X34885Y6871D1*
X33976Y6870D1*
Y8069D1*
X34885D1*
Y9840D1*
X34590D1*
Y11040D1*
X34741Y11043D1*
X34668Y11145D1*
X34618Y11259D1*
X34593Y11381D1*
X34594Y11506D1*
X34621Y11628D1*
X34672Y11742D1*
X34745Y11842D1*
X34838Y11926D1*
X34946Y11988D1*
X35065Y12027D1*
X35189Y12040D1*
X35313Y12027D1*
X35432Y11989D1*
X35540Y11927D1*
X35565Y11908D1*
Y17565D1*
X35178D1*
X35175Y17269D1*
Y16370D1*
X33976D1*
Y17565D1*
X32874D1*
X32976Y17544D1*
X33091Y17496D1*
X33194Y17425D1*
X33280Y17335D1*
X33345Y17228D1*
X33387Y17111D1*
X33404Y16970D1*
X33391Y16845D1*
X33352Y16727D1*
X33290Y16618D1*
X33207Y16525D1*
X33107Y16452D1*
X32993Y16400D1*
X32871Y16374D1*
X32746Y16373D1*
X32624Y16398D1*
X32509Y16447D1*
X32443Y16495D1*
X32442Y14891D1*
X32607Y14977D1*
X32729Y15005D1*
X32853Y15008D1*
X32976Y14985D1*
X33091Y14937D1*
X33194Y14866D1*
X33280Y14776D1*
X33345Y14669D1*
X33387Y14552D1*
X33404Y14410D1*
X33391Y14286D1*
X33352Y14168D1*
X33290Y14059D1*
X33207Y13966D1*
X33107Y13893D1*
X32993Y13841D1*
X32871Y13815D1*
X32746Y13814D1*
X32624Y13839D1*
X32509Y13888D1*
X32443Y13936D1*
X32442Y7946D1*
X32494Y7983D1*
X32607Y8036D1*
X32729Y8064D1*
X32853Y8067D1*
X32976Y8044D1*
X33091Y7996D1*
X33194Y7925D1*
X33280Y7835D1*
X33345Y7728D1*
X33387Y7611D1*
X33404Y7470D1*
X33391Y7345D1*
X33352Y7227D1*
X33290Y7118D1*
X33207Y7025D1*
X33107Y6952D1*
X32993Y6900D1*
X32871Y6874D1*
X32746Y6873D1*
X32624Y6898D1*
X32509Y6947D1*
X32408Y7020D1*
X32323Y7111D1*
X32260Y7219D1*
X32243Y7267D1*
X31538Y6557D1*
X29203Y8960D2*
X29594D1*
X29590Y9161D1*
X29145Y9158D1*
X29189Y9065D1*
X29200Y8963D1*
X27587Y7776D2*
X27507Y7759D1*
X27383Y7758D1*
X27260Y7783D1*
X27146Y7832D1*
X27044Y7904D1*
X26941Y8026D1*
X26843Y7911D1*
X26743Y7837D1*
X26629Y7786D1*
X26507Y7759D1*
X26383Y7758D1*
X26260Y7783D1*
X26146Y7832D1*
X26044Y7904D1*
X25941Y8026D1*
X25843Y7911D1*
X25743Y7837D1*
X25629Y7786D1*
X25507Y7759D1*
X25383Y7758D1*
X25260Y7783D1*
X25146Y7832D1*
X25044Y7904D1*
X24941Y8026D1*
X24843Y7911D1*
X24743Y7837D1*
X24629Y7786D1*
X24507Y7759D1*
X24464Y7758D1*
X25954Y6273D1*
X26028Y6198D1*
X27701Y6200D1*
X27679Y6219D1*
X27611Y6326D1*
X27590Y6434D1*
Y7774D1*
X16530Y9388D2*
X16444Y9449D1*
X16359Y9541D1*
X16295Y9648D1*
X16255Y9766D1*
X16240Y9890D1*
X16251Y10014D1*
X16287Y10134D1*
X16348Y10243D1*
X16429Y10337D1*
X16513Y10401D1*
X16444Y10449D1*
X16359Y10541D1*
X16295Y10648D1*
X16255Y10766D1*
X16240Y10890D1*
X16261Y11048D1*
X14914Y11050D1*
Y10652D1*
X15091D1*
Y9728D1*
X14892D1*
X14903Y9694D1*
X15003Y9652D1*
X15091D1*
Y8728D1*
X14128Y8732D1*
X14047Y8728D1*
X13574D1*
X13583Y8652D1*
X14422Y8648D1*
X14503Y8652D1*
X15091D1*
Y8492D1*
X15484Y8495D1*
X15637D1*
X16527Y9386D1*
X17427Y11776D2*
X17394Y11660D1*
X17961D1*
X17978Y11701D1*
X18074Y11815D1*
X18037Y11776D1*
X18010Y11815D1*
X17710D1*
X17585Y11843D1*
X17494Y11904D1*
X17436Y11962D1*
X17440Y11900D1*
X17427Y11776D1*
X16292Y11659D2*
X16255Y11766D1*
X16240Y11890D1*
X16261Y12048D1*
X15119Y12050D1*
X14724Y11656D1*
X15144Y11660D1*
X16289D1*
X16292Y12659D2*
X16255Y12766D1*
X16240Y12890D1*
X16251Y13014D1*
X16268Y13070D1*
X15694Y13073D1*
X15281Y12662D1*
X16292Y12660D1*
X16284Y13681D2*
X16255Y13766D1*
X16240Y13890D1*
X16261Y14048D1*
X14617Y14050D1*
X13777D1*
X13739Y13947D1*
X13677Y13839D1*
X13593Y13746D1*
X13521Y13693D1*
X13578Y13647D1*
X13665Y13557D1*
X13730Y13451D1*
X13773Y13334D1*
X13790Y13190D1*
X13777Y13066D1*
X13739Y12947D1*
X13677Y12839D1*
X13593Y12746D1*
X13521Y12693D1*
X13578Y12647D1*
X13665Y12557D1*
X13730Y12451D1*
X13773Y12334D1*
X13790Y12190D1*
X13773Y12055D1*
X13901Y12145D1*
X15349Y13593D1*
X15457Y13662D1*
X15565Y13683D1*
X16280D1*
X16292Y14659D2*
X16255Y14766D1*
X16240Y14890D1*
X16261Y15048D1*
X13899Y15050D1*
X13794Y14952D1*
X13700Y14817D1*
X13858Y14660D1*
X16290D1*
X17574Y8064D2*
X17526Y8030D1*
X17413Y7978D1*
X17293Y7946D1*
X17168Y7935D1*
X17044Y7946D1*
X16923Y7979D1*
X16810Y8032D1*
X16708Y8104D1*
X16620Y8193D1*
X16549Y8295D1*
X16497Y8409D1*
X16480Y8473D1*
X15978Y7974D1*
X15870Y7906D1*
X15762Y7885D1*
X15094D1*
X15091Y7728D1*
X14128Y7732D1*
X14047Y7728D1*
X13910D1*
X13981Y7661D1*
X14050Y7553D1*
X14070Y7445D1*
Y7262D1*
X14175Y7285D1*
X14300Y7288D1*
X14423Y7265D1*
X14538Y7218D1*
X14641Y7147D1*
X14724Y7060D1*
X16940Y7057D1*
X17311D1*
X17575Y7319D1*
X17572Y8061D1*
X16538Y15820D2*
X16497Y15909D1*
X16465Y16029D1*
X16455Y16154D1*
X16467Y16278D1*
X16511Y16423D1*
X13742Y16425D1*
X13773Y16334D1*
X13790Y16190D1*
X13777Y16066D1*
X13754Y15995D1*
X14937D1*
X15062Y15968D1*
X15153Y15906D1*
X15239Y15820D1*
X16538D1*
X8978Y15373D2*
X8933Y15437D1*
X8588Y15094D1*
X8713Y15102D1*
X8836Y15084D1*
X8953Y15042D1*
X8979Y15028D1*
X8978Y15369D1*
X8040Y16683D2*
X8075Y16799D1*
X8135Y16908D1*
X8217Y17002D1*
X8316Y17078D1*
X8429Y17131D1*
X8550Y17160D1*
X8679Y17162D1*
X9086Y17567D1*
X7147Y17565D1*
X7248Y17544D1*
X7363Y17496D1*
X7466Y17425D1*
X7551Y17335D1*
X7617Y17228D1*
X7659Y17111D1*
X7675Y16970D1*
X7662Y16845D1*
X7624Y16727D1*
X7599Y16683D1*
X8035Y16680D1*
X8979Y13977D2*
X8879Y13933D1*
X8757Y13906D1*
X8633Y13905D1*
X8510Y13930D1*
X8433Y13961D1*
X8432Y13147D1*
X8488Y13160D1*
X8613Y13163D1*
X8735Y13140D1*
X8851Y13093D1*
X8953Y13022D1*
X9040Y12932D1*
X9105Y12826D1*
X9148Y12709D1*
X9165Y12565D1*
X9152Y12441D1*
X9114Y12322D1*
X9052Y12214D1*
X8968Y12121D1*
X8871Y12049D1*
X8870Y11006D1*
X9380Y10494D1*
X9670Y10495D1*
X9779Y10627D1*
X9863Y10691D1*
X9794Y10739D1*
X9709Y10831D1*
X9645Y10938D1*
X9605Y11056D1*
X9590Y11180D1*
X9601Y11304D1*
X9637Y11424D1*
X9698Y11533D1*
X9779Y11627D1*
X9863Y11691D1*
X9794Y11739D1*
X9709Y11831D1*
X9645Y11938D1*
X9605Y12056D1*
X9590Y12180D1*
X9601Y12304D1*
X9637Y12424D1*
X9698Y12533D1*
X9779Y12627D1*
X9863Y12691D1*
X9794Y12739D1*
X9709Y12831D1*
X9645Y12938D1*
X9605Y13056D1*
X9590Y13180D1*
X9601Y13304D1*
X9637Y13424D1*
X9698Y13533D1*
X9779Y13627D1*
X9863Y13691D1*
X9794Y13739D1*
X9749Y13788D1*
X8978Y13789D1*
Y13973D1*
X12172Y14385D2*
Y13728D1*
X10575D1*
X10578Y13647D1*
X10665Y13557D1*
X10730Y13451D1*
X10773Y13334D1*
X10790Y13190D1*
X10777Y13066D1*
X10739Y12947D1*
X10677Y12839D1*
X10593Y12746D1*
X10521Y12693D1*
X10578Y12647D1*
X10665Y12557D1*
X10730Y12451D1*
X10773Y12334D1*
X10790Y12190D1*
X10777Y12066D1*
X10739Y11947D1*
X10677Y11839D1*
X10593Y11746D1*
X10521Y11693D1*
X10578Y11647D1*
X10665Y11557D1*
X10704Y11494D1*
X11811Y11495D1*
X12287Y11968D1*
X12394Y12037D1*
X12503Y12058D1*
X12608D1*
X12590Y12180D1*
X12601Y12304D1*
X12637Y12424D1*
X12698Y12533D1*
X12779Y12627D1*
X12863Y12691D1*
X12794Y12739D1*
X12709Y12831D1*
X12645Y12938D1*
X12605Y13056D1*
X12590Y13180D1*
X12601Y13304D1*
X12637Y13424D1*
X12698Y13533D1*
X12779Y13627D1*
X12863Y13691D1*
X12794Y13739D1*
X12709Y13831D1*
X12645Y13938D1*
X12605Y14056D1*
X12590Y14180D1*
X12601Y14304D1*
X12625Y14383D1*
X12174Y14385D1*
X13720Y10652D2*
X14306D1*
X14307Y11230D1*
X14058Y10990D1*
X13718Y10651D1*
X10833Y10652D2*
X11672Y10648D1*
X11753Y10652D1*
X12341D1*
Y10578D1*
X12399Y10661D1*
X12647Y10908D1*
X12645Y10938D1*
X12605Y11056D1*
X12590Y11180D1*
X12601Y11304D1*
X12651Y11448D1*
X12541Y11360D1*
X12156Y10974D1*
X12048Y10906D1*
X11940Y10885D1*
X10710D1*
X10593Y10746D1*
X10521Y10693D1*
X10578Y10647D1*
X10665Y10557D1*
X10704Y10494D1*
X10708Y10652D1*
X10833D1*
X32214Y17066D2*
X32252Y17204D1*
X32313Y17313D1*
X32395Y17408D1*
X32494Y17483D1*
X32607Y17536D1*
X32764Y17565D1*
X31717D1*
X32214Y17068D1*
X35162Y14286D2*
X35124Y14168D1*
X35062Y14059D1*
X34979Y13966D1*
X34878Y13893D1*
X34764Y13841D1*
X34643Y13815D1*
X34518Y13814D1*
X34396Y13839D1*
X34281Y13888D1*
X34179Y13961D1*
X34095Y14052D1*
X34031Y14160D1*
X33991Y14278D1*
X33976Y14402D1*
X33987Y14526D1*
X34024Y14645D1*
X34085Y14754D1*
X34166Y14849D1*
X34266Y14924D1*
X34379Y14977D1*
X34500Y15005D1*
X34625Y15008D1*
X34748Y14985D1*
X34863Y14937D1*
X34966Y14866D1*
X35051Y14776D1*
X35117Y14669D1*
X35159Y14552D1*
X35175Y14410D1*
X35162Y14286D1*
X6553Y16682D2*
X6531Y16719D1*
X6491Y16837D1*
X6476Y16961D1*
X6487Y17085D1*
X6524Y17204D1*
X6585Y17313D1*
X6666Y17408D1*
X6766Y17483D1*
X6879Y17536D1*
X7035Y17565D1*
X5374D1*
X5476Y17544D1*
X5591Y17496D1*
X5694Y17425D1*
X5780Y17335D1*
X5845Y17228D1*
X5887Y17111D1*
X5904Y16970D1*
X5891Y16845D1*
X5852Y16727D1*
X5827Y16683D1*
X6551Y16680D1*
X4781Y16682D2*
X4760Y16719D1*
X4719Y16837D1*
X4705Y16961D1*
X4716Y17085D1*
X4752Y17204D1*
X4813Y17313D1*
X4895Y17408D1*
X4994Y17483D1*
X5107Y17536D1*
X5264Y17565D1*
X4315D1*
Y16670D1*
X4391Y16680D1*
X4777D1*
X7662Y7345D2*
X7624Y7227D1*
X7562Y7118D1*
X7479Y7025D1*
X7378Y6952D1*
X7264Y6900D1*
X7143Y6874D1*
X7018Y6873D1*
X6896Y6898D1*
X6781Y6947D1*
X6679Y7020D1*
X6595Y7111D1*
X6531Y7219D1*
X6491Y7337D1*
X6476Y7461D1*
X6487Y7585D1*
X6524Y7704D1*
X6585Y7813D1*
X6666Y7908D1*
X6766Y7983D1*
X6879Y8036D1*
X7000Y8064D1*
X7125Y8067D1*
X7248Y8044D1*
X7363Y7996D1*
X7466Y7925D1*
X7551Y7835D1*
X7617Y7728D1*
X7659Y7611D1*
X7675Y7470D1*
X7662Y7345D1*
X9597Y8262D2*
X9601Y8304D1*
X9637Y8424D1*
X9698Y8533D1*
X9779Y8627D1*
X9863Y8691D1*
X9794Y8739D1*
X9709Y8831D1*
X9645Y8938D1*
X9605Y9056D1*
X9590Y9180D1*
X9601Y9304D1*
X9625Y9383D1*
X9038Y9385D1*
X8914Y9412D1*
X8823Y9474D1*
X7910Y10389D1*
X7905Y9953D1*
X9593Y8268D1*
X10777Y15066D2*
X10769Y15040D1*
X10940Y14995D1*
X12624D1*
X12605Y15056D1*
X12590Y15180D1*
X12601Y15304D1*
X12625Y15383D1*
X10812Y15385D1*
X10755D1*
X10773Y15334D1*
X10790Y15190D1*
X10777Y15066D1*
Y16066D2*
X10769Y16040D1*
X10940Y15995D1*
X12624D1*
X12605Y16056D1*
X12590Y16180D1*
X12601Y16304D1*
X12639Y16427D1*
X10742Y16425D1*
X10773Y16334D1*
X10790Y16190D1*
X10777Y16066D1*
X21914Y9288D2*
X22039D1*
Y10303D1*
X21915Y10213D1*
Y9291D1*
X22649Y15070D2*
Y9449D1*
X26219Y9448D1*
X26172Y9540D1*
X26161Y9623D1*
Y15212D1*
X23931Y15210D1*
X22646D1*
X22649Y15070D1*
X18389Y17038D2*
X9516Y17035D1*
X9203Y16727D1*
X9226Y16596D1*
X9577Y16946D1*
X9684Y17014D1*
X9674Y17038D1*
X9522D1*
X9600Y16967D1*
X9710Y17024D1*
X9793Y17035D1*
X17590D1*
X17715Y17008D1*
X17806Y16946D1*
X17955Y16792D1*
X18029Y16877D1*
X18129Y16953D1*
X18241Y17006D1*
X18363Y17035D1*
X18490Y17038D1*
X18610Y17015D1*
X18726Y16968D1*
X18828Y16897D1*
X18915Y16807D1*
X18937Y16771D1*
X19029Y16877D1*
X19129Y16953D1*
X19241Y17006D1*
X19363Y17035D1*
X19490Y17038D1*
X19610Y17015D1*
X19726Y16968D1*
X19828Y16897D1*
X19915Y16807D1*
X19937Y16771D1*
X20029Y16877D1*
X20129Y16953D1*
X20241Y17006D1*
X20363Y17035D1*
X20490Y17038D1*
X20610Y17015D1*
X20726Y16968D1*
X20828Y16897D1*
X20915Y16807D1*
X20937Y16771D1*
X21029Y16877D1*
X21129Y16953D1*
X21241Y17006D1*
X21363Y17035D1*
X21490Y17038D1*
X21610Y17015D1*
X21726Y16968D1*
X21828Y16897D1*
X21915Y16807D1*
X21937Y16771D1*
X22029Y16877D1*
X22129Y16953D1*
X22241Y17006D1*
X22363Y17035D1*
X22490Y17038D1*
X22610Y17015D1*
X22726Y16968D1*
X22828Y16897D1*
X22915Y16807D1*
X22937Y16771D1*
X23029Y16877D1*
X23129Y16953D1*
X23241Y17006D1*
X23363Y17035D1*
X23490Y17038D1*
X23610Y17015D1*
X23726Y16968D1*
X23828Y16897D1*
X23915Y16807D1*
X23937Y16771D1*
X24029Y16877D1*
X24129Y16953D1*
X24241Y17006D1*
X24363Y17035D1*
X24490Y17038D1*
X24610Y17015D1*
X24726Y16968D1*
X24828Y16897D1*
X24915Y16807D1*
X24937Y16771D1*
X25029Y16877D1*
X25129Y16953D1*
X25241Y17006D1*
X25363Y17035D1*
X25490Y17038D1*
X25610Y17015D1*
X25726Y16968D1*
X25828Y16897D1*
X25915Y16807D1*
X25937Y16771D1*
X26029Y16877D1*
X26129Y16953D1*
X26241Y17006D1*
X26363Y17035D1*
X26490Y17038D1*
X26610Y17015D1*
X26726Y16968D1*
X26828Y16897D1*
X26915Y16807D1*
X26937Y16771D1*
X27029Y16877D1*
X27129Y16953D1*
X27241Y17006D1*
X27363Y17035D1*
X27490Y17038D1*
X27610Y17015D1*
X27726Y16968D1*
X27828Y16897D1*
X27915Y16807D1*
X27937Y16771D1*
X28029Y16877D1*
X28129Y16953D1*
X28241Y17006D1*
X28363Y17035D1*
X28490Y17038D1*
X28610Y17015D1*
X28726Y16968D1*
X28828Y16897D1*
X28915Y16807D1*
X28937Y16771D1*
X29029Y16877D1*
X29129Y16953D1*
X29241Y17006D1*
X29363Y17035D1*
X29490Y17038D1*
X29610Y17015D1*
X29726Y16968D1*
X29828Y16897D1*
X29915Y16807D1*
X29980Y16701D1*
X30023Y16584D1*
X30040Y16440D1*
X30027Y16316D1*
X29989Y16197D1*
X29927Y16089D1*
X29843Y15996D1*
X29743Y15922D1*
X29629Y15871D1*
X29507Y15844D1*
X29383Y15843D1*
X29260Y15868D1*
X29146Y15917D1*
X29044Y15989D1*
X28941Y16111D1*
X28843Y15996D1*
X28743Y15922D1*
X28629Y15871D1*
X28507Y15844D1*
X28383Y15843D1*
X28260Y15868D1*
X28146Y15917D1*
X28044Y15989D1*
X27941Y16111D1*
X27843Y15996D1*
X27743Y15922D1*
X27629Y15871D1*
X27507Y15844D1*
X27383Y15843D1*
X27260Y15868D1*
X27146Y15917D1*
X27044Y15989D1*
X26941Y16111D1*
X26843Y15996D1*
X26809Y15971D1*
X26885Y15941D1*
X26951Y15891D1*
X27111Y15731D1*
X27179Y15623D1*
X27200Y15515D1*
Y10120D1*
X27996Y10118D1*
X27993Y11190D1*
Y14940D1*
X28032Y15057D1*
X28136Y15128D1*
X28315Y15137D1*
X31764D1*
X31762Y15746D1*
X31629Y15602D1*
X31526Y15530D1*
X31413Y15478D1*
X31293Y15446D1*
X31168Y15435D1*
X31044Y15446D1*
X30923Y15479D1*
X30810Y15532D1*
X30708Y15604D1*
X30620Y15693D1*
X30549Y15795D1*
X30497Y15909D1*
X30465Y16029D1*
X30455Y16154D1*
X30467Y16278D1*
X30500Y16398D1*
X30553Y16511D1*
X30625Y16613D1*
X30714Y16701D1*
X30817Y16772D1*
X30930Y16824D1*
X31051Y16855D1*
X31176Y16865D1*
X31300Y16853D1*
X31420Y16820D1*
X31533Y16766D1*
X31596Y16725D1*
X31284Y17037D1*
X18549Y17038D1*
X6359Y12151D2*
D16*
Y11229D1*
X12188Y5690D2*
Y5130D1*
Y5690D2*
X12708D1*
X12109Y6440D2*
X12590D1*
X12109Y7651D2*
Y7190D1*
X12590D1*
X20192Y7440D2*
Y6880D1*
X19672Y7440D2*
X20192D1*
X22609Y6690D2*
Y6229D1*
Y6690D2*
X23090D1*
X22609Y7440D2*
X23090D1*
X21940Y12997D2*
Y11883D1*
X30940Y5440D2*
Y4841D1*
X30341Y5440D2*
X31539D1*
X35190Y12039D2*
Y11440D1*
X34591D2*
X35190D1*
X20440Y8955D2*
Y8355D1*
X19440D2*
Y7755D1*
X18440Y8355D2*
Y7755D1*
X8690Y15102D2*
Y13903D1*
X11690Y14190D2*
Y13729D1*
Y14190D2*
X12171D1*
X34576Y16970D2*
Y16370D1*
X33977Y16970D2*
X35175D1*
X34576Y8069D2*
Y6870D1*
X33977Y7470D2*
X34576D1*
X5304Y15010D2*
Y14410D1*
X4705D2*
X5903D1*
X5304Y5510D2*
Y4910D1*
X4705D2*
X5903D1*
X13190Y7190D2*
Y6590D1*
X12590Y7190D2*
X13190D1*
G36*
X18993Y12360D2*
X19300Y12666D1*
X19815Y12151D1*
X19508Y11845D1*
X18993Y12360D1*
G37*
G36*
X18604Y11970D2*
X18910Y12276D1*
X19425Y11761D1*
X19119Y11455D1*
X18604Y11970D1*
G37*
G36*
X18214Y11580D2*
X18520Y11887D1*
X19035Y11372D1*
X18729Y11065D1*
X18214Y11580D1*
G37*
G36*
X20065Y9729D2*
X20371Y10035D1*
X20887Y9520D1*
X20580Y9214D1*
X20065Y9729D1*
G37*
G36*
X20455Y10119D2*
X20761Y10425D1*
X21276Y9910D1*
X20970Y9604D1*
X20455Y10119D1*
G37*
G36*
X20845Y10509D2*
X21151Y10815D1*
X21666Y10300D1*
X21360Y9993D1*
X20845Y10509D1*
G37*
G36*
X21067Y12624D2*
X21624Y12067D1*
X21095Y11539D1*
X20539Y12095D1*
X21067Y12624D1*
G37*
G36*
X18785Y10341D2*
X19341Y9785D1*
X18813Y9256D1*
X18256Y9813D1*
X18785Y10341D1*
G37*
D19*
X5690Y11690D3*
X6359D3*
D20*
X11440Y5690D3*
X12188D3*
D19*
X11440Y6440D3*
X12109D3*
X11440Y7190D3*
X12109D3*
D20*
X20940Y7440D3*
X20192D3*
D19*
X21940Y6690D3*
X22609D3*
X21940Y7440D3*
X22609D3*
D22*
X5690Y12440D3*
X7029D3*
X5690Y13440D3*
X7029D3*
G36*
X21648Y12454D2*
X21926Y12732D1*
X22232Y12426D1*
X21954Y12148D1*
X21648Y12454D1*
G37*
G36*
X21174Y12927D2*
X21453Y13206D1*
X21759Y12899D1*
X21481Y12621D1*
X21174Y12927D1*
G37*
D23*
X6690Y9190D3*
D24*
Y10190D3*
D23*
X30940Y6440D3*
D24*
Y5440D3*
D23*
X4690Y13440D3*
D24*
Y12440D3*
Y11440D3*
Y10440D3*
Y9440D3*
Y8440D3*
D23*
X35190Y10440D3*
D24*
Y11440D3*
D23*
X29440Y8360D3*
D24*
X28440Y8355D3*
X27440D3*
X26440D3*
X25440D3*
X24440D3*
X23440D3*
X22440D3*
X21440D3*
X20440D3*
X19440D3*
X18440D3*
X16840Y9900D3*
Y10900D3*
Y11900D3*
Y12900D3*
Y13900D3*
Y14900D3*
X18440Y16440D3*
X19440D3*
X20440D3*
X21440D3*
X22440D3*
X23440D3*
X24440D3*
X25440D3*
X26440D3*
X27440D3*
X28440D3*
X29440D3*
D25*
X9440Y15753D3*
X8627Y16565D3*
X8690Y14503D3*
X20065Y10878D3*
X14252Y6690D3*
X11565Y7878D3*
X8565Y12565D3*
D18*
X7690Y13190D3*
Y12521D3*
X9440Y14940D3*
Y14271D3*
D19*
X13940Y8190D3*
X14609D3*
D18*
X20940Y13440D3*
Y14109D3*
D19*
X11690Y14190D3*
X11021D3*
X13940Y9190D3*
X14609D3*
X13940Y10190D3*
X14609D3*
X11190D3*
X11859D3*
X11190Y9190D3*
X11859D3*
D18*
X28440Y7440D3*
Y6771D3*
X29440Y7440D3*
Y6771D3*
D24*
X34576Y16970D3*
X32804D3*
Y14410D3*
X34576D3*
D23*
Y7470D3*
D24*
X32804D3*
Y4910D3*
X34576D3*
X5304Y14410D3*
X7076D3*
Y16970D3*
X5304D3*
D23*
Y4910D3*
D24*
X7076D3*
Y7470D3*
X5304D3*
X10190Y7190D3*
Y8190D3*
Y9190D3*
Y10190D3*
Y11190D3*
Y12190D3*
Y13190D3*
Y14190D3*
Y15190D3*
Y16190D3*
X13190Y7190D3*
Y8190D3*
Y9190D3*
Y10190D3*
Y11190D3*
Y12190D3*
Y13190D3*
Y14190D3*
Y15190D3*
Y16190D3*
M02*
