G04 DipTrace 2.4.0.2*
%INTopAssy.gbr*%
%MOIN*%
%ADD10C,0.0098*%
%ADD11C,0.006*%
%ADD17C,0.0013*%
%ADD18R,0.0394X0.0433*%
%ADD19R,0.0433X0.0394*%
%ADD20R,0.0512X0.0591*%
%ADD21C,0.0157*%
%ADD22R,0.0315X0.063*%
%ADD23R,0.0669X0.0669*%
%ADD24C,0.0669*%
%ADD25C,0.067*%
%ADD59C,0.0062*%
%FSLAX44Y44*%
G04*
G70*
G90*
G75*
G01*
%LNTopAssy*%
%LPD*%
X18200Y11288D2*
D10*
X17852Y10940D1*
X19592Y12680D2*
X19940Y13028D1*
X20566Y12402D1*
X17852Y10940D2*
X18478Y10314D1*
X21680Y10592D2*
X22028Y10940D1*
X21402Y11566D2*
X22028Y10940D1*
X19314Y9478D2*
X19940Y8852D1*
X20288Y9200D2*
X19940Y8852D1*
X19692Y12779D2*
X20189D1*
X19675Y11205D2*
X20205D1*
Y10675D1*
X19675D1*
Y11205D2*
Y10675D1*
X19940Y11294D2*
Y11647D1*
X19852Y11559D1*
X19940Y11647D2*
X20028Y11558D1*
X20293Y10940D2*
X20470D1*
X20382Y10852D1*
X20470Y10940D2*
X20382Y11029D1*
X19940Y10586D2*
Y10409D1*
X20028Y10498D1*
X19940Y10409D2*
X19852Y10498D1*
X19586Y10940D2*
X19410D1*
X19498Y11028D1*
X19410Y10940D2*
X19498Y10852D1*
X19815Y10940D2*
G02X19815Y10940I125J0D01*
G01*
G36*
X18993Y12360D2*
X19300Y12666D1*
X19815Y12151D1*
X19508Y11845D1*
X18993Y12360D1*
G37*
G36*
X18604Y11970D2*
X18910Y12276D1*
X19425Y11761D1*
X19119Y11455D1*
X18604Y11970D1*
G37*
G36*
X18214Y11580D2*
X18520Y11887D1*
X19035Y11372D1*
X18729Y11065D1*
X18214Y11580D1*
G37*
G36*
X20065Y9729D2*
X20371Y10035D1*
X20887Y9520D1*
X20580Y9214D1*
X20065Y9729D1*
G37*
G36*
X20455Y10119D2*
X20761Y10425D1*
X21276Y9910D1*
X20970Y9604D1*
X20455Y10119D1*
G37*
G36*
X20845Y10509D2*
X21151Y10815D1*
X21666Y10300D1*
X21360Y9993D1*
X20845Y10509D1*
G37*
G36*
X21067Y12624D2*
X21624Y12067D1*
X21095Y11539D1*
X20539Y12095D1*
X21067Y12624D1*
G37*
G36*
X18785Y10341D2*
X19341Y9785D1*
X18813Y9256D1*
X18256Y9813D1*
X18785Y10341D1*
G37*
X5316Y11533D2*
D10*
Y11847D1*
D19*
X5690Y11690D3*
X6359D3*
X11026Y5434D2*
D10*
Y5946D1*
D20*
X11440Y5690D3*
X12188D3*
X11066Y6283D2*
D10*
Y6597D1*
D19*
X11440Y6440D3*
X12109D3*
X11066Y7033D2*
D10*
Y7347D1*
D19*
X11440Y7190D3*
X12109D3*
X21354Y7696D2*
D10*
Y7184D1*
D20*
X20940Y7440D3*
X20192D3*
X21566Y6533D2*
D10*
Y6847D1*
D19*
X21940Y6690D3*
X22609D3*
X21566Y7283D2*
D10*
Y7597D1*
D19*
X21940Y7440D3*
X22609D3*
X6005Y12755D2*
D10*
X6714D1*
X6005Y12125D2*
X6714D1*
D21*
X5316Y12440D3*
D22*
X5690D3*
X7029D3*
X6005Y13755D2*
D10*
X6714D1*
X6005Y13125D2*
X6714D1*
D21*
X5316Y13440D3*
D22*
X5690D3*
X7029D3*
X22288Y12315D2*
D10*
X22065Y12092D1*
G36*
X21648Y12454D2*
X21926Y12732D1*
X22232Y12426D1*
X21954Y12148D1*
X21648Y12454D1*
G37*
G36*
X21174Y12927D2*
X21453Y13206D1*
X21759Y12899D1*
X21481Y12621D1*
X21174Y12927D1*
G37*
D23*
X6690Y9190D3*
D24*
Y10190D3*
D23*
X30940Y6440D3*
D24*
Y5440D3*
D23*
X4690Y13440D3*
D24*
Y12440D3*
Y11440D3*
Y10440D3*
Y9440D3*
Y8440D3*
D23*
X35190Y10440D3*
D24*
Y11440D3*
D23*
X29440Y8360D3*
D24*
X28440Y8355D3*
X27440D3*
X26440D3*
X25440D3*
X24440D3*
X23440D3*
X22440D3*
X21440D3*
X20440D3*
X19440D3*
X18440D3*
X16840Y9900D3*
Y10900D3*
Y11900D3*
Y12900D3*
Y13900D3*
Y14900D3*
X18440Y16440D3*
X19440D3*
X20440D3*
X21440D3*
X22440D3*
X23440D3*
X24440D3*
X25440D3*
X26440D3*
X27440D3*
X28440D3*
X29440D3*
D25*
X9440Y15753D3*
X8627Y16565D3*
X8690Y14503D3*
X20065Y10878D3*
X14252Y6690D3*
X11565Y7878D3*
X8565Y12565D3*
D18*
X7690Y13190D3*
Y12521D3*
X9440Y14940D3*
Y14271D3*
D19*
X13940Y8190D3*
X14609D3*
D18*
X20940Y13440D3*
Y14109D3*
D19*
X11690Y14190D3*
X11021D3*
X13940Y9190D3*
X14609D3*
X13940Y10190D3*
X14609D3*
X11190D3*
X11859D3*
X11190Y9190D3*
X11859D3*
D18*
X28440Y7440D3*
Y6771D3*
X29440Y7440D3*
Y6771D3*
X32981Y15690D2*
D10*
G02X32981Y15690I709J0D01*
G01*
X32509Y16596D2*
Y14784D1*
X33296Y14509D2*
X34084D1*
X34871Y14784D2*
Y16438D1*
X34084Y16871D2*
X33296D1*
X33099Y15690D2*
G02X33099Y15690I591J0D01*
G01*
D24*
X34576Y16970D3*
X32804D3*
Y14410D3*
X34576D3*
X32981Y6190D2*
D10*
G02X32981Y6190I709J0D01*
G01*
X32509Y7096D2*
Y5284D1*
X33296Y5009D2*
X34084D1*
X34871Y5284D2*
Y6938D1*
X34084Y7371D2*
X33296D1*
X33099Y6190D2*
G02X33099Y6190I591J0D01*
G01*
D23*
X34576Y7470D3*
D24*
X32804D3*
Y4910D3*
X34576D3*
X5481Y15690D2*
D10*
G02X5481Y15690I709J0D01*
G01*
X7371Y14784D2*
Y16596D1*
X6584Y16871D2*
X5796D1*
X5009Y16596D2*
Y14942D1*
X5796Y14509D2*
X6584D1*
X5600Y15690D2*
G02X5600Y15690I591J0D01*
G01*
D24*
X5304Y14410D3*
X7076D3*
Y16970D3*
X5304D3*
X5481Y6190D2*
D10*
G02X5481Y6190I709J0D01*
G01*
X7371Y5284D2*
Y7096D1*
X6584Y7371D2*
X5796D1*
X5009Y7096D2*
Y5442D1*
X5796Y5009D2*
X6584D1*
X5600Y6190D2*
G02X5600Y6190I591J0D01*
G01*
D23*
X5304Y4910D3*
D24*
X7076D3*
Y7470D3*
X5304D3*
X10190Y7190D3*
Y8190D3*
Y9190D3*
Y10190D3*
Y11190D3*
Y12190D3*
Y13190D3*
Y14190D3*
Y15190D3*
Y16190D3*
X13190Y7190D3*
Y8190D3*
Y9190D3*
Y10190D3*
Y11190D3*
Y12190D3*
Y13190D3*
Y14190D3*
Y15190D3*
Y16190D3*
X2640Y19340D2*
D17*
X37240D1*
Y2540D1*
X2640D1*
Y19340D1*
X20278Y13231D2*
D59*
X20124Y13633D1*
X19971Y13231D1*
X20029Y13365D2*
X20220D1*
X22534Y11069D2*
Y10667D1*
X22706D1*
X22764Y10687D1*
X22783Y10706D1*
X22802Y10744D1*
Y10801D1*
X22783Y10840D1*
X22764Y10859D1*
X22706Y10878D1*
X22764Y10897D1*
X22783Y10916D1*
X22802Y10954D1*
Y10993D1*
X22783Y11031D1*
X22764Y11050D1*
X22706Y11069D1*
X22534D1*
Y10878D2*
X22706D1*
X17871Y11151D2*
X17852Y11189D1*
X17814Y11227D1*
X17776Y11246D1*
X17699D1*
X17661Y11227D1*
X17623Y11189D1*
X17603Y11151D1*
X17584Y11093D1*
Y10997D1*
X17603Y10940D1*
X17623Y10902D1*
X17661Y10864D1*
X17699Y10844D1*
X17776D1*
X17814Y10864D1*
X17852Y10902D1*
X17871Y10940D1*
X20148Y8683D2*
Y8281D1*
X20281D1*
X20339Y8301D1*
X20377Y8339D1*
X20396Y8377D1*
X20415Y8434D1*
Y8530D1*
X20396Y8587D1*
X20377Y8626D1*
X20339Y8664D1*
X20281Y8683D1*
X20148D1*
X3940Y3940D2*
D11*
X35940D1*
Y17940D1*
X3940D1*
Y3940D1*
M02*
