G04 DipTrace 2.4.0.2*
%INTopMask.gbr*%
%MOIN*%
%ADD31C,0.0295*%
%ADD32C,0.0413*%
%ADD33C,0.09*%
%ADD44C,0.075*%
%ADD46C,0.0749*%
%ADD48R,0.0749X0.0749*%
%ADD50R,0.0395X0.071*%
%ADD52R,0.0592X0.0671*%
%ADD54R,0.0513X0.0474*%
%ADD56R,0.0474X0.0513*%
%FSLAX44Y44*%
G04*
G70*
G90*
G75*
G01*
%LNTopMask*%
%LPD*%
G36*
X18937Y12360D2*
X19300Y12723D1*
X19871Y12151D1*
X19508Y11788D1*
X18937Y12360D1*
G37*
G36*
X18547Y11970D2*
X18910Y12333D1*
X19482Y11761D1*
X19119Y11398D1*
X18547Y11970D1*
G37*
G36*
X18157Y11580D2*
X18520Y11943D1*
X19092Y11372D1*
X18729Y11009D1*
X18157Y11580D1*
G37*
G36*
X20009Y9729D2*
X20371Y10092D1*
X20943Y9520D1*
X20580Y9157D1*
X20009Y9729D1*
G37*
G36*
X20398Y10119D2*
X20761Y10482D1*
X21333Y9910D1*
X20970Y9547D1*
X20398Y10119D1*
G37*
G36*
X20788Y10509D2*
X21151Y10871D1*
X21723Y10300D1*
X21360Y9937D1*
X20788Y10509D1*
G37*
G36*
X21067Y12681D2*
X21681Y12067D1*
X21095Y11482D1*
X20482Y12095D1*
X21067Y12681D1*
G37*
G36*
X18785Y10398D2*
X19398Y9785D1*
X18813Y9199D1*
X18199Y9813D1*
X18785Y10398D1*
G37*
D31*
X20469Y11469D3*
D32*
X19411Y10411D3*
D54*
X5690Y11690D3*
X6359D3*
D52*
X11440Y5690D3*
X12188D3*
D54*
X11440Y6440D3*
X12109D3*
X11440Y7190D3*
X12109D3*
D52*
X20940Y7440D3*
X20192D3*
D54*
X21940Y6690D3*
X22609D3*
X21940Y7440D3*
X22609D3*
D50*
X5690Y12440D3*
X7029D3*
X5690Y13440D3*
X7029D3*
G36*
X21591Y12454D2*
X21926Y12789D1*
X22289Y12426D1*
X21954Y12091D1*
X21591Y12454D1*
G37*
G36*
X21118Y12927D2*
X21453Y13262D1*
X21816Y12899D1*
X21481Y12564D1*
X21118Y12927D1*
G37*
D48*
X6690Y9190D3*
D46*
Y10190D3*
D48*
X30940Y6440D3*
D46*
Y5440D3*
D48*
X4690Y13440D3*
D46*
Y12440D3*
Y11440D3*
Y10440D3*
Y9440D3*
Y8440D3*
D48*
X35190Y10440D3*
D46*
Y11440D3*
D48*
X29440Y8360D3*
D46*
X28440Y8355D3*
X27440D3*
X26440D3*
X25440D3*
X24440D3*
X23440D3*
X22440D3*
X21440D3*
X20440D3*
X19440D3*
X18440D3*
X16840Y9900D3*
Y10900D3*
Y11900D3*
Y12900D3*
Y13900D3*
Y14900D3*
X18440Y16440D3*
X19440D3*
X20440D3*
X21440D3*
X22440D3*
X23440D3*
X24440D3*
X25440D3*
X26440D3*
X27440D3*
X28440D3*
X29440D3*
D33*
X31170Y8650D3*
Y16150D3*
X17170Y8650D3*
Y16150D3*
D44*
X9440Y15753D3*
X8627Y16565D3*
X8690Y14503D3*
X20065Y10878D3*
X14252Y6690D3*
X11565Y7878D3*
X8565Y12565D3*
D56*
X7690Y13190D3*
Y12521D3*
X9440Y14940D3*
Y14271D3*
D54*
X13940Y8190D3*
X14609D3*
D56*
X20940Y13440D3*
Y14109D3*
D54*
X11690Y14190D3*
X11021D3*
X13940Y9190D3*
X14609D3*
X13940Y10190D3*
X14609D3*
X11190D3*
X11859D3*
X11190Y9190D3*
X11859D3*
D56*
X28440Y7440D3*
Y6771D3*
X29440Y7440D3*
Y6771D3*
D46*
X34576Y16970D3*
X32804D3*
Y14410D3*
X34576D3*
D48*
Y7470D3*
D46*
X32804D3*
Y4910D3*
X34576D3*
X5304Y14410D3*
X7076D3*
Y16970D3*
X5304D3*
D48*
Y4910D3*
D46*
X7076D3*
Y7470D3*
X5304D3*
X10190Y7190D3*
Y8190D3*
Y9190D3*
Y10190D3*
Y11190D3*
Y12190D3*
Y13190D3*
Y14190D3*
Y15190D3*
Y16190D3*
X13190Y7190D3*
Y8190D3*
Y9190D3*
Y10190D3*
Y11190D3*
Y12190D3*
Y13190D3*
Y14190D3*
Y15190D3*
Y16190D3*
M02*
