G04 DipTrace 2.4.0.2*
%INTopSilk.gbr*%
%MOIN*%
%ADD10C,0.0098*%
%ADD21C,0.0157*%
%ADD58C,0.0077*%
%ADD59C,0.0062*%
%FSLAX44Y44*%
G04*
G70*
G90*
G75*
G01*
%LNTopSilk*%
%LPD*%
X18200Y11288D2*
D10*
X17852Y10940D1*
X19592Y12680D2*
X19940Y13028D1*
X20566Y12402D1*
X17852Y10940D2*
X18478Y10314D1*
X21680Y10592D2*
X22028Y10940D1*
X21402Y11566D2*
X22028Y10940D1*
X19314Y9478D2*
X19940Y8852D1*
X20288Y9200D2*
X19940Y8852D1*
X19692Y12779D2*
X20189D1*
X19675Y11205D2*
X20205D1*
Y10675D1*
X19675D1*
Y11205D2*
Y10675D1*
X19940Y11294D2*
Y11647D1*
X19852Y11559D1*
X19940Y11647D2*
X20028Y11558D1*
X20293Y10940D2*
X20470D1*
X20382Y10852D1*
X20470Y10940D2*
X20382Y11029D1*
X19940Y10586D2*
Y10409D1*
X20028Y10498D1*
X19940Y10409D2*
X19852Y10498D1*
X19586Y10940D2*
X19410D1*
X19498Y11028D1*
X19410Y10940D2*
X19498Y10852D1*
X19815Y10940D2*
G02X19815Y10940I125J0D01*
G01*
X5316Y11533D2*
Y11847D1*
X11026Y5434D2*
Y5946D1*
X11066Y6283D2*
Y6597D1*
Y7033D2*
Y7347D1*
X21354Y7696D2*
Y7184D1*
X21566Y6533D2*
Y6847D1*
Y7283D2*
Y7597D1*
X6005Y12755D2*
X6714D1*
X6005Y12125D2*
X6714D1*
D21*
X5316Y12440D3*
X6005Y13755D2*
D10*
X6714D1*
X6005Y13125D2*
X6714D1*
D21*
X5316Y13440D3*
X22288Y12315D2*
D10*
X22065Y12092D1*
X32981Y15690D2*
G02X32981Y15690I709J0D01*
G01*
X32509Y16596D2*
Y14784D1*
X33296Y14509D2*
X34084D1*
X34871Y14784D2*
Y16438D1*
X34084Y16871D2*
X33296D1*
X33099Y15690D2*
G02X33099Y15690I591J0D01*
G01*
X32981Y6190D2*
G02X32981Y6190I709J0D01*
G01*
X32509Y7096D2*
Y5284D1*
X33296Y5009D2*
X34084D1*
X34871Y5284D2*
Y6938D1*
X34084Y7371D2*
X33296D1*
X33099Y6190D2*
G02X33099Y6190I591J0D01*
G01*
X5481Y15690D2*
G02X5481Y15690I709J0D01*
G01*
X7371Y14784D2*
Y16596D1*
X6584Y16871D2*
X5796D1*
X5009Y16596D2*
Y14942D1*
X5796Y14509D2*
X6584D1*
X5600Y15690D2*
G02X5600Y15690I591J0D01*
G01*
X5481Y6190D2*
G02X5481Y6190I709J0D01*
G01*
X7371Y5284D2*
Y7096D1*
X6584Y7371D2*
X5796D1*
X5009Y7096D2*
Y5442D1*
X5796Y5009D2*
X6584D1*
X5600Y6190D2*
G02X5600Y6190I591J0D01*
G01*
X23410Y11001D2*
D58*
Y10498D1*
X23625D1*
X23697Y10523D1*
X23721Y10546D1*
X23745Y10594D1*
Y10666D1*
X23721Y10714D1*
X23697Y10738D1*
X23625Y10761D1*
X23697Y10786D1*
X23721Y10809D1*
X23745Y10857D1*
Y10905D1*
X23721Y10953D1*
X23697Y10977D1*
X23625Y11001D1*
X23410D1*
Y10761D2*
X23625D1*
X24067Y11001D2*
Y10498D1*
X23899Y11001D2*
X24234D1*
X24723D2*
Y10498D1*
X24389Y11001D1*
Y10498D1*
X24902Y10881D2*
Y10904D1*
X24926Y10953D1*
X24950Y10976D1*
X24998Y11000D1*
X25093D1*
X25141Y10976D1*
X25165Y10953D1*
X25189Y10904D1*
Y10857D1*
X25165Y10809D1*
X25117Y10738D1*
X24878Y10498D1*
X25213D1*
X25511Y11000D2*
X25439Y10976D1*
X25391Y10904D1*
X25367Y10785D1*
Y10713D1*
X25391Y10594D1*
X25439Y10522D1*
X25511Y10498D1*
X25558D1*
X25630Y10522D1*
X25678Y10594D1*
X25702Y10713D1*
Y10785D1*
X25678Y10904D1*
X25630Y10976D1*
X25558Y11000D1*
X25511D1*
X25678Y10904D2*
X25391Y10594D1*
X25857Y10904D2*
X25905Y10929D1*
X25976Y11000D1*
Y10498D1*
X7499Y8250D2*
X7475Y8297D1*
X7427Y8345D1*
X7380Y8369D1*
X7284D1*
X7236Y8345D1*
X7188Y8297D1*
X7164Y8250D1*
X7140Y8178D1*
Y8058D1*
X7164Y7987D1*
X7188Y7939D1*
X7236Y7891D1*
X7284Y7867D1*
X7380D1*
X7427Y7891D1*
X7475Y7939D1*
X7499Y7987D1*
X7653Y8273D2*
X7701Y8297D1*
X7773Y8369D1*
Y7867D1*
X8071Y8369D2*
X8000Y8345D1*
X7952Y8273D1*
X7928Y8154D1*
Y8082D1*
X7952Y7962D1*
X8000Y7890D1*
X8071Y7867D1*
X8119D1*
X8191Y7890D1*
X8238Y7962D1*
X8263Y8082D1*
Y8154D1*
X8238Y8273D1*
X8191Y8345D1*
X8119Y8369D1*
X8071D1*
X8238Y8273D2*
X7952Y7962D1*
X8704Y8369D2*
X8465D1*
X8441Y8154D1*
X8465Y8177D1*
X8537Y8202D1*
X8608D1*
X8680Y8177D1*
X8728Y8130D1*
X8752Y8058D1*
Y8010D1*
X8728Y7939D1*
X8680Y7890D1*
X8608Y7867D1*
X8537D1*
X8465Y7890D1*
X8441Y7915D1*
X8417Y7962D1*
X14288Y5848D2*
X14264Y5896D1*
X14216Y5944D1*
X14169Y5968D1*
X14073D1*
X14025Y5944D1*
X13977Y5896D1*
X13953Y5848D1*
X13929Y5776D1*
Y5656D1*
X13953Y5585D1*
X13977Y5537D1*
X14025Y5489D1*
X14073Y5465D1*
X14169D1*
X14216Y5489D1*
X14264Y5537D1*
X14288Y5585D1*
X14467Y5848D2*
Y5871D1*
X14491Y5919D1*
X14514Y5943D1*
X14562Y5967D1*
X14658D1*
X14706Y5943D1*
X14729Y5919D1*
X14754Y5871D1*
Y5824D1*
X14729Y5776D1*
X14682Y5704D1*
X14442Y5465D1*
X14777D1*
X15075Y5967D2*
X15004Y5943D1*
X14956Y5871D1*
X14932Y5752D1*
Y5680D1*
X14956Y5561D1*
X15004Y5489D1*
X15075Y5465D1*
X15123D1*
X15195Y5489D1*
X15242Y5561D1*
X15267Y5680D1*
Y5752D1*
X15242Y5871D1*
X15195Y5943D1*
X15123Y5967D1*
X15075D1*
X15242Y5871D2*
X14956Y5561D1*
X15421Y5871D2*
X15469Y5896D1*
X15541Y5967D1*
Y5465D1*
X14392Y6500D2*
X14368Y6547D1*
X14320Y6595D1*
X14272Y6619D1*
X14177D1*
X14128Y6595D1*
X14081Y6547D1*
X14057Y6500D1*
X14033Y6428D1*
Y6308D1*
X14057Y6237D1*
X14081Y6189D1*
X14128Y6141D1*
X14177Y6117D1*
X14272D1*
X14320Y6141D1*
X14368Y6189D1*
X14392Y6237D1*
X14570Y6499D2*
Y6523D1*
X14594Y6571D1*
X14618Y6595D1*
X14666Y6619D1*
X14761D1*
X14809Y6595D1*
X14833Y6571D1*
X14857Y6523D1*
Y6475D1*
X14833Y6427D1*
X14785Y6356D1*
X14546Y6117D1*
X14881D1*
X15179Y6619D2*
X15107Y6595D1*
X15059Y6523D1*
X15035Y6404D1*
Y6332D1*
X15059Y6212D1*
X15107Y6140D1*
X15179Y6117D1*
X15226D1*
X15298Y6140D1*
X15346Y6212D1*
X15370Y6332D1*
Y6404D1*
X15346Y6523D1*
X15298Y6595D1*
X15226Y6619D1*
X15179D1*
X15346Y6523D2*
X15059Y6212D1*
X15549Y6499D2*
Y6523D1*
X15573Y6571D1*
X15596Y6595D1*
X15644Y6619D1*
X15740D1*
X15788Y6595D1*
X15811Y6571D1*
X15836Y6523D1*
Y6475D1*
X15811Y6427D1*
X15764Y6356D1*
X15525Y6117D1*
X15859D1*
X14392Y7250D2*
X14368Y7297D1*
X14320Y7345D1*
X14272Y7369D1*
X14177D1*
X14128Y7345D1*
X14081Y7297D1*
X14057Y7250D1*
X14033Y7178D1*
Y7058D1*
X14057Y6987D1*
X14081Y6939D1*
X14128Y6891D1*
X14177Y6867D1*
X14272D1*
X14320Y6891D1*
X14368Y6939D1*
X14392Y6987D1*
X14570Y7249D2*
Y7273D1*
X14594Y7321D1*
X14618Y7345D1*
X14666Y7369D1*
X14761D1*
X14809Y7345D1*
X14833Y7321D1*
X14857Y7273D1*
Y7225D1*
X14833Y7177D1*
X14785Y7106D1*
X14546Y6867D1*
X14881D1*
X15179Y7369D2*
X15107Y7345D1*
X15059Y7273D1*
X15035Y7154D1*
Y7082D1*
X15059Y6962D1*
X15107Y6890D1*
X15179Y6867D1*
X15226D1*
X15298Y6890D1*
X15346Y6962D1*
X15370Y7082D1*
Y7154D1*
X15346Y7273D1*
X15298Y7345D1*
X15226Y7369D1*
X15179D1*
X15346Y7273D2*
X15059Y6962D1*
X15573Y7369D2*
X15835D1*
X15692Y7177D1*
X15764D1*
X15811Y7154D1*
X15835Y7130D1*
X15859Y7058D1*
Y7010D1*
X15835Y6939D1*
X15788Y6890D1*
X15716Y6867D1*
X15644D1*
X15573Y6890D1*
X15549Y6915D1*
X15525Y6962D1*
X19698Y5848D2*
X19674Y5896D1*
X19626Y5944D1*
X19578Y5968D1*
X19483D1*
X19435Y5944D1*
X19387Y5896D1*
X19363Y5848D1*
X19339Y5776D1*
Y5656D1*
X19363Y5585D1*
X19387Y5537D1*
X19435Y5489D1*
X19483Y5465D1*
X19578D1*
X19626Y5489D1*
X19674Y5537D1*
X19698Y5585D1*
X19900Y5967D2*
X20163D1*
X20020Y5776D1*
X20091D1*
X20139Y5752D1*
X20163Y5728D1*
X20187Y5656D1*
Y5609D1*
X20163Y5537D1*
X20115Y5489D1*
X20043Y5465D1*
X19971D1*
X19900Y5489D1*
X19876Y5513D1*
X19852Y5561D1*
X20485Y5967D2*
X20413Y5943D1*
X20365Y5871D1*
X20341Y5752D1*
Y5680D1*
X20365Y5561D1*
X20413Y5489D1*
X20485Y5465D1*
X20533D1*
X20604Y5489D1*
X20652Y5561D1*
X20676Y5680D1*
Y5752D1*
X20652Y5871D1*
X20604Y5943D1*
X20533Y5967D1*
X20485D1*
X20652Y5871D2*
X20365Y5561D1*
X20831Y5871D2*
X20879Y5896D1*
X20951Y5967D1*
Y5465D1*
X21642Y5000D2*
X21618Y5047D1*
X21570Y5095D1*
X21522Y5119D1*
X21427D1*
X21378Y5095D1*
X21331Y5047D1*
X21307Y5000D1*
X21283Y4928D1*
Y4808D1*
X21307Y4737D1*
X21331Y4689D1*
X21378Y4641D1*
X21427Y4617D1*
X21522D1*
X21570Y4641D1*
X21618Y4689D1*
X21642Y4737D1*
X21844Y5119D2*
X22107D1*
X21963Y4927D1*
X22035D1*
X22083Y4904D1*
X22107Y4880D1*
X22131Y4808D1*
Y4760D1*
X22107Y4689D1*
X22059Y4640D1*
X21987Y4617D1*
X21915D1*
X21844Y4640D1*
X21820Y4665D1*
X21796Y4712D1*
X22429Y5119D2*
X22357Y5095D1*
X22309Y5023D1*
X22285Y4904D1*
Y4832D1*
X22309Y4712D1*
X22357Y4640D1*
X22429Y4617D1*
X22476D1*
X22548Y4640D1*
X22596Y4712D1*
X22620Y4832D1*
Y4904D1*
X22596Y5023D1*
X22548Y5095D1*
X22476Y5119D1*
X22429D1*
X22596Y5023D2*
X22309Y4712D1*
X22799Y4999D2*
Y5023D1*
X22823Y5071D1*
X22846Y5095D1*
X22894Y5119D1*
X22990D1*
X23038Y5095D1*
X23061Y5071D1*
X23086Y5023D1*
Y4975D1*
X23061Y4927D1*
X23014Y4856D1*
X22775Y4617D1*
X23109D1*
X21642Y5750D2*
X21618Y5797D1*
X21570Y5845D1*
X21522Y5869D1*
X21427D1*
X21378Y5845D1*
X21331Y5797D1*
X21307Y5750D1*
X21283Y5678D1*
Y5558D1*
X21307Y5487D1*
X21331Y5439D1*
X21378Y5391D1*
X21427Y5367D1*
X21522D1*
X21570Y5391D1*
X21618Y5439D1*
X21642Y5487D1*
X21844Y5869D2*
X22107D1*
X21963Y5677D1*
X22035D1*
X22083Y5654D1*
X22107Y5630D1*
X22131Y5558D1*
Y5510D1*
X22107Y5439D1*
X22059Y5390D1*
X21987Y5367D1*
X21915D1*
X21844Y5390D1*
X21820Y5415D1*
X21796Y5462D1*
X22429Y5869D2*
X22357Y5845D1*
X22309Y5773D1*
X22285Y5654D1*
Y5582D1*
X22309Y5462D1*
X22357Y5390D1*
X22429Y5367D1*
X22476D1*
X22548Y5390D1*
X22596Y5462D1*
X22620Y5582D1*
Y5654D1*
X22596Y5773D1*
X22548Y5845D1*
X22476Y5869D1*
X22429D1*
X22596Y5773D2*
X22309Y5462D1*
X22823Y5869D2*
X23085D1*
X22942Y5677D1*
X23014D1*
X23061Y5654D1*
X23085Y5630D1*
X23109Y5558D1*
Y5510D1*
X23085Y5439D1*
X23038Y5390D1*
X22966Y5367D1*
X22894D1*
X22823Y5390D1*
X22799Y5415D1*
X22775Y5462D1*
X5525Y8737D2*
Y8235D1*
X5693D1*
X5765Y8259D1*
X5813Y8307D1*
X5836Y8355D1*
X5860Y8426D1*
Y8546D1*
X5836Y8618D1*
X5813Y8665D1*
X5765Y8713D1*
X5693Y8737D1*
X5525D1*
X6015Y8641D2*
X6063Y8665D1*
X6134Y8737D1*
Y8235D1*
X6433Y8737D2*
X6361Y8713D1*
X6313Y8641D1*
X6289Y8522D1*
Y8450D1*
X6313Y8330D1*
X6361Y8259D1*
X6433Y8235D1*
X6480D1*
X6552Y8259D1*
X6599Y8330D1*
X6624Y8450D1*
Y8522D1*
X6599Y8641D1*
X6552Y8713D1*
X6480Y8737D1*
X6433D1*
X6599Y8641D2*
X6313Y8330D1*
X6778Y8641D2*
X6826Y8665D1*
X6898Y8737D1*
Y8235D1*
X5418Y11237D2*
Y10735D1*
X5585D1*
X5657Y10759D1*
X5705Y10807D1*
X5729Y10855D1*
X5753Y10926D1*
Y11046D1*
X5729Y11118D1*
X5705Y11165D1*
X5657Y11213D1*
X5585Y11237D1*
X5418D1*
X5907Y11141D2*
X5955Y11165D1*
X6027Y11237D1*
Y10735D1*
X6325Y11237D2*
X6253Y11213D1*
X6205Y11141D1*
X6181Y11022D1*
Y10950D1*
X6205Y10830D1*
X6253Y10759D1*
X6325Y10735D1*
X6373D1*
X6444Y10759D1*
X6492Y10830D1*
X6516Y10950D1*
Y11022D1*
X6492Y11141D1*
X6444Y11213D1*
X6373Y11237D1*
X6325D1*
X6492Y11141D2*
X6205Y10830D1*
X6695Y11117D2*
Y11141D1*
X6719Y11189D1*
X6743Y11213D1*
X6791Y11237D1*
X6886D1*
X6934Y11213D1*
X6958Y11189D1*
X6982Y11141D1*
Y11094D1*
X6958Y11045D1*
X6910Y10974D1*
X6671Y10735D1*
X7006D1*
X22187Y13438D2*
Y12935D1*
X22355D1*
X22427Y12960D1*
X22475Y13007D1*
X22498Y13055D1*
X22522Y13127D1*
Y13247D1*
X22498Y13318D1*
X22475Y13366D1*
X22427Y13414D1*
X22355Y13438D1*
X22187D1*
X22701Y13318D2*
Y13342D1*
X22725Y13390D1*
X22748Y13413D1*
X22797Y13437D1*
X22892D1*
X22940Y13413D1*
X22963Y13390D1*
X22988Y13342D1*
Y13294D1*
X22963Y13246D1*
X22916Y13175D1*
X22677Y12935D1*
X23012D1*
X23310Y13437D2*
X23238Y13413D1*
X23190Y13342D1*
X23166Y13222D1*
Y13150D1*
X23190Y13031D1*
X23238Y12959D1*
X23310Y12935D1*
X23357D1*
X23429Y12959D1*
X23477Y13031D1*
X23501Y13150D1*
Y13222D1*
X23477Y13342D1*
X23429Y13413D1*
X23357Y13437D1*
X23310D1*
X23477Y13342D2*
X23190Y13031D1*
X23655Y13342D2*
X23703Y13366D1*
X23775Y13437D1*
Y12935D1*
X7750Y10669D2*
Y10884D1*
X7726Y10956D1*
X7702Y10980D1*
X7655Y11004D1*
X7607D1*
X7559Y10980D1*
X7535Y10956D1*
X7511Y10884D1*
Y10669D1*
X8013D1*
X7750Y10836D2*
X8013Y11004D1*
X7607Y11158D2*
X7583Y11206D1*
X7511Y11278D1*
X8013D1*
X7511Y11576D2*
X7535Y11504D1*
X7607Y11456D1*
X7726Y11433D1*
X7798D1*
X7918Y11456D1*
X7990Y11504D1*
X8013Y11576D1*
Y11624D1*
X7990Y11696D1*
X7918Y11743D1*
X7798Y11767D1*
X7726D1*
X7607Y11743D1*
X7535Y11696D1*
X7511Y11624D1*
Y11576D1*
X7607Y11743D2*
X7918Y11456D1*
X7607Y11922D2*
X7583Y11970D1*
X7511Y12042D1*
X8013D1*
X9250Y15454D2*
Y15669D1*
X9226Y15741D1*
X9202Y15765D1*
X9155Y15789D1*
X9107D1*
X9059Y15765D1*
X9035Y15741D1*
X9011Y15669D1*
Y15454D1*
X9513D1*
X9250Y15621D2*
X9513Y15789D1*
X9131Y15968D2*
X9107D1*
X9059Y15991D1*
X9035Y16015D1*
X9011Y16063D1*
Y16159D1*
X9035Y16206D1*
X9059Y16230D1*
X9107Y16254D1*
X9155D1*
X9203Y16230D1*
X9274Y16183D1*
X9513Y15943D1*
Y16278D1*
X9011Y16576D2*
X9035Y16504D1*
X9107Y16456D1*
X9226Y16433D1*
X9298D1*
X9418Y16456D1*
X9490Y16504D1*
X9513Y16576D1*
Y16624D1*
X9490Y16696D1*
X9418Y16743D1*
X9298Y16767D1*
X9226D1*
X9107Y16743D1*
X9035Y16696D1*
X9011Y16624D1*
Y16576D1*
X9107Y16743D2*
X9418Y16456D1*
X9011Y17209D2*
Y16970D1*
X9226Y16946D1*
X9203Y16970D1*
X9178Y17042D1*
Y17113D1*
X9203Y17185D1*
X9250Y17233D1*
X9322Y17257D1*
X9370D1*
X9441Y17233D1*
X9490Y17185D1*
X9513Y17113D1*
Y17042D1*
X9490Y16970D1*
X9465Y16946D1*
X9418Y16922D1*
X16385Y5630D2*
X16600D1*
X16672Y5654D1*
X16697Y5678D1*
X16720Y5725D1*
Y5773D1*
X16697Y5821D1*
X16672Y5845D1*
X16600Y5869D1*
X16385D1*
Y5367D1*
X16553Y5630D2*
X16720Y5367D1*
X16899Y5749D2*
Y5773D1*
X16923Y5821D1*
X16947Y5845D1*
X16995Y5869D1*
X17090D1*
X17138Y5845D1*
X17162Y5821D1*
X17186Y5773D1*
Y5725D1*
X17162Y5677D1*
X17114Y5606D1*
X16875Y5367D1*
X17210D1*
X17508Y5869D2*
X17436Y5845D1*
X17388Y5773D1*
X17364Y5654D1*
Y5582D1*
X17388Y5462D1*
X17436Y5390D1*
X17508Y5367D1*
X17555D1*
X17627Y5390D1*
X17675Y5462D1*
X17699Y5582D1*
Y5654D1*
X17675Y5773D1*
X17627Y5845D1*
X17555Y5869D1*
X17508D1*
X17675Y5773D2*
X17388Y5462D1*
X18140Y5797D2*
X18116Y5845D1*
X18045Y5869D1*
X17997D1*
X17925Y5845D1*
X17877Y5773D1*
X17853Y5654D1*
Y5534D1*
X17877Y5439D1*
X17925Y5390D1*
X17997Y5367D1*
X18021D1*
X18092Y5390D1*
X18140Y5439D1*
X18164Y5510D1*
Y5534D1*
X18140Y5606D1*
X18092Y5654D1*
X18021Y5677D1*
X17997D1*
X17925Y5654D1*
X17877Y5606D1*
X17853Y5534D1*
X21750Y13373D2*
Y13588D1*
X21726Y13660D1*
X21702Y13684D1*
X21655Y13708D1*
X21607D1*
X21559Y13684D1*
X21535Y13660D1*
X21511Y13588D1*
Y13373D1*
X22013D1*
X21750Y13541D2*
X22013Y13708D1*
X21631Y13887D2*
X21607D1*
X21559Y13911D1*
X21535Y13934D1*
X21511Y13982D1*
Y14078D1*
X21535Y14126D1*
X21559Y14149D1*
X21607Y14174D1*
X21655D1*
X21703Y14149D1*
X21774Y14102D1*
X22013Y13863D1*
Y14197D1*
X21511Y14496D2*
X21535Y14424D1*
X21607Y14376D1*
X21726Y14352D1*
X21798D1*
X21918Y14376D1*
X21990Y14424D1*
X22013Y14496D1*
Y14543D1*
X21990Y14615D1*
X21918Y14662D1*
X21798Y14687D1*
X21726D1*
X21607Y14662D1*
X21535Y14615D1*
X21511Y14543D1*
Y14496D1*
X21607Y14662D2*
X21918Y14376D1*
X22013Y14937D2*
X21511Y15176D1*
Y14841D1*
X10454Y14880D2*
X10669D1*
X10741Y14904D1*
X10765Y14928D1*
X10789Y14975D1*
Y15023D1*
X10765Y15071D1*
X10741Y15095D1*
X10669Y15119D1*
X10454D1*
Y14617D1*
X10622Y14880D2*
X10789Y14617D1*
X10968Y14999D2*
Y15023D1*
X10992Y15071D1*
X11015Y15095D1*
X11063Y15119D1*
X11159D1*
X11207Y15095D1*
X11230Y15071D1*
X11255Y15023D1*
Y14975D1*
X11230Y14927D1*
X11183Y14856D1*
X10944Y14617D1*
X11278D1*
X11577Y15119D2*
X11505Y15095D1*
X11457Y15023D1*
X11433Y14904D1*
Y14832D1*
X11457Y14712D1*
X11505Y14640D1*
X11577Y14617D1*
X11624D1*
X11696Y14640D1*
X11743Y14712D1*
X11768Y14832D1*
Y14904D1*
X11743Y15023D1*
X11696Y15095D1*
X11624Y15119D1*
X11577D1*
X11743Y15023D2*
X11457Y14712D1*
X12042Y15119D2*
X11970Y15095D1*
X11946Y15047D1*
Y14999D1*
X11970Y14952D1*
X12018Y14927D1*
X12113Y14904D1*
X12185Y14880D1*
X12233Y14832D1*
X12257Y14784D1*
Y14712D1*
X12233Y14665D1*
X12209Y14640D1*
X12137Y14617D1*
X12042D1*
X11970Y14640D1*
X11946Y14665D1*
X11922Y14712D1*
Y14784D1*
X11946Y14832D1*
X11994Y14880D1*
X12065Y14904D1*
X12161Y14927D1*
X12209Y14952D1*
X12233Y14999D1*
Y15047D1*
X12209Y15095D1*
X12137Y15119D1*
X12042D1*
X16385Y6380D2*
X16600D1*
X16672Y6404D1*
X16696Y6428D1*
X16720Y6475D1*
Y6523D1*
X16696Y6571D1*
X16672Y6595D1*
X16600Y6619D1*
X16385D1*
Y6117D1*
X16553Y6380D2*
X16720Y6117D1*
X16899Y6499D2*
Y6523D1*
X16922Y6571D1*
X16946Y6595D1*
X16994Y6619D1*
X17090D1*
X17137Y6595D1*
X17161Y6571D1*
X17186Y6523D1*
Y6475D1*
X17161Y6427D1*
X17114Y6356D1*
X16874Y6117D1*
X17209D1*
X17507Y6619D2*
X17436Y6595D1*
X17387Y6523D1*
X17364Y6404D1*
Y6332D1*
X17387Y6212D1*
X17436Y6140D1*
X17507Y6117D1*
X17555D1*
X17627Y6140D1*
X17674Y6212D1*
X17699Y6332D1*
Y6404D1*
X17674Y6523D1*
X17627Y6595D1*
X17555Y6619D1*
X17507D1*
X17674Y6523D2*
X17387Y6212D1*
X18164Y6452D2*
X18140Y6380D1*
X18092Y6332D1*
X18021Y6308D1*
X17997D1*
X17925Y6332D1*
X17877Y6380D1*
X17853Y6452D1*
Y6475D1*
X17877Y6547D1*
X17925Y6595D1*
X17997Y6619D1*
X18021D1*
X18092Y6595D1*
X18140Y6547D1*
X18164Y6452D1*
Y6332D1*
X18140Y6212D1*
X18092Y6140D1*
X18021Y6117D1*
X17973D1*
X17901Y6140D1*
X17877Y6189D1*
X16481Y7130D2*
X16696D1*
X16768Y7154D1*
X16792Y7178D1*
X16816Y7225D1*
Y7273D1*
X16792Y7321D1*
X16768Y7345D1*
X16696Y7369D1*
X16481D1*
Y6867D1*
X16648Y7130D2*
X16816Y6867D1*
X16994Y7249D2*
Y7273D1*
X17018Y7321D1*
X17042Y7345D1*
X17090Y7369D1*
X17186D1*
X17233Y7345D1*
X17257Y7321D1*
X17281Y7273D1*
Y7225D1*
X17257Y7177D1*
X17209Y7106D1*
X16970Y6867D1*
X17305D1*
X17459Y7273D2*
X17507Y7297D1*
X17579Y7369D1*
Y6867D1*
X17877Y7369D2*
X17806Y7345D1*
X17757Y7273D1*
X17734Y7154D1*
Y7082D1*
X17757Y6962D1*
X17806Y6890D1*
X17877Y6867D1*
X17925D1*
X17997Y6890D1*
X18044Y6962D1*
X18069Y7082D1*
Y7154D1*
X18044Y7273D1*
X17997Y7345D1*
X17925Y7369D1*
X17877D1*
X18044Y7273D2*
X17757Y6962D1*
X10838Y11630D2*
X11053D1*
X11125Y11654D1*
X11149Y11678D1*
X11173Y11725D1*
Y11773D1*
X11149Y11821D1*
X11125Y11845D1*
X11053Y11869D1*
X10838D1*
Y11367D1*
X11006Y11630D2*
X11173Y11367D1*
X11352Y11749D2*
Y11773D1*
X11376Y11821D1*
X11399Y11845D1*
X11447Y11869D1*
X11543D1*
X11591Y11845D1*
X11614Y11821D1*
X11639Y11773D1*
Y11725D1*
X11614Y11677D1*
X11567Y11606D1*
X11328Y11367D1*
X11662D1*
X11817Y11773D2*
X11865Y11797D1*
X11937Y11869D1*
Y11367D1*
X12091Y11773D2*
X12139Y11797D1*
X12211Y11869D1*
Y11367D1*
X10731Y10880D2*
X10946D1*
X11018Y10904D1*
X11042Y10928D1*
X11066Y10975D1*
Y11023D1*
X11042Y11071D1*
X11018Y11095D1*
X10946Y11119D1*
X10731D1*
Y10617D1*
X10898Y10880D2*
X11066Y10617D1*
X11244Y10999D2*
Y11023D1*
X11268Y11071D1*
X11292Y11095D1*
X11340Y11119D1*
X11436D1*
X11483Y11095D1*
X11507Y11071D1*
X11531Y11023D1*
Y10975D1*
X11507Y10927D1*
X11459Y10856D1*
X11220Y10617D1*
X11555D1*
X11709Y11023D2*
X11757Y11047D1*
X11829Y11119D1*
Y10617D1*
X12008Y10999D2*
Y11023D1*
X12032Y11071D1*
X12056Y11095D1*
X12104Y11119D1*
X12199D1*
X12247Y11095D1*
X12271Y11071D1*
X12295Y11023D1*
Y10975D1*
X12271Y10927D1*
X12223Y10856D1*
X11984Y10617D1*
X12319D1*
X28438Y4436D2*
Y4651D1*
X28413Y4723D1*
X28390Y4748D1*
X28342Y4771D1*
X28294D1*
X28246Y4748D1*
X28222Y4723D1*
X28198Y4651D1*
Y4436D1*
X28701D1*
X28438Y4604D2*
X28701Y4771D1*
X28199Y4974D2*
Y5236D1*
X28390Y5093D1*
Y5165D1*
X28414Y5213D1*
X28438Y5236D1*
X28510Y5261D1*
X28557D1*
X28629Y5236D1*
X28677Y5189D1*
X28701Y5117D1*
Y5045D1*
X28677Y4974D1*
X28653Y4950D1*
X28605Y4926D1*
X28199Y5559D2*
X28223Y5487D1*
X28295Y5439D1*
X28414Y5415D1*
X28486D1*
X28605Y5439D1*
X28677Y5487D1*
X28701Y5559D1*
Y5606D1*
X28677Y5678D1*
X28605Y5726D1*
X28486Y5750D1*
X28414D1*
X28295Y5726D1*
X28223Y5678D1*
X28199Y5606D1*
Y5559D1*
X28295Y5726D2*
X28605Y5439D1*
X28295Y5904D2*
X28270Y5952D1*
X28199Y6024D1*
X28701D1*
X29500Y4454D2*
Y4669D1*
X29476Y4741D1*
X29452Y4765D1*
X29405Y4789D1*
X29357D1*
X29309Y4765D1*
X29285Y4741D1*
X29261Y4669D1*
Y4454D1*
X29763D1*
X29500Y4621D2*
X29763Y4789D1*
X29261Y4991D2*
Y5254D1*
X29453Y5111D1*
Y5183D1*
X29476Y5230D1*
X29500Y5254D1*
X29572Y5278D1*
X29620D1*
X29691Y5254D1*
X29740Y5206D1*
X29763Y5134D1*
Y5063D1*
X29740Y4991D1*
X29715Y4968D1*
X29668Y4943D1*
X29261Y5576D2*
X29285Y5504D1*
X29357Y5456D1*
X29476Y5433D1*
X29548D1*
X29668Y5456D1*
X29740Y5504D1*
X29763Y5576D1*
Y5624D1*
X29740Y5696D1*
X29668Y5743D1*
X29548Y5767D1*
X29476D1*
X29357Y5743D1*
X29285Y5696D1*
X29261Y5624D1*
Y5576D1*
X29357Y5743D2*
X29668Y5456D1*
X29381Y5946D2*
X29357D1*
X29309Y5970D1*
X29285Y5994D1*
X29261Y6042D1*
Y6137D1*
X29285Y6185D1*
X29309Y6209D1*
X29357Y6233D1*
X29405D1*
X29453Y6209D1*
X29524Y6161D1*
X29763Y5922D1*
Y6257D1*
X35059Y14270D2*
X35011Y14223D1*
X34987Y14151D1*
Y14055D1*
X35011Y13983D1*
X35059Y13935D1*
X35107D1*
X35155Y13959D1*
X35179Y13983D1*
X35202Y14031D1*
X35250Y14174D1*
X35274Y14223D1*
X35298Y14246D1*
X35346Y14270D1*
X35418D1*
X35465Y14223D1*
X35490Y14151D1*
Y14055D1*
X35465Y13983D1*
X35418Y13935D1*
X34987Y14425D2*
X35490Y14544D1*
X34987Y14664D1*
X35490Y14783D1*
X34987Y14903D1*
X35573Y15058D2*
Y15512D1*
X34987Y16001D2*
X35490D1*
X34987Y15666D1*
X35490D1*
X34987Y16466D2*
Y16156D1*
X35490D1*
Y16466D1*
X35227Y16156D2*
Y16347D1*
X34987Y16621D2*
X35490Y16956D1*
X34987D2*
X35490Y16621D1*
X34987Y17277D2*
X35490D1*
X34987Y17110D2*
Y17445D1*
X35059Y4734D2*
X35011Y4687D1*
X34987Y4615D1*
Y4519D1*
X35011Y4447D1*
X35059Y4399D1*
X35107D1*
X35155Y4424D1*
X35179Y4447D1*
X35202Y4495D1*
X35250Y4639D1*
X35274Y4687D1*
X35298Y4710D1*
X35346Y4734D1*
X35418D1*
X35465Y4687D1*
X35490Y4615D1*
Y4519D1*
X35465Y4447D1*
X35418Y4399D1*
X34987Y4889D2*
X35490Y5009D1*
X34987Y5128D1*
X35490Y5247D1*
X34987Y5367D1*
X35573Y5522D2*
Y5976D1*
X35250Y6130D2*
Y6346D1*
X35227Y6417D1*
X35202Y6441D1*
X35155Y6465D1*
X35083D1*
X35035Y6441D1*
X35011Y6417D1*
X34987Y6346D1*
Y6130D1*
X35490D1*
X34987Y6620D2*
X35490D1*
Y6906D1*
Y7444D2*
X34987Y7252D1*
X35490Y7061D1*
X35322Y7133D2*
Y7372D1*
X34987Y7598D2*
X35227Y7790D1*
X35490D1*
X34987Y7981D2*
X35227Y7790D1*
X4309Y14246D2*
X4261Y14199D1*
X4237Y14127D1*
Y14031D1*
X4261Y13959D1*
X4309Y13911D1*
X4357D1*
X4405Y13936D1*
X4429Y13959D1*
X4452Y14007D1*
X4500Y14151D1*
X4524Y14199D1*
X4548Y14223D1*
X4596Y14246D1*
X4668D1*
X4715Y14199D1*
X4740Y14127D1*
Y14031D1*
X4715Y13959D1*
X4668Y13911D1*
X4237Y14401D2*
X4740Y14521D1*
X4237Y14640D1*
X4740Y14759D1*
X4237Y14879D1*
X4823Y15034D2*
Y15488D1*
X4500Y15642D2*
Y15858D1*
X4477Y15929D1*
X4452Y15954D1*
X4405Y15977D1*
X4333D1*
X4285Y15954D1*
X4261Y15929D1*
X4237Y15858D1*
Y15642D1*
X4740D1*
X4477Y16132D2*
Y16347D1*
X4452Y16419D1*
X4429Y16443D1*
X4381Y16467D1*
X4333D1*
X4285Y16443D1*
X4261Y16419D1*
X4237Y16347D1*
Y16132D1*
X4740D1*
X4477Y16299D2*
X4740Y16467D1*
X4237Y16932D2*
Y16621D1*
X4740D1*
Y16932D1*
X4477Y16621D2*
Y16812D1*
X4237Y17086D2*
X4740Y17277D1*
X4237Y17469D1*
X4309Y4734D2*
X4261Y4687D1*
X4237Y4615D1*
Y4519D1*
X4261Y4447D1*
X4309Y4399D1*
X4357D1*
X4405Y4424D1*
X4429Y4447D1*
X4452Y4495D1*
X4500Y4639D1*
X4524Y4687D1*
X4548Y4710D1*
X4596Y4734D1*
X4668D1*
X4715Y4687D1*
X4740Y4615D1*
Y4519D1*
X4715Y4447D1*
X4668Y4399D1*
X4237Y4889D2*
X4740Y5009D1*
X4237Y5128D1*
X4740Y5247D1*
X4237Y5367D1*
X4823Y5522D2*
Y5976D1*
X4309Y6465D2*
X4261Y6418D1*
X4237Y6346D1*
Y6250D1*
X4261Y6178D1*
X4309Y6130D1*
X4357D1*
X4405Y6155D1*
X4429Y6178D1*
X4452Y6226D1*
X4500Y6370D1*
X4524Y6418D1*
X4548Y6441D1*
X4596Y6465D1*
X4668D1*
X4715Y6418D1*
X4740Y6346D1*
Y6250D1*
X4715Y6178D1*
X4668Y6130D1*
X4237Y6787D2*
X4740D1*
X4237Y6620D2*
Y6955D1*
Y7253D2*
X4261Y7205D1*
X4309Y7157D1*
X4357Y7133D1*
X4429Y7109D1*
X4548D1*
X4620Y7133D1*
X4668Y7157D1*
X4715Y7205D1*
X4740Y7253D1*
Y7348D1*
X4715Y7396D1*
X4668Y7444D1*
X4620Y7468D1*
X4548Y7491D1*
X4429D1*
X4357Y7468D1*
X4309Y7444D1*
X4261Y7396D1*
X4237Y7348D1*
Y7253D1*
X4500Y7646D2*
Y7861D1*
X4477Y7933D1*
X4452Y7957D1*
X4405Y7981D1*
X4333D1*
X4285Y7957D1*
X4261Y7933D1*
X4237Y7861D1*
Y7646D1*
X4740D1*
X20278Y13231D2*
D59*
X20124Y13633D1*
X19971Y13231D1*
X20029Y13365D2*
X20220D1*
X22534Y11069D2*
Y10667D1*
X22706D1*
X22764Y10687D1*
X22783Y10706D1*
X22802Y10744D1*
Y10801D1*
X22783Y10840D1*
X22764Y10859D1*
X22706Y10878D1*
X22764Y10897D1*
X22783Y10916D1*
X22802Y10954D1*
Y10993D1*
X22783Y11031D1*
X22764Y11050D1*
X22706Y11069D1*
X22534D1*
Y10878D2*
X22706D1*
X17871Y11151D2*
X17852Y11189D1*
X17814Y11227D1*
X17776Y11246D1*
X17699D1*
X17661Y11227D1*
X17623Y11189D1*
X17603Y11151D1*
X17584Y11093D1*
Y10997D1*
X17603Y10940D1*
X17623Y10902D1*
X17661Y10864D1*
X17699Y10844D1*
X17776D1*
X17814Y10864D1*
X17852Y10902D1*
X17871Y10940D1*
X20148Y8683D2*
Y8281D1*
X20281D1*
X20339Y8301D1*
X20377Y8339D1*
X20396Y8377D1*
X20415Y8434D1*
Y8530D1*
X20396Y8587D1*
X20377Y8626D1*
X20339Y8664D1*
X20281Y8683D1*
X20148D1*
M02*
